<mxfile host="app.diagrams.net" agent="Mozilla/5.0 (X11; Linux x86_64) AppleWebKit/537.36 (KHTML, like Gecko) Chrome/127.0.0.0 Safari/537.36" version="24.7.5">
  <diagram name="Page-1" id="muixf15L8coaBlrrOaGi">
    <mxGraphModel dx="2906" dy="1132" grid="1" gridSize="10" guides="1" tooltips="1" connect="1" arrows="1" fold="1" page="1" pageScale="1" pageWidth="850" pageHeight="1100" math="0" shadow="0">
      <root>
        <mxCell id="0" />
        <mxCell id="1" parent="0" />
        <mxCell id="xsLZkG5AdHQJMk4DCyu0-20" value="" style="group" vertex="1" connectable="0" parent="1">
          <mxGeometry x="60" y="60" width="701.25" height="110" as="geometry" />
        </mxCell>
        <mxCell id="xsLZkG5AdHQJMk4DCyu0-1" value="VLHF" style="ellipse;whiteSpace=wrap;html=1;" vertex="1" parent="xsLZkG5AdHQJMk4DCyu0-20">
          <mxGeometry x="220" width="110" height="110" as="geometry" />
        </mxCell>
        <mxCell id="xsLZkG5AdHQJMk4DCyu0-5" value="" style="shape=image;verticalLabelPosition=bottom;labelBackgroundColor=default;verticalAlign=top;aspect=fixed;imageAspect=0;image=data:image/jpeg,/9j/4AAQSkZJRgABAQAASABIAAD/4QB2RXhpZgAATU0AKgAAAAgAAwESAAMAAAABAAEAAAExAAIAAAARAAAAModpAAQAAAABAAAARAAAAABBZG9iZSBJbWFnZVJlYWR5AAAAA6ABAAMAAAABAAEAAKACAAQAAAABAAAEsKADAAQAAAABAAABLAAAAAD/7QA4UGhvdG9zaG9wIDMuMAA4QklNBAQAAAAAAAA4QklNBCUAAAAAABDUHYzZjwCyBOmACZjs+EJ+/8AAEQgBLASwAwEiAAIRAQMRAf/EAB8AAAEFAQEBAQEBAAAAAAAAAAABAgMEBQYHCAkKC//EALUQAAIBAwMCBAMFBQQEAAABfQECAwAEEQUSITFBBhNRYQcicRQygZGhCCNCscEVUtHwJDNicoIJChYXGBkaJSYnKCkqNDU2Nzg5OkNERUZHSElKU1RVVldYWVpjZGVmZ2hpanN0dXZ3eHl6g4SFhoeIiYqSk5SVlpeYmZqio6Slpqeoqaqys7S1tre4ubrCw8TFxsfIycrS09TV1tfY2drh4uPk5ebn6Onq8fLz9PX29/j5+v/EAB8BAAMBAQEBAQEBAQEAAAAAAAABAgMEBQYHCAkKC//EALURAAIBAgQEAwQHBQQEAAECdwABAgMRBAUhMQYSQVEHYXETIjKBCBRCkaGxwQkjM1LwFWJy0QoWJDThJfEXGBkaJicoKSo1Njc4OTpDREVGR0hJSlNUVVZXWFlaY2RlZmdoaWpzdHV2d3h5eoKDhIWGh4iJipKTlJWWl5iZmqKjpKWmp6ipqrKztLW2t7i5usLDxMXGx8jJytLT1NXW19jZ2uLj5OXm5+jp6vLz9PX29/j5+v/bAEMAAgICAgICAwICAwQDAwMEBQQEBAQFBwUFBQUFBwgHBwcHBwcICAgICAgICAoKCgoKCgsLCwsLDQ0NDQ0NDQ0NDf/bAEMBAgICAwMDBgMDBg0JBwkNDQ0NDQ0NDQ0NDQ0NDQ0NDQ0NDQ0NDQ0NDQ0NDQ0NDQ0NDQ0NDQ0NDQ0NDQ0NDQ0NDf/dAAQAS//aAAwDAQACEQMRAD8A/fyiiigAooooAKKKKACiiigAooooAKKKKACiiigAopkkkcKGWVlRFGSzHAA9ya4PVvij4E0cslxq0M0i/wAFtmck+mYwVB+pFeVmue5bllP2uY4iFKPeclH82rnZg8vxWLlyYWnKb/upv8jv6K+ftQ/aE0CHI03TLu5IzgyskKn8jIcfhXI3f7Q2uPn7DpNpD6ea7y/+gmOvzPMfHngjCNxeM53/AHITl+PLy/ifV4bw7z+sr+w5V5uK/C9/wPq+ivjWX48+N5N2yOwiz02QucfTdIf1qt/wvLx5/wA9bX/vwP8AGvnan0mOD4uyVV+kF+skenHwqztrVwX/AG8/8j7Tor45i+PnjWM5eDT5B6NDIP8A0GUVu2n7Q+pof9P0aCUf9MZmi/8AQhJXdhPpGcFVnapWnD/FTl/7bzHPW8MM+grxhGXpJfrY+qaK8H074/8Ahe4wuo2V5aMe6hJUH1IZW/8AHa9G0n4heC9b2rYavbF26Ryt5MhPoFkCkn6Zr7/JvEjhfNWo4DHU5SeyclGX/gMrS/A+cx3C2bYNXxGHkl3tdferr8TsqKOvIor7Y8AKKKKACiiigAooooAKKKKACiiigAooooAKKKKACiiigAooooAKKKKACiiigAooooAKKKKACiiigAooooAKKKKACiiigAooooAKKKKACiiigAooooAKKKKACiiigAooooAKKKKACiiigAooooAKKKKACiiigAooooAKKKKACiiigAooooAKKKKACiiigAooooAKKKKACiiigAooooAKKKKACiiigAooooAKKKKACiiigAooooAKKKKACiiigAooooAKKKKACiiigAooooAKKKKACiiigAooooAKKKKACiiigAooooAKKKKACiiigAooooAKKKKACiiigD//0P38ooooAKKKKACiiigAooooAKKKKACisXXvEWjeGrI6hrV0ltEMhdxyzkdkUcsfYCvlvxl8cNZ1cyWXhpW0y0PHnZ/0lx65HEf/AAHJ/wBrtX51x14o5DwpT/4UKt6rWlOOs36raK85NLtfY+n4f4RzHOJf7NC0OsnpFf5vyVz6R8S+OfDHhNP+Jzeok2Mrbx/vJm9PkHIB7FsD3r598R/H7VrovB4Zs0so+gnuMSzH3C/cU+x318/SyyzyNNM7SSOSzMxLMxPUknkmo6/jvjD6RXEubOVLLWsNSf8ALrO3nN6r/t1RP27JPDHKsGlPFL2s/P4flH/O5t6x4k17X5DLrN/PdnOQsjkop/2U+6v4AViVctrC8vD/AKNEzj+90X8zxXQW/hW4bBuZlj9lG4/0H86/CcXjK+KquviZuc3u5Ntv1buz7h1sJhIKmrRS6L/JHJ0V6JD4a0yP74eU/wC02P8A0HFaMel6dF9y2j+pUE/mc1zHHUz2gvhTZ5VRXr6wQpwkar9FAp3lx/3R+QoOf/WBfyfj/wAA8eor15re3f78SN9VBqpJpGmS/eto/wDgI2/yxQXHP6f2oP8Ar7jyyivQZvDGnyZMReI9sHcP15/WsW58L3kfNu6zD0Pyt+uR+tB20s3w09Oa3r/Vh2h+NfFXhsqNH1KeCNf+WRbzIv8Av2+V/TNe4eHP2gWytv4psBjobiz/AKxMfzIb6Cvm64tLm1bbcRNGf9ocH6Hoar199wt4ncTcPtLLsXJQX2Je9D/wGV0vWNn5nnZrwrlOaRcsRSTb+0tH963+d0fovoXibQfEtv8AadDvYrpQAWVTh0z/AHkOGX8QK3a/Nayv73TblLzT55LaeM5WSJijD8RzX0N4N+O88JjsPGUfmx/dF7Cvzj3kjHDe5XB/2TX9X8CfSUyvMZRwnEEFh6j051d02/PrD53XeSPx/iHwsxeFTrZbL2kf5X8S/SXys+yPqOiqWn6jYataR3+m3EdzbyjKSRsGU/l3HcdRV2v6Xo1qdWCq0pJxaumndNPqn1R+UzhKEnCas10CiiitCQooooAKKKKACiiigAooooAKKKKACiiigAooooAKKKKACiiigAooooAKKKKACiiigAooooAKKKKACiiigAooooAKKKKACiiigAooooAKKKKACiiigAooooAKKKKACiiigAooooAKKKKACiiigAooooAKKKKACiiigAooooAKKKKACiiigAooooAKKKKACiiigAooooAKKKKACiiigAooooAKKKKACiiigAooooAKKKKACiiigAooooAKKKKACiiigAooooAKKKKACiiigAooooAKKKKACiiigAooooAKKKKACiiigAooooAKKKKAP//R/fyiiigAooooAKKKKACiiigAryX4g/FbS/B6vp1iFvdWx/qgf3cOehlI799o5PfHBrkvij8Xf7Labw54WkBuxlLm8UgiE90j7F/Vv4eg+b7vyo7vK7SSMXdyWZmOSSeSSe5Nfyv4v+PsctnPJeG5KVZaTqbqD6qPSUl1eqjtq78v6/wV4cvFKOOzVWp7xhs5eb7Ly3fkt9fXNf1fxJfvqWs3L3MzcAtwqL/dVRwq+wrGqSGGWeRYoVLu3AArt9M8ORQYmvsSSdQn8A+vqf0r+J8Xi6+KrSxGJm5zk7tt3bfdt6s/batfDYKkqcUklsl+i6I5mw0e9v8ADRrsj/vtwPw9fwrsbLw9YWuGlHnv6uPl/Ben55rdAAGBwBS1znzeKzavW0i+VeX+YgAAAAwB0ApaKKDywooooAKKKKACiiigAooooAa6JIpSRQynqGGQa5y+8NWk+XtT5D+nVD+Hb8PyrpaKDehiatF3pux5Te6beWDYuEwp6OOVP4/5NUa9idEkUpIoZW4IIyDXIan4aGDNp31MRP8A6Cf6Gg+kwWdQn7lbR9+n/AK/hTxnr3g69+1aRPhGP723fLQyj/aXI59CMEetfZfgf4h6L43tf9FP2e+jXM1pIRvX/aU/xpnuBx3A4z8FsrIxRwVYHBB4INWbG+vNMu4r/T5nguIGDxyIcMpH+fxr9g8MvGLNeE6yoSbq4RvWm3t5wf2X5fC+qvZrxuKuCcHnMHUXuVukl18pd157r8D9KaK8d+GnxTtPF0SaVqxS31dBgDolyAOWT0bjLL+I4yB7FX+hPDPE+XZ/l8Myyupz05fen1jJdGuq+aumm/5rzXKcVl2JlhcXG0l9zXdPqgooor3zzQooooAKKKKACiiigAooooAKKKKACiiigAooooAKKKKACiiigAooooAKKKKACiiigAooooAKKKKACiiigAooooAKKKKACiiigAooooAKKKKACiiigAooooAKKKKACiiigAooooAKKKKACiiigAooooAKKKKACiiigAooooAKKKKACiiigAooooAKKKKACiiigAooooAKKKKACiiigAooooAKKKKACiiigAooooAKKKKACiiigAooooAKKKKACiiigAooooAKKKKACiiigAooooAKKKKACiiigAooooAKKKKACiiigAooooA//9L9/KKKKACiiigAooooAK+ePi58UW0zzfC3hyXF2QVvLlDzCD/yzQ/3yOp/h6D5vu9Z8V/iCvhDSxp+nODq16h8rv5MfQykevZPU5PYg/FDu8jtJIxZmJLMTkknqSfWv5W8ffF+eWxlw3ks7VpL95NbwT+yn0k1u/srbV3j+v8AhzwVHFNZrj4+4vgi/tNdX5Lp3fktW1csrG4v5hDAuf7zHoo9TRY2U1/cLBCOvLN2Uepr0yysoLCAQQDjqxPVj6mv4gP2nMcxjh48sdZP8CLTtMt9Ni2xDc5+856n/Ae1aNFFB8dUqSqSc5u7CiiiggKKKKACiiigAooooAKKKKACiiigAooooAKKKKAMbVdGg1FS64jnA4f19m9v5V53cW81rM0E6lXXqP6j2r12szU9Mh1KHY/yyL9x+4P+FB7OW5pKi/Z1NY/keZQzTW8qXFu7RyxsHR0JVlZTkEEcgg96+0PhZ8SovF9oNK1Rlj1e2QbugFyg/jUf3h/Go+o44HxjcW8trM0E67XU4IqbT9QvNKvYdR0+VoLm3cSRyL1Vh/MeoPBHBr9J8MvEjG8IZmsTSvKhOyqQ/mXddpR3i/k9GzXirhjD55g/Zy0mtYy7P/J9fv3P0oorhfh/41tfG2hpertjvIcR3cI/gk9R32t1H4jqK7qv9LcnzfCZpgqWY4GfNSqJOLXb9Gtmt07p6n8r47BVsHXnhsRG04uzX9fgFFFFekcoUUUUAFFFFABRRRQAUUUUAFFFFABRRRQAUUUUAFFFFABRRRQAUUUUAFFFFABRRRQAUUUUAFFFFABRRRQAUUUUAFFFFABRRRQAUUUUAFFFFABRRRQAUUUUAFFFFABRRRQAUUUUAFFFFABRRRQAUUUUAFFFFABRRRQAUUUUAFFFFABRRRQAUUUUAFFFFABRRRQAUUUUAFFFFABRRRQAUUUUAFFFFABRRRQAUUUUAFFFFABRRRQAUUUUAFFFFABRRRQAUUUUAFFFFABRRRQAUUUUAFFFFABRRRQAUUUUAFFFFABRRRQB/9P9/KKKKACiiigArD8Sa/Y+GNFuta1A/urdCQucNI54VF92PH69K3K+Pfjd4yOta2PDllJmz0tiJMHiS56N/wB+x8o991fnHinx3T4UyGpmCs60vdprvN9bdoq8n6W6o+o4Q4elnGYxwz+Bayf91fq9l9/Q8k17W7/xHq1zrOpPvnuX3HHRQOFVfRVGAKzYYZLiVYYl3O5wBUVd54c0zyIvt0w/eSj5Af4U9fqf5V/mLisVWxNaeIxEnKcm229W23dt+bZ/UmIq0sFh0oKySsl+S9Ea+madFptuIk5duXb1P+A7Vo0UVgfFVKkqknOb1YUUUUEBRRRQAUUUUAFFFFABRRRQAUUUUAFFFFABRRRQAUUUUAFFFFAGJrWlLqMG+MYnjHyH1H90/wBPevN2UqSrAgg4IPUEV7HXF+JdM2n+0YRwcCUD17N+PQ0H0GTY9xf1eb0e3+QeBvF134M1+HVYMvAf3dzCD/rIT1H+8Oq+49M199WV7a6jZw39lIJbe4RZI3XoysMg1+atfTnwH8ZFhL4Nvn6Bp7En06yRj/0Mf8C9q/qD6OPiLLL8w/1axsv3NZ3p3+zU7ek9v8VrfEz43xQ4YWJw39q0F78Pi849/WP5X7I+mKKKK/ug/n0KKKKACiiigAooooAKKKKACiv5Z/i//wAFP/2xvCPxa8beFND8VWMOm6L4i1bT7ONtGsZGS3tbuWKJSzQlmIRQMkknqa86/wCHsH7bX/Q36f8A+CTT/wD4zQB/W7RX8kX/AA9g/ba/6G/T/wDwSaf/APGaP+HsH7bX/Q36f/4JNP8A/jNAH9btFfyRf8PYP22v+hv0/wD8Emn/APxmj/h7B+21/wBDfp//AIJNP/8AjNAH9btFfyRf8PYP22v+hv0//wAEmn//ABmj/h7B+21/0N+n/wDgk0//AOM0Af1u0V/Kppv/AAWG/a/sZTJdHwtqK5U+Xc6SyrweR+4uIm+boefpivavCv8AwW8+K9m6Hxv8NvD2rIPvjSry60sn6Gc3+PyNAH9INFfk98KP+Cwn7MXjmaDTvHdtrPgG9lIVpb6AX2nBj0AuLUvKOerPAijqTjOP068H+NfB/wAQdBt/FHgXW7DxBpF1/qb7TbmO6t3IwSA8bMu4Z5XqOhAoA6eiiigAooooAKKKKACiiigAooooAKKKKACiiigAooooAKKKKACiiigAooooAKKKKACivnTx/wDtWfBD4c/Erw38HNZ8QR3fjXxRqdppdrounAXN1A94wVJbvBCW0Y3Bv3jB2U5RH5r6LoAKKKKACiiigAooooAKKKKACiiigAooooAKKKKACiiigAooooAKKKKACiiigAooooAKKKKACiiigAooooAKKKKACiiigAooooAKKKKACiiigAooooAKKKKACiiigAooooAKKKinngtYJLm5kWKGJWeSR2CoiKMlmJ4AA5JPSgCWivn74V/tPfBv42+O/FPgH4Wa2PEVz4PhtZdTv7Nd+nB7t5UWKG4zidl8olmjDR8gBy24D6BoAKKKKACiiigAooooAKKKKACiiigAooooAKKKKACiiigD/9T9/KKKKACiiigDjvHviZfCXhe81cEeft8q2U/xTycLx328sR6Ka/P+SR5XaWVi7uSzMxySTyST6mvffj54jN5rdr4bgf8AdaenmzAdDNKMgH/dTBH+8a+f6/zz+kRxjLN+JpZfSlelhvcXbn3m/W9o/wDbp/S/hnkiwWVLEzXv1fe/7d+yvu1+ZraNYfb71UYZiT5pPoO34mvTgMcCsPw/ZfZLBXYYkm+dvp/CPy/nW5X4Gehm2K9tXaWy0/zCiiig8wKKKKAKeoahYaTZT6lqlzFZ2lshkmnndY4o0XqzOxAUD1Jr5N8U/tr/AAf8P3jWOlrqOvMjFWmsYVS3GOuHneNm9iqlT69M/GX7U3x01P4j+LrvwnpFw0fhjRLhoYo4yQt5cRHa88mPvAMCIh0C/N1Y18nV/afhr9GfBYjLqeY8USk51EpKnF8qinquZ2u5W3StbZ3PzHO+OKsKzo4BKy05nrf06W++5+u3hz9t74Q6zerZ6rBqmiBzgXF1AksAz/eMDyOP++Me9fWuk6vpevadBq+i3cN9ZXSCSG4t3EkcinurKSDX86lfTP7NHxw1L4VeMrbS9SuWbwvq8yQX0EjHy7dpCFW6T+6UON+PvJnIJCldvEb6MuAp5fUx3C8pKrBN+zk+ZTS3UXupdrtpvTTcnJeOa0qypY9LlfVaW9fI/aOiiiv4mP1AKKKKACiiigArxL4lftC/C34WTNYeI9TM+pqNx06wT7RcgEZG8ZCRk9hI6kg5HFcT+1P8arn4TeDIbHw/KI/EOvGSG0kwGNtDGB5s+DkbhuCpkY3HPO0ivxsuLi4u7iS6u5XnnmcySSSMXd3Y5LMxySSeSTya/pfwY8Bo8UYX+2s5nKGGbahGOkp2dm7tO0U9NFdtPa138PxNxY8BU+q4ZJz6t7L/AIP9an6px/t5fDNplSXQtcSItguEtmIHrt88flmvpH4c/Gb4dfFSBn8H6qk9zEu6aymBhu4x6mJ8Fl/2k3L2zmvwVrV0TW9X8N6ta67oV3LY39lIJYJ4W2ujr39x2IOQRwQRX7XxH9F3hrE4SUconOjWS0blzRb/ALyetvNNW3s9j5jBceY2FRPEJSj10s/l/wAE/onorxT4BfFeL4v/AA8tfEUypFqds5s9TiThVuYwCXUdkkVg49Mledua9rr+EM6yfFZVj6uW42PLVpycZLzXbunun1Wp+sYXE08RSjXpO8ZK6CiiivMNwpksaTRtFINyuCpHqDT6KBptO6PJ7+zexupLZ/4T8p9VPQ1LpOqXei6na6tYttntJVlQ9sqeh9QehHcV1Xiey823W8QfNDw3up/wP864StaFepQqxrUZWlFpprdNapr0Z9vhKscXhv3ivdWa/P7z9H9D1e11/SLTWbL/AFN3Esig9VJ6qfdTkH3FatfOf7P/AIjM9jfeF52y1s32q3B6+W5xIB7K2D9WNfRlf6oeHvFUeI+H8Nmy+KcbSXacdJL702vJo/lDiXJ3leZVcG9k9P8AC9V+G/mFFFFfZnhBRRRQAUUUUAFFFFAH8Mf7Qn/JffiX/wBjhr3/AKXz14/XsH7Qn/JffiX/ANjhr3/pfPXj9ABRRRQAUUUUAFFFFABRRRQAV698HPjz8XPgD4lXxV8JfE17oF4SvnxwvvtbtFzhLm2cNDOvPAkRtp5XBAI8hooA/q3/AGJf+Cl3gT9pOS1+HnxGitvCPxFYBIIA5Gm6y3/Tm8hLRzZ620jFiMGNpPmCfqLX8BNvcXFpcRXdpK8E8LrJFLGxR0dDlWVhghgRkEcg1/T5/wAE0/2/pfjzpsXwS+L98p+IOlW5bTdRlIU67ZwLlt3PzXsKgtJgfvYx5n3lkNAH69UUUUAFFFFABRRRQAUUUUAFFFFABRRRQAUUUUAFFFFABRRRQAUUV+Rn7ef/AAUwk/Zs8T33wZ+GXh8aj43gtoJbnU9UH/EtsFu4lljMcSMHuZdjA4YxohxnzOVoA/SD4ufGv4WfAnwtJ4y+K/iOz8PaagYRG4fM9y6jJjtoF3SzyY/gjVmxycDmv55v2rP+CufxJ+JLXvg79nuGfwP4affC+sSFTrl5GeMoylkslI/55l5ehEq8rX5afFD4tfEj40+K7jxt8UfEF54i1i5JBnu3ysSZyI4YlCxwxA9I41VB2FedUAfU/wCxpd3V/wDthfCe+vppLm5ufGmlyzTSsXkkke5Vmd2YkszEkkk5J5Nf2q1/FH+xT/ydx8If+xw0n/0oSv7XKACiiigAooooAKKKKACiiigAooooAKKKKACiiigAooooAKKKKACiiigAooooAKKKKACiiigAooooAKKKKACiiigAooooAKKKKACiiigAooooAKKKKACiiigAooooAKKrXl3BYWc99ckrDbRvNIQMkIgLMcDk8Cv5p/2rv+Cu3xB+IZvPBv7OkNx4K8PPuhk1ybb/AG5docgmLaWSyU54KF5uAwkjJKgA/Zb9p/8Abq+A/wCyzayWPi7UzrHisxh7fw1pJWa/O4ZRrgkiO1jPB3SkMV5RHxiv5sf2pf8AgoB8eP2ori40nV78+GfBjt+68M6TKyWzqDlftkvyyXbcAnfiIMAyRoa+Jr6+vdTvJ9R1K4lu7u5kaWeed2kllkc5Z3diWZmJySSSTVWgD93v+CHX/I1fFv8A7B+h/wDo28r+h6v54f8Agh1/yNXxb/7B+h/+jbyv6HqACiiigAooooAKKKKACiiigAooooAKKKKACiiigAooooA//9X9/KKKKACop54raCS5nbbHEjO7HsqjJP4Cpa84+LOrHSPAepujYkukW0T384hW/wDHN1ePxDm8MqyvEZlU2pQlP15U3b52sd2WYKWMxdLCx3nJL73Y+KNe1abXdavdYnzvvJ3lwf4Qx+Vf+AjAH0qvp1r9svYrfszZb/dHJ/SqNdd4Ut8yzXRH3QEX6nk/yFf5LYrE1MRWniKzvKTbb7tu7f3n9gYhxwuEapqyirL8kdsAAMDgCiiisD4UKKKKACua8Z391pfg/XdTsd32m0028nh2/e8yKF2XHXnIGK6Wobm3hu7eW0uUEkMyNHIh6MjjBB+oNdGEqwpV4VKivFNNruk9iKkXKLSep/OTRXffE/wFqfw08c6t4O1NHBsp2+zysMCe2c5hlB6EOmCcdGyp5Brh7e3uLy4itLWN5p53WOOOMFnd3OFVQOSSTgAdTX+xGBzDD4zC08bh5qVOcVJPo4tXT+4/m+rRnTqOlNWknZrzIaK+3rH9hX4j3fhqHVJtW0201aVBIdNm8wiMEZCPOgYeYOhAQqD/ABEc15NB+y58az4ptfDV74cuYFuJ0ie/XbLZxRk8ytMjMgULlsE7u2MnFfF4HxV4QxbqqhmNN+zvzXly7btc1uZecbo9OrkGY0+Vzoy120v+W3zsfr58Lr+41X4ZeEdUu23T3mhabPK3q8ttGzH8Sa7uqGlabbaPpdnpFkNtvY28VtEPSOFQij8gKv1/lhmeIp18ZVr0laMpSaXZNtpH73Qg4U4xlukgoooriNQooooA/JL9ue9uZ/i9Y2kjkw22iW3lp2BkmnZj9Tx+Qr4wr9P/ANs34L+KfGeoaJ428F6ZPqtzDA2nX0Fqm+URq5khcIOWGXkDEDj5e3T578C/sX/FrxSq3evrbeGLRsEfbW825YHuIIice4kZD7V/o54XeI3DOXcDYGpjcZTp8keWUXJc3Mm0/cV5O/xaJ3Tufi+fZLjq2a1VSpuV3dO2ln57eR8iUV7L8Zfgh4s+C2sw2GumO8sb0M1lqFuCIZtv3lIblJFyNynPBBBIrxqv27J84wWa4OnmGXVFUpTV4yWz/wAmno09U9HqfLYnDVcPUdGtG0luj9Fv2ALy4+1+NNP3kwGPTpth6BwZ1yPTI6+uB6V+k1fGP7FHw6vfCfw8vPFmqxGG58UTRzQowwwsrcMIWPceYzuw9V2nvX2dX+Z/jpmeFx/HGPr4RpxTjG66uEIxl/5MmvkfuHClCdLKqMKm9m/k22vwYUUUV+Sn0IUUUUARzRJPE8MnKupU/Q15JPE0EzwP96Nip/CvX6888S2/k6j5oHEyhvxHB/kKD3shr8tR0n1/Q2Phvrh8P+NNMvmbbFJKLeb08ub5CT7KSG/CvvuvzMBIORwRX6J+FNW/tzw1pmrE5e5to3k/66Yw4/Bga/sz6K3EDlRxuSTfwtVIr192f5Q+8/N/F/LUp0MfFb3i/lqvzZ0FFFFf14fioUUUUAFFFFABRRRQB/DH+0J/yX34l/8AY4a9/wCl89eP17B+0J/yX34l/wDY4a9/6Xz14/QAV6R8HPA9r8Tfi94H+G19cyWVt4r8SaRoc1zEoaSCPUbuK2aRFbgsgkLAHgkc15vX0B+yd/ydN8G/+ygeF/8A06W1AH7ff8OQ/hZ/0UvxB/4BWtH/AA5D+Fn/AEUvxB/4BWtft9RQB+H0n/BEL4YGNhF8TNeVyDtZrC2ZQ3YkAgkZ7ZH1rkdR/wCCG2mPGP7J+MVxC43Z+0+HVlVj2A2ahGV56n5vpX730UAfzK+O/wDgix8f9Dge68B+LfDfihUGfInM+l3L+yK6TQ5/3plr8zPi98A/jH8BdZXQvi54U1Dw5cSMywSXMYe1uNvUwXMReCYDuY3bHev7na5Txt4F8HfEjwze+DfHujWevaJqKGO5sb+FZoXHY4YfK6nlHXDIwDKQQCAD+C6iv05/4KEfsA6j+y1rK/ED4fefqPwz1i5EMLSky3OjXUgJW1uH6vE+D5Ex5ONknzhWk/MagAroPCnirxB4H8TaX4x8KX0um6zot3DfWN3CcSQ3EDB0YdjgjkHII4IIrn6KAP7Yv2RP2jNG/ah+B2h/E2xEcGqMv2HXbKM8Wmq26qJ0AJJEb5EsWST5brnnNfTVfyxf8Ejf2gpPhf8AtCN8K9ZuSnh/4kwiyVXP7uLWbYNJZSd8GUGS3wB8zyR5OFr+p2gAooooAKKKKACiiigAooooAKKKKACiiigAooooAKKKKACv5Iv+CsH/ACe14v8A+wfon/pvgr+t2v5Iv+CsH/J7Xi//ALB+if8ApvgoA/OCiiigD6g/Yp/5O4+EP/Y4aT/6UJX9rlfxR/sU/wDJ3Hwh/wCxw0n/ANKEr+1ygAooooAKKKKACiiigAooooAKKKKACiiigAooooAKKKKACiiigAooooAKKKKACiiigAooooAKKKKACiiigAooooAKKKKACiiigAooooAKKKKACiiigAooooAKKKKAOf8AFn/Iq6z/ANg+6/8ARTV/BHX97niz/kVdZ/7B91/6Kav4I6ACiiigD93v+CHX/I1fFv8A7B+h/wDo28r+h6v54f8Agh1/yNXxb/7B+h/+jbyv6HqACiiigAooooAKKKKACiiigAooooAKKKKACiiigAooooA//9b9/KKKKACvnX9obUDHpekaUD/r7iW4YZ/54qFH/ow19FV8i/tBXZk8UWFmDlYLEP8ARpJHz+iivxjx/wAxeE4IxSi7Oo4Q++ab/wDJU0fdeG+FVbP6Le0eZ/cnb8WjwWvR/DkPlaWjd5WZz+eP5CvOK9Y0+PyrG3j9Ikz9cc1/m8f0Ln1S1GMe7LlFFFB8oFFFFABRRRQB4f8AGz4E+FfjVo8cGpk2Gr2asLHU4lDSRBuSki5HmRE87SQQeVIyc+J/Af8AZET4a+Kv+Ex8Z6ha6veWRP8AZsFsjeTE5/5buZACZFHCADCn5sk4x9uUV95lviZxJgckqcPYbEtYad046NpP4lGVrxUuqTtq+7v5NbI8FVxUcZOHvrr+V1s7BRRRXwZ6wUUUUAFFFFABRRRQAUUUUAeefFD4baB8V/B934Q8QArHNiS3uEUGS1uEzslTPcZII43KSuea+Pvhn+w3Z6Jr66v8R9Vg1i1tZA8Gn2iOsU5U5BuGfB2+sajB7tjIP6CUV93w94l8R5HltbKcrxLhSqatK103o3FtXi2t2rd9zycZkeCxVeOIrwvKP9arr8xkUUcMaQwosccahURQAqqBgAAcAAdBT6KK+Fbbd2esFFFFIAooooAK5XxXDutYZx1Ryv4MP/rV1VY+vx+ZpU/qu1h+BH9KDsy+pyYmEvP89DzOvtH4GaibzwKlsTk2N1NBjvhsSj8PnNfF1fUX7O12WtdbsCeI5LeZRn++HVuP+Aiv3b6OWYvDca0qKelWFSH3R5/zgY+J+FVXIZz/AJJRf48v/tx9JUUUV/okfzKFFFFABRRRQAUUUUAfwx/tCf8AJffiX/2OGvf+l89eP17B+0J/yX34l/8AY4a9/wCl89eP0AFfQH7J3/J03wb/AOygeF//AE6W1fP9fQH7J3/J03wb/wCygeF//TpbUAf2+UUUUAFFFFABRRRQBwnxO+HPhb4u/D7X/hn41tvteieIrKWxu4+N6q4+WSMkELLE4WSNsZV1VhyK/iH+MPwy134M/FHxR8LPEg/4mHhnUp7B3xtEyRt+6nUZOEmiKyL/ALLCv7s6/md/4LTfDC28N/HDwj8UbGFYk8aaJJa3ZVcGW90Z1RpGPdjb3Fun0jFAH4y0UUUAa/h/XdV8L69pvibQrhrTUtIu4L+zuEOHiuLaRZYnU9irqCPpX90nwn8f6f8AFb4Y+FPiXpYCW3ifR7LVUjU58o3cKyNGT6xsxQ+4NfwiV/WV/wAElPHj+M/2OdH0meQyTeENY1PQmLddu9b6MfRY7xVHsuO1AH6ZUUUUAFFFfzif8FH/APgo/qni3VNU+APwB1SSz8PWckln4g8QWcmJNUkGUktbWRDlbRTlZJFOZzwCIgTKAfot+0p/wVC/Z4+AN3d+GdCmk+IPiu1Zo5dO0WVFs7aVeqXN+Q8SEHKssSzujDDotfj98Tv+CwH7VnjSaWHwOdG8B2LZEY0+yS+uwh7PPfCZC3bckMeOwB5r8qaKAPpTxP8AtkftWeL5HfXPiz4uZZCd8Nrq1xYwNnB5htXijIBAwNuB2rzG4+MHxbu5nubrxv4jmlkOXkk1a7Z2PqSZck15zRQB6LB8X/izbTJcW3jbxFFLGwZHTVbtWVh0IIlyCK9A0D9rb9qLwxIsmi/FnxnCqHIik1y8ngzkNkxSyvGSSOcryMjoSK+eqKAP0o+Hv/BWH9sfwRJCmr+INO8YWcJA+z67psJYr3BnsxazsfRndj9RxX6rfs8/8Fgfgt8S7638N/GPTJPhzqs+ES/ef7Zosj/7c4RJbbcenmRtGv8AFKMc/wAwNFAH9+VjfWWp2cGo6bcRXdpcxrLBPA6yRSxuMq6OpKsrA5BBIIq1X8lv7BP7f/i79mTxPY+B/HF7cat8LdQn8u6s5N00mjtKebqy53Kisd00K5VxuZV8w5P9Yum6lYaxp1rq+lXEd3ZX0MdzbXELB4poZVDo6MMhlZSCCOCDQBdr4k/b7/aT8c/sr/AyD4m/D2x0nUNUl16y0sw6zDPPbeTcRTuzBbee2feDEuDvxjOQeMfbdflD/wAFkv8Ak0ez/wCxw0v/ANJ7ygD84P8Ah9X+1N/0K3w//wDBdqn/AMtq/Oz9oT48eL/2k/ilqXxb8c2em2OsapDawTQaTFNDaKtpCkCFUnmnkBKoC2ZDz0wOK8TooAKKKKAO8+F/xD1r4S/EXw58TfDkFrc6p4Y1K31SzhvUeS2ea2cOiyrG8TlCRyFdTjoRX6h/8Pq/2pv+hW+H/wD4LtU/+W1fkBRQB+v/APw+r/am/wChW+H/AP4LtU/+W1fuV+xH8ePF/wC0n+zvoXxb8c2em2OsapdajBNBpMU0Noq2l1JAhVJ5p5ASqAtmQ89MDiv4tq/rd/4JP/8AJkvhD/sIa3/6cJ6AP0foopCQoLMcAcknoBQAtfmV+0j/AMFT/wBnv4F3d34Z8JtJ8RfFFozxS2mkTLHp9vKmQUnvyHjyDwRCkxU5DBSMV+bn/BRv/go3q3xH1bU/gT8CdTksvB1lJJaa3rdpJtl1uVflkggkU5WyU5BIObg/9Msb/wAW6AP1O+Jn/BXv9rHxpPNF4Nn0fwJYvlY00yxS8ugh7PPfCdS3+1HHGR2APNfIPiX9sP8Aap8XSO+ufFnxe6yHLw2+sXNnA2MEZhtnii4Kgj5eDz1r5vooA9Fn+L/xZuZnuLnxt4illkYs7vqt2zMx6kky5JNLb/GD4t2kyXNr438RwyxnKSR6tdq6n1BEuQa85ooA+iNA/a5/ak8MOjaN8WfGUSJysUut3lxAOdx/dTSvHyevy896+qPh3/wVn/bD8EzQprut6Z4zs42AMGt6dCrmPjIE9kLWUt1wzs5BPORxX5n0UAf1G/s6/wDBXf4IfFS9tfDPxZsJPhvrVwRGl1czi60WVzxzdbY3t93X99GI16GU9T+tFrdW17bRXtlKlxb3CLLFLEweOSNwCrKwJDKwOQQcEV/AVX6h/sAf8FB/FX7OfiTTvht8SdQn1P4W6hP5LpMWml0F5iP9IterfZw3zTQLxgs8Y8zIcA/q5oqvaXdrf2sN9YTR3NtcxpNDNC4eOSNwGV0ZSQysCCCDgjkVYoAKKKZJJHDG0srBEQFmZjhVUckkngACgBxIUFmOAOST0Ar8yP2jf+Cqf7O/wQuLrw74Pkk+I/ia2Z43tdHmWPToJVyNs2oFXjzngiBJiDkNg1+YX/BQ/wD4KO618YdV1P4L/A/UpdP8AWjyWmp6pavsm8QOp2uFdTlbDghVBHng7n+UhB+PFAH6ofEz/gr7+1h40mmh8Gy6N4EsXBWNdMsUvLoIf789956l+26OKPA6AHmvj/xL+2H+1T4ukd9c+LPi91kOXht9YubOBsYIzDbPFFwVBHy8HnrXzfRQB6LP8X/izczPcXPjbxFLLIxZ3fVbtmZj1JJlySaktPjJ8X7CcXVj458SW0y5Akh1e7jcA8HDLKDyK82ooA+l/Df7Zn7WHhOSN9G+Lfi/bFt2RXerXF9CoXgARXTyx49tuPavrf4b/wDBX39rTwdNDH4vn0XxxZrgSLqdglpclB/cmsPs6hu2545PcE81+WNFAH9Wv7On/BV/9nv4z3dr4b8diX4beIrkrHGmqzLNpU0rYG2O/UIqHOf9fHCvQBiTiv1FR0kRZI2DKwBVgcgg9CDX8Atfrd/wT6/4KN+IvgZrGnfCX4y6hPq3w4vJEtrS7nYy3Hh53O1XRm+Z7Ln95ESfKHzxAYZJAD+o6ioLW6tr22ivbKVLi3uEWWKWJg8ckbgFWVgSGVgcgg4IqegAooooAKKK/Ej/AIKDf8FOP+Fa3mo/BD9na8in8UQ7rfW/EsZWaHSnGVe1tAQySXY6SSHKwH5QGlz5QB9+/tJ/tvfAD9l23a18fa39u8RPH5lv4d0kLdanICPlaRNypbo3Z53QMM7NxBFfh/8AGP8A4LJ/tA+MLiez+Eek6X4B03cRFcPGuramRyAWkuF+yjI52i3JB/jPf8jNU1XU9c1K61nW7yfUNQvpXuLq7upWmnnmkJZ5JJHJZ3YkksxJJ5NUKAPozxV+17+1J41nebxF8VvFswdtxhg1a5tLfPTIgt3jiH4JXmf/AAtj4p/9Dl4g/wDBpdf/AB2vP6KAPePDf7Uf7SfhCSN/DfxS8YWKxbdsKa3eNAQvChoWlaJgOwKkCvsf4X/8Fb/2tvAk8MXivUNL8d6ehAeHWLKOC48vuEuLIW7bvRpFl9wa/MCigD+r79nH/gqv+z18bbi18N+NWk+HHiW42qsOrzI+lzykgBIdQARQSTwJ0hz0Usa/T0EMAynIPII6EV/AJX6m/sMf8FJfG37PGpaf8O/ipdXXiP4aSOkCiQtPe6Ep4ElqTlnt1/jtzkADMW1sq4B/VfRWH4a8S+H/ABl4f0/xX4U1C31XR9Vt47qyvbWQSwzwyjKujDggj8uh5rcoAK/F39vv/gox8bf2V/jnB8Mvh7onhXUNLl0Gy1QzazaXs9z51xLOjKGt762TYBEuBsznOSeMftFX8sX/AAWS/wCTuLP/ALE/S/8A0ovKANTUf+Czv7UOp6fc6dP4X8ArFdQyQOU0/UwwWRSpIJ1UjODxkGvyMoooAKKKKAPrP9lX9sj4nfsg6h4i1H4a6ZoOpS+JobSC7GuW9zOqLZtIyGIW11akEmVt24tnAxjnP2Z/w+r/AGpv+hW+H/8A4LtU/wDltX5AUUAfsnof/BZ39qHU9a0/Tp/C/gFYrq6hgcpp+phgsjhSQTqpGcHjINf001/BH4T/AORq0b/sIWv/AKNWv73KACiivzD/AOChn7fen/svaEfh38PWivvibrdr5sO4CSDRbWXKrdTqch5mwfIhIwceZJ8gVZAD6h/aI/a/+A/7MGnJP8UdfVNTnTzLXQ9PUXerXKnOGW3DL5aHBAkmaOMkYDZ4r8Uvi9/wWp+KetzS2PwV8H6Z4YsslUvtZZtTv2Xs6xoYreI+qsJx71+NHibxP4i8aeIL/wAV+LdSudX1jVJ2uby+vJWmnnlfqzuxJJ7ew4HFYVAH2D4v/b9/bI8bSSSat8VtftPM/h0iVNHVQM4CiwS3x169T3JrxHU/jl8bNakEusfEHxTfuGZg1zrV7MwZ8Fjl5icsQM+teWUUAegf8LY+Kf8A0OXiD/waXX/x2u00b9p/9pLw9IJNE+KvjSzxtysWv34jYJkKGTztrAZOAQQK8LooA/QLwL/wVA/bQ8DyxBvHA8RWkRGbXXbG2u1fBz80yxx3XPTiYcfhj9Ivgj/wWr8Narc22j/H/wAGPoZkIWTWvDrvdWik4+aSymJnjQcklJp29E9f526KAP7wvh18TfAHxc8LW3jX4a69ZeItEu8iO7spA6hh95HXh45F/iR1V17gV3VfxE/s3/tOfFT9l3x1F40+G2oskMrIuqaROzNp+p26nPl3EQONwBOyRcSRknawyQf6/P2bv2iPAn7Tvwt074n+BJGjjnJt9Q0+Vg1zp19GAZbabHUrkMjYAdCrADOAAe9UUUUAf//X/fyiiigAr4q+OE3m+Pp0yT5VtAnPbK7uP++q+1a+IvjV/wAlCvv+uVv/AOilr+dfpOzceEaaXWtD/wBJm/0P07wninnUm+kJfnE8or2NVCqFHQDFePx/6xf94V7DX8An7VxA/wCGvX9AooooPmwooooAKKKKACiisrXdWg0HRNQ1y5UvDp1rNdyKvUpAhcge5C1pSpTqzVOmrtuy9WKUlFOT2NWivyr0v9vL4hw6q8+r6DpN3pzPkW0HnQTImeizF5BnHUmM5PQAcV9ofDD9pr4W/E9orCzvjpGryYUadqW2GR2PaF8mOXJ6BW345Kiv1HinwW4uyCh9axmFcqdruUGpqP8Aitqrd2uXzPBwHE+XYufs6VS0uz0v6X/4c+hKKKK/Kj3wooooAKKKKACis7VdX0rQtPm1XW7yCwsrdd0txcyLFEg9WdiAPzr4t+I37cHgnQGk0/4f2MniK6XK/apS1tZKRxkZXzZcH0VFI5DGvrOFuBs94jrexybDSqW3e0V6ydor0bv2R5+PzXCYKPNiZqP5v0W59x0V8A/AD9rLxl8S/iXbeCPFmnabFBqsdwbWSxjljeKW3iabDGSWQMhSNuwO4jnHFff1VxpwRmnC2PWW5vFKo4qas7pxbavf1TXyFlmaYfH0fbYd3V7dtf6YUUUV8ieiFFFFABRRRQAVR1NQ2nXIP/PFz+QJq9Va9/485/8Ark/8jQaUXapF+aPJK+hf2eZtut6tb5Pz2qPjt8j4/wDZq+eq99/Z8/5GbUf+vE/+jEr9S8FJuHG+XuP8zX3wkj1uPIp5BiU+y/NH1vRRRX+mx/KIUUUUAFFFFABRRRQB/DH+0J/yX34l/wDY4a9/6Xz14/XsH7Qn/JffiX/2OGvf+l89eP0AFfQH7J3/ACdN8G/+ygeF/wD06W1fP9fQH7J3/J03wb/7KB4X/wDTpbUAf2+UUUUAFFFFABRRRQAV+M//AAWv8MJf/s/+CvFqRh5dH8WrZlsfMkOoWVwzHPYF7eMH1OK/ZivzC/4K76ab79jXU7oRCT+ztf0e5LEgeXulaDcMnknzdvGfvenIAP5QKKKKACv6I/8Agh54kNx4P+K/hBmONP1LR9SRSeP9OhuYmIGf+nVc8enPTH87lfuL/wAEQdQaP4lfE7Sg6hbjQ9OuChxvJguXUEd8Dzjn6igD+jeiiigD8xf+CpX7UV18AvgYvgvwndtbeL/iH5+nWk0TbZLPTogv264UjlXKyJDGeCDIXU5jr+T2v0R/4Ki/E/WfiR+134ntLyO4h0vwikXh3S450eMGOzBNxIoYAMJLt5iHH3kC8kAV+d1ABRRX09+yJ+zP4h/ar+M+m/DXSpJLLTEU3+u6ki7vsOmwsokdQeDK7MscQOQXYE/KGIAPAvDHhHxX411WPQvBui6hr2pS8x2emWst5cOP9mKFXc/gK+k7H9hD9sPULZLuD4S+JUSQZAntPs8g+scrI6/ior+vL4PfBL4X/AXwhB4I+FWgWuh6bEFMphXNxdyqMedczHMk8p/vOxIHAwoAHq1AH8R3in9kP9qPwXDJdeI/hV4tt7eEbpLiPSbi4gQAA5aWBJI1GD1LYzkdQa+d5I5IZGilVkdGKsrDDKw4IIPIINf381+eH7ef7EHgL9pH4ca34o0HSLew+JekWct5peqWkSxz6i9uhYWV2VGZkmA2Rs2WicqVO3cjAH8iVFFFABX9Wf8AwSN+L998SP2Wk8JazOZ7/wCH+qTaJGzks7adIi3NoWJ7IJHhQdkiUV/KZX7vf8EPPEcsPir4r+EmYmO80/RtRVSeFa0luYmIGeCwuFyQOcDJ4GQD+h6vyh/4LJf8mj2f/Y4aX/6T3lfq9XmXxY+Dnw0+OXhdPBfxW0OLxBoqXUd8tpNJLEouIVdUfdC8bZUOwxnHPSgD+FCiv7Hf+Hb37Ev/AES3T/8AwN1D/wCSq/nC/wCCifwu8BfBv9qrxL4B+GmkR6HoFlZ6VLb2UMkkiI9xZxSyENK7udzsTyx68UAfD9FFFABRXvv7K/hLw749/aQ+G3gvxdZLqOi634l06xv7R2ZFnt5plV0LIysAwOMqQfev6oP+Hb37Ev8A0S3T/wDwN1D/AOSqAP44q/rd/wCCT/8AyZL4Q/7CGt/+nCevQP8Ah29+xL/0S3T/APwN1D/5Kr6g+GXwu8BfBvwfa+AfhppEeh6BZSTS29lDJJIiPcOZZCGld3O52J5Y9eKAO/r8qP8Agq7+1FdfBL4LQfDHwjdtbeKviMtxaGWIgSWmjRALeSAg5R5/MWCM45DSMpDIK/Vev49f+ClHxP1n4oftd+MrnUI54LDw5Ivh3SY50eP/AETTWZHkQPjMc1yZ5VZRtYOCM9SAfBtFFFABXS+FfBnjDx1qqaF4I0LUvEOpScpZ6VZzXtww9ooEdz+VfR37GX7Let/tY/Gay8BW8stjoFin9oeIdSiUFrXT42AKxlgV8+diI4sggElypVGFf1+/Cj4O/DP4H+E7bwT8LPD9n4f0q3VQUtk/ezuox5txM2ZZ5T3kkZmPrjigD+QWz/YO/bEvrZLqH4S+JFSTJAmtRC4wccpIyuv4getch4r/AGSf2nvBED3Xif4WeLLS2iyZLldJuZ7dAACS00KPGowepYd/Q4/t1ooA/gFdHjdo5FKspIZSMEEdQR602v6zf+ChX7EHgL49fC/X/iH4X0i3034k+H7KfU7W/s4ljk1VLZDJJaXYUDz2kjUrC7fOkm35thZW/kyoAKKKKAP60v8AglJ8X7/4pfsmaXpOs3DXGo+Bb+48NM7nMjWkKxz2ef8AZjgmWFfaL1ya/SqvwA/4IdeJHz8XPCEr5TGhalAmeh/0yGY4z3/dDIHbk9K/f+gAr8kf+CuX7SV/8JvgtY/CTwrdG2134jme3upYziSDRLYKLoAj7puWdIeesZlA5GR+t1fygf8ABXbxlceJf2yNV0GSQtF4S0PSNKjTkBPPh/tBuwBJN5yRnjAzxgAH5hUUUUAFfV3wp/Ye/aq+NFhBrHgP4eanLpdyA8OoagYtLtJYzgiSOS9khEqYPBj357Zr6m/4JJfA/wABfF39oLVNb8fWcGqweCtJXVbDTrlRJDLfSTpFHNJG3EiwAswUgjzCjfwjP9VFAH8qmn/8Eef2v723865HhawfOPKuNWZn6A5zDbypjnH3uo9ME5fiL/gkR+2Tolo1zp2maBrzqpbyNO1eNJDjsPta2yZ/4FX9X9FAH8JvxN+DvxS+DGtjw98VPC+p+Gb9wWiTULdo0nVTgtDLzHMoPG6NmXPevNa/u0+K/wAJPh78bvBN/wDD74maNb61o2oIQ0cyjzIJNpVZoJPvQzJklJEIZfXBIP8AHD+1t+zlrX7Lfxu1r4WalLJeWEe2+0W/kXab3S7kt5EjYAHmKVaKXAC+bG235cGgD5poor2DwP8As+/HT4l+S3gH4f8AiXXoZ/uXFjpVzLbY9WnEflKPdnAz3oA/oA/4I/8A7UF38Q/h3qH7Pfi66afWfAsCXWiSytl5tCdhH5PqfsUrKoJP+rljRRhK/Zyv5t/2C/2Hf2zvg7+0D4P+Lus+FIPD2hWs0tvqqajqdqJptNu42hnH2eCSaXeobzI0dUzIi5wOa/pIoAKKKyPEGvaT4W0HUvE+v3C2emaRaT397cP9yG2to2llkbHOERST9KAPzE/4Kfftm3H7PHw9h+GHw9vjb/EDxnbuVuYWKy6TpRJjkulYYKzTMGigI5Uh3BBRc/yru7yO0kjFmYksxOSSepJ9a9s/aN+NeuftDfGnxT8XNc3xtrl6zWds5z9ksIQI7W3GDjMUKqGIwGfc3VjXiNABRRXvX7N37PHjr9p34qad8L/AqLHLcA3GoX8yk2+nWERAluZcckLuCqoILuyoCM5AB4npumalrV/BpWj2k99e3TiOC2to2mmlc9FREBZifQAmvpzR/wBhz9rzXbJNQsPhL4oWF8FftNg9o5BGQdk/lvjHfbX9W37Nf7I/wY/Zb8NR6R8OtIR9WliCaj4gvFWTVL9up3y4Hlx5+7FGFjGBwWyx+nKAP4UfiH8Ffi98JZkh+J3gzXfC/mtsik1TT57WGU4z+6ldBHJ3+4x6H0NeY1/fLr3h/QvFOj3Xh/xNp1rq2l30bQ3VlfQpcW88bDBSSOQMjKR1BBFfzif8FG/+Cb2mfB7Sbz48/AW1lXwnHKG17QAWlOkiUhRdWzMS7WhcgSRks0JYMCYs+UAfirRRRQB+xv8AwSk/bLuvhf47tv2dvH18T4Q8W3WzRJpmyul6zOcJGCfuwXjfIQOFmKtwGkY/031/APDNLbypPA7RyxsHR0JVlZTkEEcgg8giv7R/2I/j0f2jf2bfCfxDvphLrkcB0rXem7+1LDEczsBwPPXZcADosoFAH1jX8sX/AAWS/wCTuLP/ALE/S/8A0ovK/qdr5t+LH7IP7OHxy8UJ40+K3gm18Qa0lrHYrdzXN1Ewt4WdkTbDPGuFLsc4zz1oA/iVor+wTxH/AME5/wBiyy8PapeW3wvsI5oLO4ljcXt+SrpGxU83WOCK/j7oAKKKKACiv12/4JO/s8fBn9oDxD8R7P4w+GIPEsOi2eky2CTzTwiB7iS5EhHkSxk7gi9c9OK/af8A4dvfsS/9Et0//wADdQ/+SqAP5AvCf/I1aN/2ELX/ANGrX97lfE9r/wAE5/2LLK5ivLb4X2Ec0EiyxuL2/JV0IKnm6xwRX2xQB5n8ZfihoXwV+Ffij4q+JObDwzps188YYI08iDEMCk8B55SkaZ/iYV/EN8SfiF4p+LHj3XfiR41u2vdb8RXst9eSnpvkPCIP4Y41wkaDhEVVHAFf0vf8Fk/GV34e/ZTsPDdm7KPFPirT7K6UHAe1tYbi8IPrieCEge2e1fy1UAFFFdn8OfDFt41+IXhfwbe3DWlvr2s6fpktwuN0Md5cRws4zxlQ+eeOKAOh+F/wP+L3xq1GTS/hT4R1bxPNAQJ2sLZpIIN3TzpziGHPYyOua+4PDv8AwSP/AGztbiSTUdE0XQS/JTUdYgdl4zz9k+0jnpwTz1r+pD4cfDfwT8JPBel/D74eaVBo2g6RCIba1gHH+07sctJI7ZZ5GJZ2JLEk5ruKAP5Wrr/gjp+15bwNNDJ4TuXXGIotVlDtkgcGS1ReOvLDj34r5O+MH7FP7UHwJ0+bW/iP4C1C00iDmXU7JotSsYl/vSzWjzLCvbMuzniv7VqZJHHNG0Uqh0cFWVhlWU8EEHggigD+Aaiv2r/4Kp/sOeHfhI9v+0J8IdOTTfDWq3a2niDSbZQtvp97P/qbm3QDEcFwQVdBhY5du0Yk2p+KlABX6Gf8E2f2n7z9nf8AaB07StYvWh8F+OJYdH1uJ2/cwyyMVs709lMEr4du0LycZxj4d8L+BfG/ji6+w+CvD2q6/c5x5Ol2U17JkDONsKOc49q+s/BH/BOT9s7x35cmn/DTUdLgkG4za3Lb6TsH+1FdyxzZz2EZPtjmgD+x+ivMvgvY+PtL+EvhDSvimYW8XWOj2dprMlvN58ct5bxrHJKJMLuMpXeeMAsQK9NoA//Q/fyiiigAr4q+OMPlePZ3wR51tA/PfC7eP++a+1a+Rv2grQx+J9PvQMCexEf1aORyf0cV+AfSUwrq8GuovsVIS/OP/tx+j+FlZQzxR/mjJfk/0PBK9jVgyhh0IzXjlesafJ5tjbyesSZ+uOa/z2P3PiCPuwl6lyiiig+ZCiiigAooooAK5rxnp8mreD9d0qEEyXum3lugXqWlhZRj3ya6Wit8NXlQrQrQ3i018ncmcFKLi+p/OHRXpPxg8IyeBfid4k8LshSO0v5TbgjGbaY+bCfxjda82r/YjLcfSx2EpY2g7wqRjJekkmvwZ/N1ejKlUlSnum0/kfRfw4/aj+LPw5EdnFqP9t6ZHgCy1XdOqqOMRy5EqYH3QGKD+6a+3vBX7cHwx11I4PF1pe+G7k/fcqby1B9pIl8384gB61+S1FfmXFvgjwjxBJ1sThvZ1X9un7j9WrOLfm4t+Z7mXcU5jg0ownzR7S1X+f3M/fPRfjF8KfEKK+keLtGnLHAjN7FHLz0zHIyuM+610UvjfwZBGZZ9f0uNF6s95Cqj6kviv56qK/H6/wBErLXUvRzGaj2cIt/emvyPpIeIda3vUVf1f/BP3L8R/tJfBHwxG7Xniyxu3UcR6cxvmY+gNuHUH6kAdzXyr49/bxjCyWfw20Fixyq32rHAHbK28THPqC0g917V+b1FfZ8OfRn4Ry6aq4znxEl0m7R/8Bilf0baPMxvHGY1ly07QXktfvd/wsd547+J3jv4lXwv/GmsXGoshzFCxCW8Pb93CgWNDjgkLk9ya4Oiiv3zA4DDYKhHDYOnGFOO0YpRS9ErJHyNWrOrNzqSbb6vVn05+x9Yy3fx90CeP7tlDqE8n+61pLF/6FIK/aCvzM/YJ8IPNrXiTx3PGfLtbePS7diOC87CaXB6ZRY4898P71+mdf54fSZzanjONJUabv7GnCD9fen/AO3n7JwPh3SyxSf2pN/kv0Ciiiv59PsAooooAKKKKACqOpsF065J/wCeLj8wRV6sfX5PL0qf1bao/Ej+lBvhY81aEfNHmdfQv7PMO7W9WuMH5LVEz2+d8/8AstfPVfUX7O1oVtdbviOJJLeFT/uB2P8A6EK/XvAfCuvxzgV0i5yfypyf52OzxDrKnw/iH35V98kfSVFFFf6VH8sBRRRQAUUUUAFFFFAH8Mf7Qn/JffiX/wBjhr3/AKXz14/XsH7Qn/JffiX/ANjhr3/pfPXj9ABX0B+yd/ydN8G/+ygeF/8A06W1fP8AX0B+yd/ydN8G/wDsoHhf/wBOltQB/b5RRRQAUUUUAFFFFABX5wf8FYP+TJfF/wD2ENE/9OEFfo/X5k/8Fcr97P8AYx1q3QqBfa3o1u27qQs/nfL75jH4ZoA/k5ooooAK/Z//AIIl/wDJffHX/Ynt/wCl9rX4wV+1/wDwRHsRJ8Z/iHqW8gweGIYAmOCJ7yNs59vK/WgD+k2iiigDG1zw54e8T2LaZ4l0uz1azfhre+t47mFs+qSKyn8q+WPG/wCwJ+x14/Ep1v4V6FayS9ZNHjfRnDDow/s97cZzycghv4s19gUUAfkB44/4Iwfs16951x4L8QeKPC1w/wDq4vtEGoWcf/bOaETt+NxX0z+xH+xJoP7G2i+KrO317/hKdU8TX0Mr6o1kLF0sbaPEFt5fnT8pI8rMwcB9y/KNor7mooAKK43xd8Rfh98P7cXfjzxPo3huArvEur6hb2KbfXdO6DHHXNfHXjv/AIKa/sYeBEkR/H0ev3cecW2g2dzfl8f3Z1jW1/OYZz6ZIAPveivwn+I3/BbrwfarJbfCb4b6jqTnIS78QXkViikdGNvbfaS4Pp5yGvzn+Lv/AAVB/a8+K6TWNv4nj8F6ZLuBtPC0JsHwen+ls8t4CB/cmUHrjpgA+QfjZpdrofxl8e6LZDbb6f4n1i1hGAMRw3kqLwMDoB0rzGp7q6ub25lvb2WS4uLiRpZZZWLySSOSWZmJJZmJySTkmoKACv2N/wCCKF88f7SnjHTQoKz+Brqct3Bg1LT1A/HzT+VfjlX6/wD/AARU/wCTpvFP/ZP9R/8ATppVAH9PtFFFABX8kX/BWD/k9rxf/wBg/RP/AE3wV/W7X8kX/BWD/k9rxf8A9g/RP/TfBQB+cFFFFAH1B+xT/wAncfCH/scNJ/8AShK/tcr+KP8AYp/5O4+EP/Y4aT/6UJX9rlABRRRQAVh6/wCGPDXiuybTfFGk2OsWbAhre/to7qIhuoKSqy89+K3KKAPjnxt/wT9/Y38fCQ6x8LNEspJBjzNFSTRmU9mAsHt1yDzypB7givkLxt/wRe/Zv1wyXHgvxJ4o8MzP9yJp7fULRPoksKzn8Z//AK/7B0UAfFH7E37GWh/sb+EPEWgWutjxPqviLU1u7nVjZ/YXa1gjCW1uYvNn4iZpWzv5Mh4HAH2vRXEeMfiZ8OPh5bi68f8AirRfDUJUsJNX1C3sVIHcGd0z+FAHb0V8BePP+Cnf7GHgRZoz46HiG7izi20Gyub4vj+5PsS1PtmYZr4c+I3/AAW78M26yW3wl+G19fMciO88RXsdoq46E21qLgvn089KAP3gr+DL4g6XaaH498S6LYLtttP1e/tYVOOI4Z3RRwAOAB0AFfanxd/4Kc/tefFpJ7EeK18HaZOCpsvC0X9nnBOf+PotJejjg4nAI7c18ATTS3Erzzu0ksjF3dyWZmY5JJPJJPJJoAjooooA/az/AIIkXzx/Gv4g6aFBWfwtFOW7gw3sSgfj5p/Kv6UK/mi/4Il/8l98df8AYnt/6X2tf0u0AFfyH/8ABVHT7qy/bk+IFzcIVjv4dCuID/ejXSLOEn/vuJh+Ff14V/O1/wAFrfgxf2fi3wX8fNOt2bT9Ssz4a1SVB8sV3bNJcWhc+s0Ukqj2g56jIB+FFFFFAHtv7Pnx++IP7NPxMsfij8N7iOPULZHtrm2uVL2t9ZSlTLbXCKVZo3KK3DBldVZSGUEf0R/BT/gsJ+zn49httP8Aina6h8PNXfCyyTxtqOlFyP4Lm3UzKCc/6yBFUYy55I/lvooA/u/8B/FP4afFHT/7U+G/irR/E9qFDPJpN9DeCPPGHETsUOeCGAIPBFd7X8CWmarqei30Wp6NeT2F5Ad0VxaytDNG3qroQyn6Gvsb4c/8FEP2xPhksdvpHxI1LVbSPANtr4j1hWUdF8y8WSdR2+SRcDigD+yevnn4xfsp/AH4/eI9F8VfF7wnD4j1DQIJbaxaa5uYY1imYOVkjgljSYBgSokDAbjgZNfij8Of+C3HxDsGit/iv8O9I1mPhXudCuptNlAH8RiuPtiO3qA8Yz0wOK/Qv4Vf8FXf2RPiS0dnrOs3/ga/fAEPiO0McLN3xdWzXECr6GV48+g6UAfZPgf9n34FfDXyW8A/D/w1oM0H3Lix0q2iuc+rTiPzWb3Zycd69grD8OeJ/DfjDSIPEHhLVrHW9LuhmC+065ju7aUDuksTMjfgTW5QAUUUUAFfm3/wVZ+Ks3w0/ZC1zS7Cbyb/AMcX1p4aiKthxDPvuLrgdVe2t5ImPT94B1Iz+klfz7f8Fw/FsjX3wo8CQsQkcWsavcLnhmka2ggOMY+UJN3P3u3cA/AyiiigAr+qL/gkV8DLD4c/s2r8T7y3C698R7mS9kkYfPHptlJJBaRD0ViJJ/cSjP3Rj+V2v7b/ANmjVPB3h/8AZ0+F2iW2q2MSWXg3QYtr3MQfctjDuLjI+ctktwOSeKAPo2iuf/4S3wr/ANBnT/8AwKi/+Ko/4S3wr/0GdP8A/AqL/wCKoA6CsvXNF0rxLouoeHdetY77TNVtZrK9tZRmOe2uEMcsbjuroxUj0NU/+Et8K/8AQZ0//wACov8A4qj/AIS3wr/0GdP/APAqL/4qgD+Iv9or4T3HwM+OPjX4Tzl3j8OavPbWskhy8tk5EtpI2ABuktnjc4GMmvF6/Tj/AIK32OjQ/tg32saNcQXI1vw/pF7cSQMrr50aPaYLKSCRHbp6cYGO5/MegAr95P8AgiN8UJIPEHxF+DN3NmK8tLbxLYxE4CyWzi0uyPUustvn2Svwbr9Af+CX/jB/CH7avgMM5S21wajo9wB/ELqzmMQ/8CEiJ+lAH9fdFFFAHP8Aiz/kVdZ/7B91/wCimr+COv73PFn/ACKus/8AYPuv/RTV/BHQAUUUUAfu9/wQ6/5Gr4t/9g/Q/wD0beV/Q9X88P8AwQ6/5Gr4t/8AYP0P/wBG3lf0PUAFFFFAH42f8FsLG5l/Z28F6hGhaC38ZwxysP4WlsL0pkeh2HnpnHqK/mWr+y7/AIKA/Bq7+OP7KXjbwrpEDXGs6bbprulRoCzvdaW3nmNFGdzzQiWJB/ecV/GjQAVJDNLbypPA7RyxsHR0JVlZTkEEcgg8gio6KAP3z/Zm/wCCykOlaJp/hD9pjQ72+uLSOO3HijRQkstwF+UPeWbtGN+OXkhc7j0iB6/r18Kf2vP2avjWkKfDr4haLf3k+AmnXE/2HUST2FpdCGdsdCVQj36V/ElRQB/f5RX8Qfw2/aq/aO+EXlR/Dz4i+INJtocbLL7Y9zYjHT/RLjzbc/jHX3r8Pf8Agsv+014aaK38daR4c8ZWq482SS2fTb18ekts4t1z3/0Y89MDigD+k34l/DbwZ8X/AAPqvw4+IWnjVfD2txpFfWhkkh81I5ElXEkTJIhDorBlYMCMgg1414H/AGK/2UPh15L+FvhZ4ajmt/8AVXF9ZLqVyh9VnvfPlDe+7OO9fC3ww/4LPfs+eKGitfiZ4c13wRcPjdPGF1iwj9cyQiK5Pti1Ofav0s+F3x7+DHxrshffCrxno/iVQgkeGyukN1Cp6edbNtnh+kkamgD1GxsLHS7SLT9MtorS1gG2KCBFiiReuFRQFA+gq3RRQAUUUUAf/9H9/KKKKACvnX9obTjJpWkaqB/qLiWBj/12UMM/9+zX0VXnPxX0n+1/Aepxou6S2QXSd8eSQzf+ObhX574r5M804Rx+Eirv2bkvWFppfNxsfS8HY5YTOsNWe3Mk/SXuv8z4Rrq7TX0stKjgRd86lgAegGcgn8+lcpRX+XJ/V+Iw1OulGotE7l+fVNQuWJlnfB7Kdq/kOKjiv76E5inkX/gRx+XSo7e2nu5RDboXc84Hp/IVPdabfWY3XMLIv97gj8xkUBahF+y09NPyOl03xNuYQ6iAM9JVGP8Avof1H5d67BWVlDKQQRkEcgivHK6LRNaNi32e5JNu3Q9dh9vY9x/kh42Y5PFp1MOte3+R6CSAMngCs6TV9Miba9wmfY7v5ZrhdU1ifUZCoJSAH5U9fdvU/wAqx6DPDZDeN60rPsj1i31CyujtgmRz6A8/keauV44CQcjgiuy0PXXd1sr1txbiOQ9c+h/oaDHG5LKnHnpO6X3nwp+3T8MpH/sz4q6ZFlUVdN1TaOgyTbynHuWjYn/YFfm/X9EXiPw9pPizQb/w1rsAudP1KB7e4iPdHGMg9Qw6qRyCARyK/DL4w/CjXvhB4wuPDerK0tq5aXT73aRHdW+eGHYOuQJFz8rexBP97/Rp8RqWYZX/AKs4ydq9C/Jf7VPey84PS38trbO34PxvksqNf69SXuS38n/wfzv5HlVSwQT3UyW9tG8sshwqIpZmPoAOSa3fDHhnUfFWqJpunjH8Usrfcijzyx/oO5/Ovrzwv4O0TwpbCLTog07DEty4zLIfr2H+yOPx5r+hs54go4Bcluab6f5nqeHvhZmHE8nXv7PDp2c2r3faK6vu7pL10PknVPBfibRdOTVdTsXgtnYLuYqSpPTcoJZc9sgfyzy9ffeo6fa6rYz6bfJ5kFwhjdfY9x6EdQexr5s0f4Q6ufE5tNUT/iVW772uAQBOgOVVQDkFujf3efbPnZTxXSrUpyxdoyjr6ryv1PquOPBHGZfjMNSyNSq06totvVxl3k0klFrW9tLNN7X4S38CeLLvSk1m206WW1kG5CmC7L/eEed5B7YHP0xXKOjxu0cilGUkMrDBBHYiv0EREjRY41CqoAVQMAAdAB6VwvjLwBpHi2BpGVbbUAP3d0q8nHZwPvL9eR29Dw4LjXmq8uKhaL6rp69/l9x9LxF9Hf2WCVXJq7nVitYzslJ9eVq3LfopX85Lc+M6kiilnlSCBGkkkYIiICzMzHAAA5JJ6Cr2raTfaJqM2l6jGY54G2sOxHZge6kcg+lfc/7HPwHm1rVIPiz4qtsaZYOTo8Mi/wDHzdIcfaMH+CEg7D3k5B+Tnu4140wHDWS1M5xkk4pe6r6zk/hivX8Fd7Jn864LJcTiMb9QcXGabUrr4bb39Pz0PuH4DfDcfCz4Y6T4XmUDUGQ3mosOc3lxhnGRwfLG2MHuEBr2KiuV13W2tmNnZkeZj5367fYe/wDL69P8pc4zXE5njq2Y4uV6lSTlJ+bd38uy6I/oPLcu92GFw60St8kdBcXtpa/8fEyRn0J5/LrVZNZ0uRtq3KZ/2sqPzOK8wZmdizksx5JJyTTa80+ojkFPl96TuexqyuoZSCD0I5FL05NeXadqlzp0gMZLRk/NGTwfp6H3rU1rXftai2syViIBc9CxPb6Dv6/TqHBPJKyqqCfuvqaOp+JEiJhsMOw4Mh+6Pp6/Xp9a5SbUr+4JMtxIc9gcD8hxVKrlrp95e5+zRM4HU9B+ZwKD6Cjg8PhoXsvViw6lf25BinkGOxOR+R4rRv8AW5NQsUtpV2yK4ZmHRgAfyPNZV1Z3NnJ5dzGUYjIzyCPYjg1WoNfq9Co41UldbNBX2j8DNO+xeBUuiOb+6mnz3wpEQ/8ARZ/Ovi8Ak4HJNfop4V0n+wvDem6QRhrW2jST/rpjLn8WJNf039FzJnX4gxOYte7Sp2/7em1b/wAljI/MfFvHKnltLCp6zlf5RWv4tG/RRRX92n89BRRRQAUUUUAFFFFAH8Mf7Qn/ACX34l/9jhr3/pfPXj9ewftCf8l9+Jf/AGOGvf8ApfPXj9ABX0B+yd/ydN8G/wDsoHhf/wBOltXz/X0B+yd/ydN8G/8AsoHhf/06W1AH9vlFFFABRRRQAUUUUAFfjt/wWp8QrYfs3eE/DiNiXVvGNvKRwcw2lleFv/H5I+R9O9fsTX85H/Bbj4hW+pfEb4c/C62kBfQdJvdZulXkB9VmSGJW/wBpVs2OPR89xQB+HVFFFABX9An/AAQ58PSrb/F3xXKCI5H0HT4CM4LIL2WYHjHAeLGD3OR0r+fuv6o/+CO/gN/C37Jr+KbiIrL4x8R6jqMcjdWtrUR2KAf7Ilt5SO+WPbFAH6s0UUUAFeJ/Gz9or4M/s8aCPEHxc8T2ehxzKxtbViZb68KdRb2sYaaXBIBZV2Lkb2Uc184/t6fts6L+yN4Dht9FS31T4geIkcaJpsxLRQRKdr3t0qkN5MZ4Rcgyv8oICuy/yafET4keOfiz4tvvHXxG1q617XNQbdPd3b7mxk7UReFjjTOEjQKijhQBQB+2nxn/AOC2GrTyTab8AfA8VrDyqar4pcyysPVbK1kVEOOha4kHqvGD+Z3xK/bx/a3+Kryr4m+JWs2trKebPRpRo9tt/uFLIQ+Yv/XQsT3Jr5FooAs3l5eahcyXt/PLc3EzbpJpnMkjt6szEkn6mq1FWrKxvdSu4rDTreW6uZ2CRQwI0kjsegVVBJPsBQBVor6y+Hv7C37XHxPMbeFvhfrscEnK3Oqwro9uV/vLLftbq4H+wWJ7Anivvn4Y/wDBFP4wa28V18WPGui+F7VsM1vpccurXg/2W3C2gQn+8skgHXB6UAfipRXb/EzwtbeBviP4r8E2U0lzb+H9b1HSoppQBJLHZXEkKuwHAZgmTjjNcRQAV+y//BE61gf9ofxtesuZovBcsSNk8JLqFkzDGccmNe2eOO9fjRX7P/8ABEv/AJL746/7E9v/AEvtaAP6XaKKKACv5Iv+CsH/ACe14v8A+wfon/pvgr+t2v5Iv+CsH/J7Xi//ALB+if8ApvgoA/OCiiigD6g/Yp/5O4+EP/Y4aT/6UJX9rlfxR/sU/wDJ3Hwh/wCxw0n/ANKEr+1ygAooooAKKK/O7/goB+3Jpn7Jfg230PwqttqXxG8RxM2lWc/zw2NqCVa+uUBBKhgVhQkeY4PVUcUAfTXxy/aX+Cf7OWijWfi34ntdHaZGe0sATPqN5t4/cWse6Vxu+UvtEan7zKOa/Fv4y/8ABbDxDdTTad8A/A9vYW3zKmqeKHNxcMpyAy2drIkcTAYI3TyjPVfX8TPHXj3xn8TfFN/428f6xd69rmpSGS6vb2QySuewHZEUcIigIigKoAAFcjQB9ZfEr9uj9rP4rvKPFXxL1uG1lOGstJmGkWpXsjRWIgWRR/003EnkknmvlS5urm9uJLu8lknnlbc8krF3dj3Zjkk/WoKKACirmn6dqGrXsWnaVbTXl3cNsigt42llkb0VFBZj7AV9W/D79g39rz4mmN/Dfww1yCCTBFzq8SaPDsJ++Hv2t94HX5NxPYGgD5Gor9tPhh/wRQ+K+sNFd/Fvxxo3hu3bDNa6PFLqt3jurtILWGNvdWlHfnpX44eM9Eg8M+MNd8N20jzQ6VqV5YxyPje6W0zxhmxxkhcnFAHNUUUUAftp/wAERbOF/jB8Rb9gfNh8NW0KnPG2W7Rm4+sa1/SRX84P/BEP/kqnxL/7F+y/9KjX9H1ABXk3xx+Dfg/4/fC3XvhR44h36brluYxMgBmtbhDvguYSekkMgV17HG1sqSD6zRQB/D7+0Z+zn8R/2Y/iPefDv4iWZR0LS6dqMSn7HqdnnCXFu56g9GU/NG2VYAivBa/ue+NXwJ+F37QfgybwL8VtEh1jTnJeBz+7ubSbGBNbTL88Ug9VOGHysGUkH+fr9oT/AII4/FzwZcXOtfALVIvHOijdIumXzx2OswqOQoZtlrc4H8StCxPCxGgD8ZqK7Pxx8OvH/wAM9YbQPiJ4c1Tw1qKlv9G1WzltJGCnBZBKq716YZcqQQQcGuMoAKKKKACiiigD0n4Z/GH4pfBvW18RfC3xTqfhm+BBd7C4aOOYL0WaLJimT/YkVl9q/bb9l7/gshLNc2nhH9qXTY0SRliTxXo8BUJ/tXtkmcjPV7YDH/PHqa/ACigD++Hw34k8P+MdBsfFHhTUbbV9I1OFbmzvrOVZreeF+VdHQlWB9j7Vt1/J/wD8E2v22NX/AGdviPZ/DbxtqLP8NfFV2kFyk75j0e+nISO+jLHEcZbC3IGAU+fBZAD/AFgUAFfzGf8ABa68mf8AaZ8IWDEeVD4Es5lGOd82pakrc/SNa/pzr+YL/gtX/wAnTeFv+yf6d/6dNVoA/ICiiigAooooAKKKKACiiigAooooAK+gv2TtYOgftQ/CTVi/lpD420AStgtiGS+hSXgck7Gavn2vTvgpfPpnxl8BalGodrTxPo86qeAxjvImAP1xQB/ddRRRQBz/AIs/5FXWf+wfdf8Aopq/gjr+9zxZ/wAirrP/AGD7r/0U1fwR0AFFFFAH7vf8EOv+Rq+Lf/YP0P8A9G3lf0PV/PD/AMEOv+Rq+Lf/AGD9D/8ARt5X9D1ABRRRQAV/L9/wUy/YO1b4OeLNS+O/wu04z/D7Xbk3GpW1suToV/cN84ZAPls5pDmJh8sbt5R2jy939QNVb6xstTsrjTdSt4ru0u4nguLedFkilikUq6OjAqyspIZSCCDg0AfwG0V/SN+07/wR18G+M7288X/s46tD4R1G4ZpZPD2pb30d3PJFtMivNagnPyFZUycL5ajFfiF8Zv2Tf2h/gDNKfij4I1PTLGJto1WGMXmlvkkKReW5kgBbqEZlfHVQeKAPnaiiigAooooAKvabqepaLfwaro93PY3tq4kgubaRoZonHRkdCGUj1BBqjRQB+p37O3/BWP8AaH+ElxaaP8TJv+FleGo2CSLqkmzWIo+OYr8AtIw6/wCkLKW6bl4I/op/Z2/ah+D37UPhNvFPwr1b7RJa7F1HSrsLDqWnSPnatxAGbAbB2SIzxPghXJVgP4iK9R+Dfxi8e/Af4h6V8TfhxqD6frGlSg4yTBdQEjzLa4QEeZBKBh1PsVIYKwAP7q6K8S/Z2+OPhj9oz4P+Hvi34VBhg1iAi6tGYNJZXsJMdzbue5jkBCtgb02uBhhXttAH/9L9/KKKy9b1e20HSLvWbz/U2cTSsB1baOFHuxwB7msMTiaWHozxFeXLCKbbeySV2/kjSlSnUmqdNXbdkvNnMeNviFofge3U3xM95KMw2sRG9h03MTwi57nr2Bwa+bNZ+OPi7VBLDbR2tnbSBkMax+azIwwQzOSDx6AV5hr2uah4j1W41jU5DJPcOWPoq/wqvoqjgCskAsdqgknsK/z14/8AHnP85xlSGV1pUMMm1FR0k13lLe77JpLbXd/0rw54d5bgaEZYuCqVereqT7Jbad3r+SSilZWU4YEH0PFJX4QfoZ2PhILuum/iAQD6HdmuyZQwKsAQeCD0IrzLRtQ/s+8Dv/qn+V/Yev4V6arBgGU5BGQR0INB8fnVKccQ6j2e3yPP9d0f7E/2m2H7hzyP7h/wNc5XsEsUc0bRSjcjjBB9DXl+pWD6ddNA3K9Ub1U/19aD1sozB1o+yqP3l+KM+un03w493bi4uJDGHGUUDJI9T9a5yJQ8qIf4mA/M16+qhVCqMADAHsKB5xjalCMY03Zs8w1TS5tMlCud8b/dcDGcdiOxrLBxyK9Q1m0+2afLGBl1G9P95f8AEcV5fQb5ZjHiKV5/Etz1HR7031hHKxy6/I/+8P8AEc1yHxM+GXhb4r+GZvDHimAvGx329xHgT2swGBJExBwR0IOQw4IIqTwze+RdNaOflm+77OP8R/Su+rsy/MMTgcTDGYObhUg7xknZprqj5POMBBVJ0akbwl06WZ+bg+BOr/Byxe0kX+0LeWQu+pwxkJJyQgdckxlVx8pJGc4J5rOr9MnRZFKOAysCCCMgg9QRXl+u/B3wPrbtMtq2nzNyXs28sZ/3CGQfgor+jch8e1X04hpt1HvOFtfWOlv+3brskj9C4U40weXYKll1WjywgrJx2t5p636t3d3rY+HaK+m7z9nYbi1hrmF7LNb5P/fSuP8A0Gs5P2eNVLYk1i3VfVYnY/lkfzr9Ap+K3C04831tL1jNP/0k+6hxrkslf2/4S/yPnWnIjyuscal3chVVRkkngADuTX1Tp37POlRMG1XVri4HGVgiWH8MsZP5CvW/D3gXwr4Xw+j6fHHNjHnvmSX3+dySM+gwPavns58bciw0GsCpVpdLJxj83JX+6LPLx/iJltGL+rJ1H6WX3vX8GfJeh/su2HjnUdO8SfEKCS2trMkiyB2TXUfUJMRho0Dc4+8eR8uc19tWlpa6faQ2NjDHb21vGsUMMShI440GFVVGAFAGABwBViiv534v45zbiOtGeYVPchfkgvhinvZd31b1fokl+LZjiI4vHVcwcFGdS17K17Ky/Apahdiys5bnuo+UerHgfrXlTu0jl3OWYkknuTXWeKL7c6WCHhPnf6noPy5/GuRr48+nyXDezo+0e8vy6F/TtOm1KfyYvlAGWY9FH+PoK3b3ww0Fu01tKZGQZKkYJA9Mfyrc8PWn2bT1dhh5vnP0/h/Tn8a3KDzsZnFWNdqk/dX4njdFW7+JYb64iThVkYD6Z4osbOW+uUtourdT2UDqaD6X2seT2j2tc0tF0g6jL5kuRAh+b/aPoP616IkaRII41CqowABgAVHbW8VrClvCMIgwP8T7mp6D4rH42WIqX+ytkcp4rC/ZYGP3hIQPoRz/AErhq3de1IX10I4jmGHIU/3j3P8AhWFQfU5XRlTw0Yz3J7a4ktLmK6ixvhdZF3DI3KcjIPBGR0r1/T/jr43tZg92ba9jzykkQQ49jGVwfrmvGgCTgDJpWVkO1gQfQ8V9HkHF2dZI28pxU6V2m1FtJtbXWzt5pmeY5NgMeksZSjO211qvR7r5H3Z4F+JWieN4zBCDaahGu6S1kOSR3aNuN6jvwCO46Z9Gr82NO1C80m+g1LT5TDcWziSN16hh/MHoR3HFfoH4Q8QxeKfDllrkQCG4j/eIDnZKhKuv0DA49Rg1/cvgf4uVeKqNTLs0t9apK90rKcb25rbJptKSWmqaS1S/n/j/AILhk844rCfwZu1n9l72v1TV7ddHc6Siiiv6APzcKKKKACiiigD+GP8AaE/5L78S/wDscNe/9L568fr2D9oT/kvvxL/7HDXv/S+evH6ACvoD9k7/AJOm+Df/AGUDwv8A+nS2r5/r6A/ZO/5Om+Df/ZQPC/8A6dLagD+3yiiigAooooAKKKKAK15eWmnWc+oX8yW9raxvNNNKwSOOOMFmdmPAVQCSTwBX8TP7W3xrf9oT9ofxr8U43ZtP1LUDBpStkbdMs1FvafKcbS0Mau4/vsx6kmv2L/4Kf/8ABQHw4fDOp/s2fBLVo9SvtTDWvivWbJ99vbW2fnsIJVOJJZcbbhlyiR5jyXZxH/PPQAUUUUAXNO0+91bULbStNhe5vLyaO3t4YxueWWVgqIo7lmIAHrX9ynwE+GNv8GPgv4L+FlvsLeGtFtLG4eM5WW6SMG5lHA/1k5d+g+9X8yf/AASp+AEnxi/aZsfGWq25k8PfDZU166dlzG+ohiunQ57P5wNwM8EW7DuK/rIoAKoarqmn6Jpl5rWrTrbWNhBLdXM7/cihhUvI7eyqCT9Kv18df8FAvF9x4H/Y0+KuuWshikm0T+ygwyCBrE8WnnBAJyRcEf1HUAH8on7Tvx01z9o743eJ/itrLyCHUrpo9MtpGJFnpkBKWsCjoNsYBfbgNIzvjLGvA6KKACvavgH8AfiR+0l8RLL4a/DKwF1f3AM1zczEx2lhaKQJLm5kwdkaZHQFnYhEVnYKfFa/p8/4Iy/DvRNB/Zy1r4iRQo2seKvEFxDPcY+cWemokcEOfRZHmf33+1AG98Ef+CQf7N3w+tLe9+KL3vxF1tQrS/apXsNLSQc/urW3dZGA6ETTSK390dK/SbwN8Lfhp8MbL+z/AIc+FNF8MW5UK0ekWEFkHA/v+SilyTyS2STyTmu8ooAKKKzNa1jT/D2jX+v6vMLex0y2mvLqVvuxwQIZJGPsqqTQB/Dh8fLiG7+OvxGurZxJFN4t1ySNx0ZGvpiCPqDXktbXiTWZfEfiLVPENwNsuqXtxeuOOGuJGkI4AHVuwFYtABX7af8ABEWzhf4wfEW/YHzYfDVtCpzxtlu0ZuPrGtfiXX7ff8EQ/wDkqnxL/wCxfsv/AEqNAH9H1FFFABX8kX/BWD/k9rxf/wBg/RP/AE3wV/W7X8kX/BWD/k9rxf8A9g/RP/TfBQB+cFFFFAH1B+xT/wAncfCH/scNJ/8AShK/tcr+KP8AYp/5O4+EP/Y4aT/6UJX9rlABRRRQBjeI9f0nwn4f1PxTr04tdM0azuNQvZ25WK2tY2llc47Kik/hX8Qf7Qfxp8RftB/GHxN8WfEryCbW7x3tbZ3LrZ2KHbbWydtsMQVeMbmyx5Y1/Vj/AMFJPF1x4N/Yq+Jl/ZyGO4v7K00hMEgsmp3tvazrnB/5YSyZHcDGea/jnoAKKKKAPdv2eP2dviV+018RLX4dfDWyEtw4E19fz7lstOtAQGuLmRQ21R0VQCzthVBJr+jH4Jf8Eiv2Zvhza2178R1vfiNraBGkk1CR7PTVlU5zFZ27qSp6FZ5ZwfQdKqf8EePh3onhn9lh/HVtCh1Xxlrd7Nd3OP3hg09zaQQk4+5GySuo55lbnsP1goA4jwT8NPh18NrH+zfh54X0fwzalQpi0iwgslYD+8IUTce5JySeTXb0UUAFfwffFGeG5+Jvi65t3EkUuu6k6OpyrK1zIQQe4Ir+5/xf4m03wV4T1vxlrLiOw0HTrvU7pydoWCziaaQk9sKh5r+C68u57+8nvrk7prmV5pCBgF3JZjgcDk0AVqKKKAP3R/4Ie2Mcnjv4q6kWYPBpOkwKv8JWaediT3yDEMfU1/RXX88P/BDr/kavi3/2D9D/APRt5X9D1ABRUU88NtC9xcyLFFGCzu7BVVR1JJ4AFeH+LP2n/wBnHwL5q+Lfid4T02aHO+3l1i0NzwMnECyGVjgjgKTyPUUAe60V+efiz/gqZ+xT4W3xw+N5tduIyQYdJ0q9mzj0lkhigbPtIf5V80eKv+C2XwMsGePwb4E8UayVOA981pp0bc9QUlumxjplQfYUAfsB4p8H+EvHOkS+H/Gui6fr+lz8S2Wp2sV5bvxj5o5lZDwfSvz1+Kf/AASe/ZE+IolutC0fUPA2oSZbz/D94ywl8cbrW6FxAqjusSxZ9Qea9E/Yb/bVsf2y/DnirVW8PR+FdS8M6jBBJpqX39oE2d3FugmaUw2/LyRzJgIB8nXnj7poA/nB+JP/AARL+Jul+bc/Cjx/o+vxDLJa61bTaXPj+6JIftcbt7t5YPtXwL8RP2Af2v8A4ZGV9e+GesX1tEf+PnRETWYiv9//AEFpnVfXeqkd8V/ZxRQB/AhqOm6jpF5Lp2rWs1ldQnbJBcRtFKjDsyOAwP1FUq/vA8efC74bfFHTG0f4j+F9I8TWbKVEWq2UN2EB5yhkVihB5DKQQeQc1/Pd/wAFLf8Agnp8P/gX4Pi+OvwQim0zQlvobLWtClme4htDdZWG5tpJWaURmUCN42d8NIpTaoIAB+KFFFFABX9on7CPxRvvjD+yb8OfGerTG41L+zDpl9K/35LjSpZLJpH/ANqUQiQnvur+Luv6qv8AgjvPdTfsgeXcKRHB4p1aOA7cboylu5Oe/wA7MM+2O1AH6pV/OJ/wW98Nva/E/wCGfi8rhNT0G/00N6nTrlZiPu9vto/iPXoOp/o7r8fv+Cznw4l8Tfs56B8QrSMvN4M8QR/aGxwljqqG3ds+9wtsPxoA/mEooooAK/sw8A/sifsh+JfAnhzxHF8JfCMyarpNjerI2lW7M63ECSBiQpBJDZzX8Z9f18f8Ex/jHa/Fv9kfwnaPOr6r4JQ+Fr+IH5o108AWZxnO1rNoeehYMB0OAD2X/hin9kf/AKJD4P8A/BTb/wDxNH/DFP7I/wD0SHwf/wCCm3/+Jr6fooA+YP8Ahin9kf8A6JD4P/8ABTb/APxNH/DFP7I//RIfB/8A4Kbf/wCJr6fooA+YP+GKf2R/+iQ+D/8AwU2//wATR/wxT+yP/wBEh8H/APgpt/8A4mvj7UP+CwX7Nmg+PfEHgjxFo/iWKLRdVutNi1ayt7a8srpLWVojOB9ojmVH27lAjYlTzg8H3vwf/wAFJP2LPGYRLP4lWWmzsMtDrFrd6bs5xgyXEKQn1+WRv54APRv+GKf2R/8AokPg/wD8FNv/APE1Zsf2Nv2U9MvbfUdP+E/hK3urWVJ4Jo9KgV45Y2DI6kLkFWAIPrXrXhL4p/DHx+FbwJ4v0HxGGzg6RqdtfA4GTjyJH6Dn6V3lABRRRQBz/iz/AJFXWf8AsH3X/opq/gjr+93xWC3hfWFUEk2F0AB1J8pq/gioAKKKKAP3e/4Idf8AI1fFv/sH6H/6NvK/oer+dP8A4IfXyR+PPipppUlp9I0mcN2AgnnUj6nzR+Vf0WUAFFFFABRXn3iv4tfCrwIWXxx4z8P+HinLDVdUtbIqOevnyJjofyr5n8Wf8FGP2LvB4kGofFDTL2ROAmkw3WqbzjorWkMsfPqWA96APtmmSRxzRtFKodHBVlYZVlPBBB4IIr8kfFn/AAWZ/Zb0QPH4b0jxZ4im52NDZW9pbnAGMvcXKSDOe0R6HPbOT8Bf+Ctvh/45/Hrwv8IU8ASeG9L8SXM1nHq93qy3EouPJke2Q2620aqZpVWP/XN8zjGccgH1/wDFj9gH9kv4xGa58SfD/T9O1GYljqOhA6Tc7zn52+y7IpW56yxvnv0FfnF8TP8AgiLoFwZrv4O/Ee6sjyYrDxHZpcqSegN3a+SVAP8A07OcfTn95aKAP5F/iL/wSw/bJ+H4lntfCtr4ttISc3Hhy+juiQOhW3n+z3TZ7YhJ9QK+IfGfw1+Ivw5u/sPxA8L6z4auCxQR6vYT2TMRngCZEz0PSv7xqpajpunaxYzaZq1rDe2dypSa3uY1lhkQ9VdHBVh7EUAfwIUV/Wf+03/wTC/Z6+NPh3UtR+H+hWngLxqIZJLG90dBa6fPcAErHd2aDyDG7cNJEiSgnduYDYf5PdS0690jUbrSdSiMF3ZTSW9xE2N0csTFHU4yMqwI4oApUUUUAfvX/wAERvijeLrPxF+C13OXtZbW28T2EJPEUkLrZ3jAf9NBLbA/7g9a/oRr+Vv/AII5z3cX7XksdtGXjm8J6qlw2/bsiEtq4bH8X7xUGPfPav6pKAP/0/38ryT43TSReALpEOBLPAj+67w2PzUV63XF/EPQW8SeD9S0yIZnMXnQ9syQkOo54+bG38a+R4+wOIxvDWPwmFV6k6VRJd24vT57fM9rhzEU6Ga4etW+GM4t+Wq1+R+f9d54Wt4VtHuQAZGcqT3AGOP61wda+k6rJpkpyC8T/fX+o96/ylP6zzKhOrQcKe/5no09rb3S7LiNZB/tDp9D2rkdR8MsoMunncP+ebHn8D3/ABrrra6gu4hNbuHU+nb2I7Gp6D5KhjK+GlaLt5M8dZGRijgqwOCCMEGun0LWvsxFndn90ThGP8BPY+38v5dNqWkW2oplhslA+WQdfx9RXnl7YXNhL5VwuP7rD7rD2NB9JSxNDH03Sno+36o9YrI1rThqFoQg/ex5aM/zH4/zrn9D1zyttlet8nSOQ/w+x9vQ9vp07eg+dq0auDrJ9Vs+546CyOCOGU5+hFet206XMEdxGcrIoP8A9b8K4fxJp32a4F3EMRzH5vZ//r9fzpuh619hP2a5P7hjkHrsJ/pQe5j6X13DxrUt10/NHoNeaa5Y/Yr5tgxHL86e2eo/A/pXpKOsih0IZWGQRyCKzNY08ahZtGv+sT5oz7+n40Hj5Zivq9f3tnozzJHaNg6HDKQQR2Ir1LTL5NQtEnHDfdcejDr+fUV5YQVJVhgjgg1raPqTadc7myYZOJB/I/UUH0WaYL6xSvH4lt/kem0U1HWRQ6EMrDII6EGnUHxbQUUUUAFFFFABVW9u47K2e5k6KOB6nsPxqySAMngCvOdd1T7fP5UR/cRH5f8AaPdv8KDvy/BvEVbdFuY80z3ErzSnLuSxPuauaXYm/vEg/gHzOfRR1/PpWdXpGg6d9htN8gxNNhm9h2H+PvQfUZjilh6Hu7vRf15G2AAMDgCmyOsaNI5wqgsT6AU4kKCScAckmuG13W1uVNnaHMefnf8AvY7D2/n/ADD5PB4SeIqcsdurObuJTPcSTn/lo7N+ZzXoGgab9itfNkGJpgC2ey9h/U1y/h/Tvtl35sgzFDhjnoW7D+pr0ag9jOsXZLDQ+f6IK4zX9aBDWNm3tK4/9BB/n+VSa7rezdZWTfN0kcdvYe/r/nHJ2lpcXswht13MevoB6k9hQLLMuUV9Yr6Lp/myuASQAMk8ACup07w1LMBLfExL2QffP19P5/Sug0vRbfTwJGxJP3c9B/ujt9ev8q2qBY7Om/cw+3f/ACK1tZ2tmuy2jVB6gcn6nqax/ElvDJpzTsB5kRXae/JAIrcmmit4zLO4RF6k157rOsNqLiKIFYEOQD1Y+p/oKDjyyjWrYhVV0erMKvr39n6eSTwnewOcrFftt9t0cZI+mefxr5Cr7m+EGhNoXgez83Alvyb1wOceaBs/8hqufQ5r+hfo0YDEVuLXiKfwU6cnJ+tkl827/Jnj+KuIpwyX2U/ilJW+V2/w/M9Oooor/QM/m4KKKKACiiigD+GP9oT/AJL78S/+xw17/wBL568fr2D9oT/kvvxL/wCxw17/ANL568foAK9U+BfjLSPhz8bfh78QvEAmbS/DHirRdZvhboHmNtp97DcSiNSVDPsQ7QWAJ4yOteV0UAf1Pf8AD5H9kf8A58/GH/grt/8A5Mo/4fI/sj/8+fjD/wAFdv8A/Jlfyw0UAf1Pf8Pkf2R/+fPxh/4K7f8A+TKx7/8A4LR/srWsjR2vh7x1eYXKvFp2npGT6fvNSRh7nb9M1/LzRQB/RJ4v/wCC3/g6C3kTwF8L9TvZyMRyavqUNminA5ZII7ktg54DrkAcjPH5rftBf8FJv2nf2gLK58PXusw+EvDd0Ckuk+HFe0WeM8bZ7lnkuZQRw6eYsT55TGAPgSigAooooAKv6Vpepa5qdnomjWst7qGoTxWtpa26GSaeeZgkccaKCWd2IVQBkk4FUK/oy/4JefsBXvgc2f7SXxr0wwa7NF5nhXRbpMSWEUq/8f8AcRsPluHQ4hjbmJSXYCQr5YB+g/7Dn7Mdn+yz8B9K8F3SRP4n1QjVfEl1Hht+oTqoMKvjLRWyARJ2JDOAC5r7DoooAK+E/wDgphpVxrH7D3xQtLUZeO20u6OAT8lpqtlcP0/2Izz26192VwHxW8BWPxS+GXiv4bakwS28UaNf6S8jDd5f2yB4hIB6xlgw7ggUAfwhUVu+KPDWteDPEureEPElq9lq2iXtxp1/bP8AehurWRopUPurqR+FYVABX9A//BF/9oXQrfS/En7Nmv3K2+pTXsniHQPMIAuleJI7y3QnGXjEKTKvJZWkPASv5+K1dD1zWfDGs2XiLw7ez6bqmmzx3VneWsjRTwTxMGSSN1IZWVgCCDQB/fPRX86PwK/4LSeKvD+jwaD8fvCP/CTTW6qg1zRJY7O7lVe89o4EDyHrujeFeMbOpr6T1r/gtn+z9BY+Z4d8DeMb682k+VepYWcO/jA82O8uWx158vPA454AP2br8RP+Cqf7cXh7w94L1P8AZl+F2pRX/iLXVNr4pvLWTemmWGR5lluX5TcXI+SVcny4dysAzqV+C/2hf+Csv7QvxisLrw14Dig+G2hXQdJP7KmefVpYm42NfsqGPjvBHC3XLEHFflrJJJNI0srM7uxZmY5ZmPJJJ5JJoAZRRRQAV+1P/BEi/kj+N/xA0wbdlx4VjnbP390F7CoxzjGJTnj0/H8Vq/Vb/gjp4jh0P9r2TTJCA3iHwpqumxg9S0clte4HI522pPfjP1oA/qmooooAK/kw/wCCtdi9p+2n4inZgwvdI0WdQP4QtokWD+MZP41/WfX8wX/BaLwrLpP7S/hzxQiKLfXvCVqu4LgtcWV1cxyAkDnEbRckk846AUAfkBRRRQB6p8DPG1j8NfjX4A+IeqGQWPhnxPo+r3flZLm2sruKaVQByd0aMMd84r+5PQ9c0bxPo1l4i8O3sGpaXqUEd1Z3lrIssE8EqhkkjdSVZWUggg1/AxXuXw3/AGmP2gPhDpj6J8NfiBr+gaY5LfYbW9k+yKzcsyQMWiRj3ZVDHuaAP7ftQ1HT9JsptS1W5hs7O2QyTXFxIsUUSL1Z3YhVA7knFZnhjxV4Y8baJb+JvBurWWuaRdtKtvf6dcR3VrMYJGhk8uWJmR9kiMhwThlI7V/DT47+MPxY+KMom+JHjLXfE5VtyLq2o3F4iH/YSV2VP+AgV/UN/wAEk/EH9tfsXeH9N3Z/sHWNZ0/GenmXTXmOg/5+s9T169gAdH/wVP0q41P9iDx7JbAsbGfRbp1AJJRdTtUbH+6H3E+gNfyH1/dR8cfhtb/GL4O+M/hdcMkf/CT6Je6bFLIMrDcTRMIJSP8AplLsf/gNfw165ouq+Gta1Dw7r1rJY6npV1NZXtrKMSQXNu5jljcdmR1KkeooAy6KKKAP6Jf+CMX7Qeh3PhHX/wBm/XLpYNZsr2bXtDSQhftVpOiC6hjyeXgkTzSuMlZGIyEbH7r1/A/4a8S+IPBviDT/ABX4U1C40rWNKuI7qyvbWQxTQTRHKujDkEH8+h4r9vvgh/wWp1/RtGg0T4+eDTr91boqf23oMsdrPOFAG6azlAhMjdWaOSNM9IxQB/RFRX4xa7/wWz+ANvZl/DPgXxhf3W0kRX62FjFv7DzIru6bHvs/Cvze/aI/4KtftE/GzT7jwz4P8n4b+HroMk0WjTPJqc8bdUk1BgjquOD5EcBIyGJU4oA+5P8Agqz+3F4cg8KX37MHwq1OLUdU1RxF4uv7STdHY28Lhv7PV1ODPK64nAOI4wY2y0jBP53aUksSzEkk5JPUmkoAKKKKAP3I/wCCIF9LH8Rvihpo2+XPommztn726C4kVce2JTn8K/o0r+Xn/gjD4jh0r9qPXdCnIA1zwffRQ/3jPb3dpOAOenlLISMHoPev6hqAPJPjz8L7P40/Bnxn8K73ao8S6PdWMMjjKw3TIWtpcf8ATKcI/wBVr+G/V9J1LQNWvdC1m3ez1DTbiW0u7eUYkhngcpJGw7MrKQfcV/fXX80H/BXP9k2+8B/EQ/tI+DrJm8M+MJkj11YV+Ww1rbjzXA+7Hequ7djHnh9xzIgIB+MVFFFAH2f+wn+1NP8AspfHKz8X6kJZ/CmtRf2V4jtohuf7FI4ZbiNed0ttIBIo6su+MEb8j+xDwx4n8PeNPD+n+K/Ceo2+raPqsCXVle2kglgnhkGVdGXgj9QeDzX8EFfVH7Ov7Zvx/wD2X7h4vhlr+7Rp5PNuNB1NDeaVM56t5JZWhduNzwPE7AAMxAAoA/tUor+fnwh/wXDuktYoPHvwojmuRjzbrSNYMUbcjO22ntpCuBk8znPA4613Oof8Fwfh/FBu0r4WaxczZPyXGqW9umMHHzLDMev+z/hQB+5tfkV/wWC+OPhfwl+zu/wUS9il8SeOryxc2KMplh0zT7lLtrmReWRGngjjQ8bzuwSEcV8EfFL/AILQ/HjxVZT6d8MfC+i+BkmBAvJXbWb+L3jeVIbbPrvtn9sV+THjTxv4v+I3iW98Y+O9YvNe1vUX8y6vr+Zp55D0A3MThVGFVRhVUBVAAAABy1FFFABX9hf/AATQ8A3Pw/8A2Mfh/bX8Zju9cgutflB7x6ncSTWzD/etTCa/mN/ZF/Z21v8Aac+Ofh/4a2EUo0pplvdevIwQLPSbdgbh938LuMRResjr2yR/arpmm2Gi6baaPpUCWtlYwR21tBGMJFDCoREUdgqgAewoAvV5V8cfhbpfxs+EHi74U6xtWDxNpVxYpK4yILhl3W8+OeYJ1SQcHlRXqtFAH8EPinwzrngvxLqvg/xNavY6vol7caffW0n34bm1kaOVD7q6kelYNfup/wAFgP2S7nRvEEf7U/gm0LabqxgsfFcUS8W16oEVtekDok6hYpDgASqhJLSmvwroAK+1/wBhf9r3Vv2Rvix/b9zFNqHg7X0jsvEmmwkeY8KEmK5gBIUz2zMxUEgOjOmV3B1+KKKAP7yfh98Q/BXxU8I6d47+HusW2uaFqkfm2t5aPuRh0ZWHDJIhyro4DowKsAQQOzr+Hj4IftK/G39nTWH1f4R+KbvRRO4e6scifT7sgYzPayhoXbHAcrvUfdYV+nPhX/gtr8ZLCzih8ZfD/wAOazOi7Xnsbi604yEcBirtdAN3bGAT0CjigD+k6vzv/wCCiP7Yuifsz/CW+8O+H9QQ/EbxXaS2ui2kT/v7KGYGOTUpAP8AVrCN3k5/1kwAAKrIV/Jb4jf8Fnf2ifE1hPp3gDw94f8ABvnAgXoSTU76LngxtOy2+ccHfbv6jHb8ovGPjPxZ8QfEl94w8cavea7repSebdX1/M088rYwMsxJwoAVVGFVQAoAAFAHM0UUUAOR3jdZI2KspBVgcEEdCD61+6n/AARx0z4weOPiJ4i8ba34t8RzeCPCWnrZR6ZNqd02m3WqXoKxK0DSGGT7NAsjY2kozxtxkZ/Ezwh4S8R+PfFGleC/CFhNqmta1dRWVjZwDMk08zBVUdABk5LEgKMkkAE1/aV+yd+z1o37MXwO0D4Vaa0dxe26G81m9jBAvdVuQDcSjODtGFjjyMiKNAeQaAPo+iiigAr+AeaGW3leCdGjljYo6OCrKynBBB5BB4INf38V/Ct8cvCs/gb40+PfBtwhjfRPEur2GGz923u5UUjJOQygEHJyCDk0AeWUUUUAfrf/AMEc/ij4b8DftG6z4R8SXsVh/wAJpoTWOnPMQiS6hbTxzRwbiQA0kXm7B/EwCjLMAf6ja/gFR3jdZI2KspBVgcEEdCD619MW37Z/7WNnoUfhu1+LXi2KxiTy4wuqzidEC7Qq3G7zwAOgD8dsUAf2b+K/HfgnwLbQXnjXX9N0GG5lS3gfUbuK1E00rBEjj81l3uzMFVVySSABXV1/BXfeNfFeseJIfF2v6te6xrEE0c4vNRuJbqdnifeu6SRmc4bn71f3jaZqFvq2m2mq2mfIvYI7iLOM7JVDLnBIzg9iR70AfyP/APBUD4NXHwl/a18T6jDAY9I8dFfFFhIAdrSXpIvQT03i8WViOoV1J61+eNf14/8ABR/9lCT9pz4IPc+FbUTeOfBZm1PQlUZkvI2UfarAHPW4VFaPjmWNBkKzGv5EpoZbeV4J0aOWNijo4KsrKcEEHkEHgg0AR1qaHrWq+Gta0/xFoN1JY6npV1De2V1EcSQXNu4kikQ9mR1DA+orLooA/tB/Y0/az8IftY/Cqz8T6dNBa+KtNiit/EujK2JLO8wR5iKSWNtcFS8L5IxlCd6OB9d1/B58OviX4++Eniq18b/DXXbzw7rlnlYryyk2OUbG6N1OVkjbA3RuGRscg1+uvwx/4LXfFvQLKCw+KvgbSPFrRAI19p1y+jXMg7vIvl3UDP3wkcSnpgdaAP6TqK/DaH/gt/8ADprTfcfC7WkusN+7TUrd49wztHmGNTg8ZOzj0OOfLvGf/BcHxJcWrw/Dz4V2NhcY+S51rVpL6PJA629vBang5/5bc+1AH7ufFD4meDvg94C1r4k+Pb+PTtE0K1e5uJXIDPtHyRRqSN8srYSNBy7sFHJr+GHxZ4gn8WeKtZ8VXUYim1nULrUJIwdwR7qVpWUEgZwWxnFe3ftAftY/Hb9prUorv4seI5L2xtHMlnpFqgtdMtWII3R28fDPgkeZIXkwcb8cV840AFFFT2trc3tzFZWUUlxcXEixRRRKXkkkcgKqqASzMTgADJNAH7V/8ETPh/c6l8XvHvxNkiY2mheH4tHjcjCfadVuUm+U45ZY7NgcHgPz1Ff0lV8U/sB/s1yfsx/s76R4U1uFY/FOuSHXPEJGGMd7dIoW23DtbQqkRAJXzA7Lw3P2tQB//9T9/K+cfjr40uLKOLwhp0hjNzH5146nB8skhY/YNglvbA6E5+jq+EPizPJcfEHWGkz8kkaAHsqRoBj2OM1+DfSK4kxOVcKOlhJOMq81TbW6i1KUvv5eV+TZ+ieGOV0sZnHPWV1Ti5Jed0l917+qR51RWvoNtb3erQQXXMZ3sQejFFLBT7MQAfrXo721tJw8MZB4xsXGPTGMY9q/z1dK1JVG92191v8ANH9B47NI4aoqbjfS/wDX3HlVreXNlJ5ts5Q9/Q/Ud67jTvEVtdYiusQy+pPyH8e34/nTrvw3YXALQZgf/Z5X8j/TFcff6Re6eSZU3R9pF5X8fT8ayOdzweP0ekvx/wCCeo1XurWC8hMFwoZT+YPqD2Neeadrd3YEJnzYf7jHp/unt/Ku8sdStdQj3wN8w+8h4Zfw/rQeNisvrYWXOtu6/rQ4HVdIn02TP34WPyv/AEPof51t+H9ZOV0+6b2iY/8AoJ/p+VddLFHPG0Uyh0YYIPQ1xl34XnWXdYuChPRzhl/HHP8AOg9CnjqOKo+xxTs+jOtvLWO9tpLaTo44Poex/A15VPDJbTPBMNrocEV63EsixIsrbnCgMw7kDk1Bc2NneYNzEshHAJ6/mOaDjy7MfqzcZaxZy/hW5mZpbU5MSgOD2U5xj8f6V2dQW9tb2qeXbxrGvoo6/X1qeg48bXjWrOpFWTOK8R6VtY6hbrwf9aB2P97/ABrkK9jIDAqwyDwQehFefa3opsWNzbjNux6d0J7fT0P+SHvZRmSklQqvXp/kO0PWjZsLW5JMDHg/3Cf6etd+CCMjkGvHK7fw1qZkX+z5zllGYye4HVfw7e30oJzjLk08RTXr/mdbRRRQfMhRRXNeItTNrCLSE4llHzEdVT/E0G+Gw8q1RU4dTL17WzMWsrRv3Y4kcfxew9v5/TrylFbej6RJqMnmPlYEPzN6n0H+eKD7SEKODo9kvxLnh7SjcSC9nX91GfkB/iYf0H8/xrvaZHGkSLHGoVVGAB0Ap9B8fjcXLEVOd7dDlfFNxNHBFAmQkpbeR324wP1riI43ldY41LMxwAOpNeuTQQ3EZinQOh7MM1XttOsrRt9vCqN69T+Z5oPRwWbQoUPZ8uo3TbJbCzS3H3vvOfVj1/wrE1/WTbg2Vq2JT99h/CD2Huf0rqTnHFcTD4Zu5rhnvpVCliWKnLNn6jjP+RQYYGVGVWVfFS219WYmm6ZPqU2yP5UX77noB/U+1ejWVjb2EIht1x/eY9WPqTU1vbw2sSwwKERew/mfU1FeX1tYx+ZcvtHYdWP0FAsbj6mLnyQWnRFusHUdftLLMcX76X0U/KPqf6CuX1LXrq9zHFmGE/wg/Mfqf6VRstMvL9sW6fL3duFH4/4UHbhsnjCPtcW7Lt/mxl7f3V/JvuXzjoo4VfoKpV39n4Zs4QGuiZ39PuqPwHJrdS0tYxtjhjUegUf4U15nTPOsPS9yjG6XyR5HX0Z8CvGlxFfHwdfyF4J1aSy3HPlyKCzoP9lly3sQfWvEfEdtbW2plbYBQ6K7RqMBGYcjHQZ+8AOADir3gOaS38a6E8ZwTqNsh+kkiqf0Jr77w6z/ABWQcT4XFYaX24xkltKEmk0/k7q+0knujn4jwNHNMnqwqLeLkvJpXT/rdep+hFFFFf6kn8khRRRQAUUUUAfwx/tCf8l9+Jf/AGOGvf8ApfPXj9fob8bP2G/2tvEPxl8e6/ovwv1270/UvE+sXlpcRxxlJree8lkjkX5xwyMCPY15j/wwH+2T/wBEn8Qf9+o//jlAHyBRX1//AMMB/tk/9En8Qf8AfqP/AOOUf8MB/tk/9En8Qf8AfqP/AOOUAfIFFfX/APwwH+2T/wBEn8Qf9+o//jlH/DAf7ZP/AESfxB/36j/+OUAfIFFfX/8AwwH+2T/0SfxB/wB+o/8A45U9t/wT7/bMu50t4vhRrqs5wDKIIk9eXeVVH4kUAfHNFffWj/8ABMH9uDWHAX4cPZx7irS3mr6XCFIGfum78wg9AVUjP449/wDBv/BGP9pvW5UfxbrnhXw1bE4kDXVxfXQGeqxw2/lNx6zL298AH5DV6H8M/hN8SfjL4nh8HfC7w7feJNXnIxb2UW4RqTjfNISI4YweskrKg7kV/Rf8IP8AgjN8BvCEkOo/FjxBq3jy7jKs1pF/xKNNbHJDRwvJcsM8ZFwmR1HPH6p+APhr8P8A4V+H4vC3w38Pad4b0mLkWum26W6M3d32AF3Pd3JY9yaAPyq/Yr/4JVeGPg9e6f8AE74+SWnijxhastxY6PEPN0nS5RyjuXH+lXCHlWKiKNuVDsFkH7GUUUAFFFFABRRRQB/P9/wVk/Yk1O61C6/ao+FunvdJJGg8ZafbJl4vJQKmqIijlNihLrHK4WUggyuv4CV/fzJHHNG0Uqh0cFWVhlWU8EEHggivxA/a8/4JEaJ4zvbzx/8Asx3Fp4e1OctNc+FrwmLTJ3PJNlMAfsrHnETAwkkYaJRggH84tFezfFX9nj44fBC7e0+K3gnWPDqo/li6ubZmsZGzjEV5Fvtpef7kjV4zQAUUVs6D4c8QeKtTi0Xwvpl5rGoznEVpYW8l1cSHIHyxxKznkjoKAMaur8EeBvGHxJ8UWHgvwHpF1rmuanIIrWxs4zJLI3c4HCqo5ZmIVVBLEAE1+kH7Pv8AwSa/aO+LFxbap8R4E+Gvh1yGkk1VfN1WSP0isEYMjdj9oeEjrhuh/oU/Zr/ZE+Cv7LHh86X8NdJ3apdRqmo69fbZtTviMHDy7VEceQCIolSMEZ2lssQD+YP9rr9iLxf+yN4X+Heq+LNRi1G/8X2t6dTjtRm20+/tWjb7MknBk/czL8+AGdX2/KAT8OV/YN/wUh/Z+1n9ob9mXU9C8Iac2p+KvD99aa1ottEB508sTGGeFSSPv200hC5wzqvsR/Nx/wAMB/tk/wDRJ/EH/fqP/wCOUAfIFfQn7KHxTT4K/tH/AA9+JlxN9ns9I1u3XUJScbNPu82t6e3S2mk9vWu7/wCGA/2yf+iT+IP+/Uf/AMco/wCGA/2yf+iT+IP+/Uf/AMcoA/s7R0kRZI2DKwBVgcgg9CDTq+Vv2LNU+Kt7+zl4T0r41aDqGgeL/D1v/Yl9FqKBZbmOxAS3uQQzbxLb+XvYnJlD+mT9U0AFfkb/AMFg/gRf/En4B6Z8UvD9obnU/hxeS3N2sYy/9jX6ql0wABLeTLHBI3ZIxIx4Br9cqrXlnZ6jZz6fqEEd1a3UbwzwTIJIpYpAVdHRgVZWUkEEEEHBoA/gMor91P2wv+CRfiqw1vUPH/7LMUWp6PdO9xN4SmmWG8smb5mFjLMyxzQjnbE7rKowqmUnj8U/F3gjxn4A1iTw9460LUvD2qRffs9UtJbO4UevlzKjY9DjBoA5eiiigAr+l/8A4Im6/wDavgH458ME5bTfFxvR6hb6xtkA69M2xIGByTyc8fzt+Bvhd8SfidqC6X8OvC2seJrpn2eXpNjNeFT1O8xIwQAHJLYAHJIHNf0pf8Epv2Yfjp+zn4d8d3Xxi0mDQ4fFj6TNp1gbqKe8iayF2JWmWHeiCRZo9oMpYbSCinNAH631/O//AMFY/wBiXVLDXr39qf4Y2D3WmagFbxhY26FntLhFCjUVVf8AljKoAuMD5JB5pyJHKf0QVDcW9vd28tpdxJPBMjRyxSKHR0cYZWU5BBBwQeCKAP4CaK/on/a5/wCCQWn+J9QvPHv7Ltxa6Nd3DNNc+E75/KsGdsljYT4It8npBIPKBJ2yRqAlfht8UvgF8afgpfNYfFXwZrHhtlcxrPeWrfZJWBwfJuk3W8wz3jkYUAeQ0UUUAFFbvh3wv4m8X6nHovhLSL7W9RmOI7TTraS7uHJOPljiVnPPoK/Tr9nz/gkn+0R8U7i21b4opH8NvDrFHf8AtACfV5ozyRFZI37o9j9oeJlPOxulAH5t/D74eeNfip4u07wJ8PdHudc13VJPKtbO0Tc7HqzMeFSNBlndyERQWYgAkfVH7Yn7Fvif9kGz+Hv/AAkupx6rdeLtKuZr9rdf9GtdTtJR51vC5wzokM8HzsAWbeQACAv9SP7Of7KPwW/Zd8ONonwu0YRXtyipqGtXmJ9Uvypz++n2rhAeVijCRKeQu4kn5/8A+Cmn7O2v/tC/s4vaeB9Lk1bxb4X1S11XSrSAAz3KOTbXMCFiBgxS+aRnkwqOuKAP5E6K+v8A/hgP9sn/AKJP4g/79R//AByj/hgP9sn/AKJP4g/79R//ABygDB/Yt+K8PwU/ai+HfxAvpxbadbaullqUrH5EsNSRrO4dx3EcczSexUEcgV/a3X8YX/DAf7ZP/RJ/EH/fqP8A+OV/VX+yPrfxP1r9nzwhH8ZtDvtA8Z6VZLpWq2+oKFlnksf3Ud1kEhvtESpIxGAJGdQOKAPpKuW8beCvC3xG8Jar4F8badFq2ha3bPZ31nODslikHIyCGVgcFWUhlYBlIIBrqaKAP5EP24P2AvHv7KviC58S6BFc6/8ADS9nP2DWFXfLYeYRtttQCACNwTtSXAjm4I2uTGv55V/fdqemabrWnXOkazaQX9heRPBc2tzGs0E0Ug2skkbgq6sDgqQQR1r8b/2kf+CO3w08e3V14o+AGrL4F1SbdI2jXivc6LLITn92w3T2gOTkKJowAAkaCgD+aGivs34r/wDBPz9rf4QSSvr3w/1HV7CLJGo+Hl/te2KDPzkW2+aJeOfNjjI/EZ+Pb6wvtLu5dP1O2mtLqBtssE6NFKjdcMjAMD9RQBUooooAKKK9Z+HvwH+NPxYuI7f4beB9e8RCT/ltYafNLboD3knC+TGvbc7qM8ZoA8mr0z4R/B/4ifHPxxY/Dv4YaPNrOtX5JEceFihiX7808rYSKJB953IHQDLEA/qh8B/+CNPxg8WzW+rfHfW7TwNpZ2u+m2DpqWryDPKFkJtIMr0cSTkHgx1+9/wJ/Zy+EH7N/hY+E/hNoMWlQzFWvLxyZr6+kUYD3Nw3zuRzheETJ2KoOKAPLf2Mf2QfCH7Ivw0HhzT5I9U8U6v5dx4h1oIVN1cKDtihDfMttBuIjU4LEs7AMxA+w6KKACiiigDF8R+HNC8X6BqHhbxRYwanpGrW0tne2dygkhuLeZSrxup4IZTiv5QP27P+CffjP9l3Xrrxn4Ngudd+GF7OWtdQVTLPpJkPy21/gfKATtjn+5JwCVkO0/1s1T1DTtP1ewuNK1W2hvbK8ieC4triNZYZopAVdJEcFWVlJBUggjg0AfwH0V/Sx+0x/wAEePh547urvxX+z1qkfgjVp2aV9DvQ82iSuxyfJZA09nkknCiWMcKkaCvxe+LX7Cv7VfwYnm/4Sz4e6rd2ERb/AImeixHVrEov/LRpLTzDCp7ecsbeooA+SKKkmhlt5XgnRo5Y2KOjgqyspwQQeQQeCDUdABRRW94d8LeJ/GGpR6N4S0i/1u/lIEdrp1tLdzuTwAscSsxJ9hQBg1q6HoWteJ9YsvD3hyxuNT1TUZktrSztImmuJ5pDhI440BZmY8AAE1+j/wADf+CUn7UfxYnt77xhp0Xw50KTaz3Wvc3xQn5vL0+M+dvHXbOYAf71fv8AfstfsM/A/wDZTslvPCNg2seK5YzHdeJdTVZL5lYYeO3AGy1hbnKRjcwwJHfAIAPnL/gnX/wT7tP2bdMi+LHxRhiu/iZqlqUigyssOgW04+eGJhkNdSL8s8qnCqTFGSpdpP1XoooAKKKKACv5Yf8Agrr8CNR+HP7Rz/FWxtXHh74i28V2JkU+VFqlpGkF1CTyAzqiT8n5jI2PunH9T1eOfHf4E/Dz9oz4cah8MfiXZPc6XelZYpoGEd1ZXUYPl3NtIVYJLHk4yrKwJV1ZGZSAfwzUV+kH7Sf/AATD/aL+Bd/eap4V0qb4heEY2d4dT0SFpbyKEZI+1WK7p42CjLNGJYgBkuOg/OW4t7i0nktbuJ4ZomKSRyKUdGHBDKcEEdwaAIaKKKACv7jP2ZvEP/CV/s5/C7xIW3PqPg7Qp5ec4laxh8wZwudr5GQADjiv49PhZ+yr+0T8aZoF+G/w/wBb1W2uGUJftatbaeN3QteXHl24HfmTpX9en7J3w78Z/CX9nPwH8NviCbY6/wCHtLWyuxZytPCuyRzEqyMBuKxFFbA27gdvy4oA+h6/Dz/goz/wTXufiDd6j8e/2etN3+JZme68ReHIAB/abcs95Zr0+1nrLCP9efmT97kS/uHRQB/AXd2l1YXU1jfQyW1zbSNFNDKpSSORCVZHVgCrKQQQRkHg1Xr+xP8Aak/4J8/AX9qLz9e1izfwz4ydfl8R6QqpPKQMKLyA/urpRxy22UABVkUcV+Fnxo/4JL/tS/DKa5vfBdnafETRomJSfRpBDfeWM4MljOyvvP8AcgefGep5oA/L+iuw8X/D3x98P706d488N6v4cugxQw6tYz2Um4dtsyIc1x9ABRRRQAUV0Hhzwn4q8Y340rwjo2oa5etjFtptrLdzHPTCRKzdvSvvv4Of8Es/2tPircwTa14fj8B6RJhnvvEkn2eYL3C2Ue+6346CSONSf4hzgA/OeOOSaRYolZ3dgqqoyzMeAABySTX9E/8AwTV/4Jzan4H1DTv2h/j7pog1qJUuvDHh65U+bYOwDJfXiH7twAf3MLAmE/O2JQoT7I/ZX/4Ju/An9ma5tfFcscnjTxtb7WTXNVjUR2ko6tY2gLR259HZpZl52yAEg/oVQAUUUUAf/9X9/K+N/jpoE2neLRrKr/o+qRKwYDgSwqEdfrgK3vmvsivkj4+6/Jd6/a+Ho2/c2EQlces03PP0TGP941+C/SPpYKXBs5Yt+8qkHT/x6r7uRzP0XwunXWeRVHZxlzf4f/2uU8FjkeKRZYyVdCGUjqCOQa7vTPEUFwBFekRS/wB7ojf4H9P5VwQBYhVGSeABW2nh3VHjEnlgZ52swDfl2/Gv88ru3kf0NmFHDVIpV3Z9GejggjI5BoIDAgjIPBBrzVLjV9GYI2+Nf7rjKH6dvyrftPFML4W8jMZ/vJyv5dR+tI+erZRWiuel7y8iXUfDcE+ZbIiGTrt/gP8Ah/L2rj5Ir3TLgFw0MqnKn1+h6EV6hb3NvdJ5lvIsi/7J6fX0pZ7eG5jMU6B1PZhmgvDZrVpfu66uvPf+vUy9F1X+0oSJABNHjdjoQehFbVULLTbTTy5tlKl8ZySemcdfrV+g87FSpSqt0VaIUUUUHOFFFFABTJESVGjkAZWBBB6EGn0UAnbVHluq2B0+8aDqh+ZD6qf8OlU7eZ7aZJ4zho2DD8K7TxXCptYZ8fMkm38GBP8ASuFoPusBX9vh1Ke+zPYIZVniSZPuuoYfQjNSVj6BIZNKgJ6ruX8mOP0rYoPiq9P2dSUOzaEJCgseAOTXk99dNeXcty38bcD0A6D8q9J1VzHptyw6+Ww/PivK6D6DIKStKp12LlhZvf3SWycbj8x9FHU16nBBFbRLBCNqIMAVyPhOEZuLg9RtQfQ8n+ldnQcmd4lzrey6R/MKKKKDxQooooAKKKKAMvVtSXTbbzMbpHO1F7Z9T7CvPCb3VLnPzTSt6dh/ID9K9Ou7O2vYWhuYw4OMN/EhBByp7Zxg+x+hC21rb2ieXbRrGvt1P1PU1TSsrM9bBY+lhqT5Y3n3Ob07wzHHiW/PmN18sfdH1Pf+X1rqlVUUIgCqOAAMACmTTw26eZO6xr6scVzd34oto8raIZW/vH5V/wAT+lSZNYrGyvZv8l+h1Nc9qXiC2tAYrciab2Pyqfc9/oP0rlpb7V9XcxJuYH/lnGMKPr/9c0//AIRzVRHv8tcj+HcM/wCH60HfRyujSknipq/a5jzzy3MrTzsXdzlif8/pXpnwf0CXW/G1nNtJg00/a5W7Ap/qx9S+OPQH0rzB0aNijgqykggjBBHUGvYfghr8mk+MU01m/wBH1WMwuO3mIC8bfXgqP96vuvDSng6vFmXwzFv2bqxv6391PycrKXlc34plWhk2JeFXvKDt6W1t6K9vM+0aKKK/1OP5ECiiigAooooAKKKKACiiigAooooAKKKKACiiigAooooAKKKKACiiigAooooAKKKKAI5oYriJ4J0WSKRSjo4DKysMEEHggjgg14n4g/Zm/Zy8VyST+JPhb4N1KeUYae40Gxefn0lMPmDp1DCvcKKAPm/T/wBjv9lHS5/tFp8IPBXmcYMuhWc4GCCCBLE4ByOowa9v8OeEfCng+zOneEtF0/RLUkEwadaxWkRI6fJEqrxn0roaKACiiigAooooAKKKKACiiigAooooAKwvEHhfwz4tsDpfirSLHWbJjk22oW0d1CSePuSqy9Pat2igD5u1D9jr9lDVLj7Vd/CDwV5hGCYtDs4AeSckRRICxJ5JGT68Ct7RP2Yf2bfDckc+g/CrwXYTRKFWaDw/YJNheRmQQbycjOSSc17nRQBWs7Oz0+2jsrCCO2t4RtjhhQRxovoqqAAPoKs0UUAFFFFABUU8ENzC9vcxrLFICro6hlZT1BB4INS0UAeGa7+zD+zd4nkkn8QfCvwZfzyrtaefQLBp8deJfJ3j8GFYmm/se/sp6TP9psvhD4KEmQQ0uhWcxUqcgr5sT7SD3GDX0dRQBg+HvC3hjwlZDTfCmkWGi2Yxi30+2itYuOnyRKq8fSt6iigAooooAKKKKACiiigAooooAKKKKACud8Q+EPCfi23Fp4r0TTtagAIEWoWkV0mGBBG2VWHIJB9ia6KigD581T9kv9lvWd51H4ReB5HkYO8q+HrCOViPWRIVc/8AfXNZdr+xl+yXZzrcw/B/wWzpnAl0S0mTkEcpJGynr3BweetfS9FAHlfh/wCBfwS8JlG8K/D3wroxj+4dP0WytSuSTx5UK45JP1NeqUUUAFFFFABRRRQAUUUUAFFFFABRRRQBxnib4c/D3xqc+MvC+ja8cY/4men295wP+uyP6V5BffscfsnahIstx8H/AAShUbQINBsoFx15WKJAT7kZr6SooA+fdI/ZM/Zd0JlfS/hH4JhkRmZZToFjJKpYYOJHhZwCOMA45PrXtmjaDoXhyyGneHtOtNLtFJIgsoEt4gT1ISMKuT9K1qKACiiigAooooAKKKKACiiigArz/wAY/Cf4WfEM5+IHg3w/4mOAP+Jxpdrf8Kcgf6RG/Qjj0r0CigD5nH7GP7Ja3Iux8IPBm8SeZg6LamPdnOPLMezbn+HbtxxjHFej+Gfgf8FvBcyXHg7wB4X0GWMko+maNZ2bKTnODDChGcn869RooAKKKKACiiigAooooAr3Vpa39u9pfQx3EEow8UqB0YehVgQfxrx/V/2b/wBnjxBL9o174XeC9SlznfeeH9PnbJAGcyQMegA/CvaKKAPmE/sVfskMSx+EPg/k540i3A/ILXWaT+zD+zZoMiTaN8KPBNlLGFUSweHtPSXC4Iy4gDEggHJJOeete5UUAZ+maTpWiWaafo1lb2FrH9yC1iWGJe3CIAo4HpWhRRQAUUUUAFFFFAH/1v38r4g+NNtLB8Q9QlkGFuY7eVPdREiZ/wC+kNfb9eH/ABq8Dz+IdLi17S4zJe6arCSNRlpbc8nHqUOSB3BbvgH8U8feF8VnfCc44OLlOjJVeVbtRUoyS81GTdutrLU+88Oc3pYDOYuu7RmnC/a7TX4pL5nyNp9yLK/trxkEggmjlKno2xgcfjivVIZ4bmMTW7h0bkEf19D6jtXkFXbLULqwk3274B+8p5VvqP8AJr/Ob2jcOR9Hf79/yR/ReZZb9ZSnF2kj1SSOOVDHKodW6hhkGuVv/DEb5ksG2H/nmx+U/Q9RVyx8R2dyAlx+4k/2vuH6Ht+NdACGAZSCD0IrM+bjPE4OdtV+TPKWS+0ycFg8Eg6Hpn6HoR+leh6NdzX+nrdTgBhI0RI4yVCnOP8AgQrRkijlXZKiup7MMj9acqoihI1CKvAVQFA78AcDmrjy2fNv0/r0NcbmMcTTSlC0u4tFFFQeWFFFFABRRRQAUUUhIUFmOAOSTQByviuYC2hg7s5f8FGP61w1amr339oXrSqf3a/Kn+6O/wCJ5rORDI6xggFiBknA59TQfdZfQdHDxjLfdnpOgIU0mDPVtzfmxx+lbFVbZraOGOGGRGWNQoww6AYqfzI/7w/MUHxmIk51ZTtu2ylqqGTTblR18tj+XNeV167JPbBSssiAEYIZgODXlFxGsM8kSMHVWIDKcgjscig+gyCb5ZQa8zq/CcwzcW56kK4/DIP9K7OvKNOvGsbyO5HIU4YeqnrXqkciSossZ3KwBBHcGg4c7w7hX9p0l+Y+iiig8YKKKKACiiigAqlqVxJZ2E93EAWiUEA9PmYL+mau0EAqVYAqwwwIyCD2IPBHtV03G/v7FQklJOSurnlDNfanPzvnkPbrgfToB+ldLYeGOkmoN/2zU/zP+H5110UMMC7YUWNfRQFH6VITjk1B7GIzmpJclFcq/H/gEUMMNugigRUUdlGKWWWOCNppmCIgyzHoBWNfeILG0ykR8+QdkPy/i3T8s1xN/ql3qLDz2wgOVReFH+J9zTVupnhMqrV3zT0Xd7hq14l/qE11Gu1GIC9shFCgn3OMn3rq/hjay3fj3RY4c5W5Epx/diBdv0U1wdfVXwM8ET2EMni/Uoykl1H5VmjdRETlpMdt+AF9snoRX6X4UcNYvP8AivC06UfdhNVJvooxkpP0v8K82jbi7M6GWZNVcnq4uEV3bVl9278kfRVFFFf6eH8nhRRRQAUUUUAFFFFABRRRQAUUUUAFFFFABRRRQAUUUUAFFFFABRRRQAUUUUAFFFFABRRRQAUUUUAFFFFABRRRQAUUUUAFFFFABRRRQAUUUUAFFFFABRRRQAUUUUAFFFFABRRRQAUUUUAFFFFABRRRQAUUUUAFFFFABRRRQAUUUUAFFFFABRRRQAUUUUAFFFFABRRRQAUUUUAFFFFABRRRQAUUUUAFFFFABRRRQAUUUUAFFFFABRRRQAUUUUAFFFFABRRRQAUUUUAFFFFABRRRQAUUUUAFFFFABRRRQB//1/38ooooA8B+IfwYg1qSXWvCuy2vXJeW2Y7YZmPJZT/A57/wn25J+WNS0vUdHu3sNVtpLW4j+9HKpU49R6g9iOD2r9JaxNc8OaH4ktfset2cV1HztLjDpnujjDKfoRX84+I/0eMtzypPMMlkqGIlq1b93J92lrFvq43X927bP1DhfxMxWAjHDY5e0prZ/aS/VeT18+h+c1XLXULyyObaVlH93qp/A8V9E+JvgBMha58J3gkXr9muzhv+AyAYPsGA+teEa34Y8QeHJfK1uwmtDnAZ1zGx/wBlxlG/Amv4+4r8N+I+HZP+1MLJQX2170H/ANvK6Xo7PyP2rKuJcqzaFsNVTb+y9Jfc/wBLrzNO18VEYW8iz/tR/wCB/wAa6C21jTrrAjnUMf4X+U/r1/CvLqK+GOuvkuHnrH3X5HsnXkUV5HDd3Vv/AKiV4/ZWIH5VqReItUj+9IsgH99R/TBoPMqZDVXwST/D/M9Iorh4/FdwP9bAjf7rFf55qwPFqY5tjn2f/wCxoOSWUYtfZ/FHYUVx58Wpji2Of9//AOxqpN4qumGIYUT/AHiWP9KAjk+Kb+G3zR3TMqKWchQOSTwBXEa5rqzobOyOUPDv/eHoPb1Pf6dcC61G9vT/AKTKzD+70X8hxVKg9nA5NGlJVKru19wUV6H4C+HWreObpjETaWEWRLdsm5Q2OEQZG9vUZGByewPol3+zzrCE/YdXtph282N4vX+75ntX6DkvhXxXm+AWZ5dg5TottJ3ir26pNpteaTV7roc+P4vyfBYh4XE11Ga3Wrt6tJpPybufPFFe2S/ATxtHnZLYS4GfkmcZ9vmjWqn/AAo3x5/zytf+/wCP8KKnhRxhB2eW1flFv8gjxjkkldYqH3nj1Fe3R/APxq7YefT4x6tLIf5RGt20/Z41Nz/p+swRD/pjC0v/AKEY67sL4L8a4h8tPL5r/E4x/wDSpI563HWQ0leWJj8rv8kz50rpdE1sWQ+y3WTCT8rdShP9K634g/C/U/BJS8gdr7TXAU3ATaY39HUE4BP3TnHbr18tr4riDh3Mcjxs8uzSk6dWO6fbo01o0+jTaPXwuLwWbYRVsPLmg+q6P8012Z7DHIkqCSNgytyCDkGn15LbXt3ZnNtKyZ6gdD9QeK3ofFN4gxNHHJjuMqT/ADH6V4p5FfIq0X+7d19x3lFcePFqY5tiD7P/APY0HxYmOLY5/wB//wCxoOT+ycX/ACfiv8zsKK4h/Fk5/wBVbov+8xb+QFUJfEeqSfddY/8AdUf1zQbQyTEvdJfP/K56NWfcarp9rnzZ1yP4VO4/kM15rNe3dxxPM7j0LHH5dKq0HdSyBb1J/d/X6HaXXipRlbOEn/akOP0H+Nc1d6nfXuRcSkqf4Bwv5D+tUK19I0DWtfn+z6NZTXjjr5SEquf7zfdUfUit8Lha2Jqqhh4OU3skm2/RLVnpxw2EwkHUdkl1b/V7GRVqzsrzUbmOzsIZLieU7UjjUszH2A5r3/w18AdRuClx4pu1tI+pt7YiSUj0Ln5FP0D19EeHfCXh7wrAYNDs0t9ww8n3pX/3nbLEe2cDsK/f+Cvo58Q5tKNfNv8AZqP97Wo15Q6f9vNNdmfCZ94n5bg06eD/AHs/L4V6vr8r+qPEfh/8EhbPHq/jNVkdcNHYAhkB9ZSMhv8AdHHqT0r6QACgKowBwAO1LRX9qcG8D5RwvgvqWU07J/FJ6yk+8n18lol0SPwjPOIMbm1f2+MlfslsvJL+m+rCiiivrjxQooooAKKKKACiiigAooooAKKKKACiiigAooooAKKKKACiiigAooooAKKKKACiiigAooooAKKKKACiiigAooooAKKKKACiiigAooooAKKKKACiiigAooooAKKKKACiiigAooooAKKKKACiiigAooooAKKKKACiiigAooooAKKKKACiiigAooooAKKKKACiiigAooooAKKKKACiiigAooooAKKKKACiiigAooooAKKKKACiiigAooooAKKKKACiiigAooooAKKKKACiiigAooooAKKKKACiiigAooooA//Q/fyiiigAooooAKjliinjaGdFkjcYZHAZWB7EHgipKKUoqSs9hptO6PLtd+D3gfWy0iWjafM38dk3lj/vgho/yUV5DrH7PuswbpND1GC7XqEnUwv9ARvUn67a+r6K/LuIvBjhDOW54jBqE39qn7j9bR91v1TPrcs46zvApRp13KPaXvL8dV8mj4F1P4aeOtKJ+06Pcuq87rcC4GPX90W/XFcXPbz20hiuY3icdVdSrfkea/S6oLi1trtPKuokmT+7IoYfkc1+P5r9FTATbeW4+cPKcVP8YuH5M+2wfjBiY6YrDqX+Ftfg+b8z80qK/Qm58CeDLskz6JYEnqVt0Q/moBrJf4V/D+Ri7aNCCf7ryKPyDAV8XiPor58n+4xlJrz51+UZHu0/F/Lmv3lCa9OV/qj4Mor70j+Ffw/jbcujQk/7TSMPyLEVu2Pg/wAKaaQ9jpFlC69HWBN//fRG79arCfRWzyUrYnG0or+6py/BqP5ireL+AS/dUJt+dl+TZ8H6N4T8S+IWC6Np1xcg/wAaptjH1kbCD8TXvnhL4CBHS88YXAcDB+x2xOD7PJwfqF/76r6WAAGBwBS1+ucJfRu4cyupHEZlKWJmuklyw/8AAFe/pKTXkfF5z4pZni4unhUqUX21l9/T5JPzKtlZWmnWsdlYQpbwRDakcahVUewFWqKK/oWnThTgqdNWS0SWiS7I/NZSlJuUndsKKKKskKKKKAIp4IbmF7e5jWWKQFXR1DKynqCDwQa+evF/wHtLt3vvCM62kjZY2k5JiJ/2HwWX6HI9wK+iqK+S4t4GyXiXDrDZvQU7bS2lH/DJar02fVM9rJuIMflVX2uCqct91un6rb9ex+emt+CvFXh1mGraZcRInWVV3w/9/Eyv65rlq/TSsC+8KeGNSbff6TZXD/3pLdC3/fWM1/NedfRUg5ueU4+y6RqRv/5NFr/0g/UsB4wOyWNw+veL/R/5n51UV96SfCz4fytubRYAcY+VnUfkrAU1fhV8PlYMNGhyOeXkI/Itivk39FniS+mKo29Z/wDys9n/AIi9ldv4NT7o/wDyR8G1JHFLM4jhRpHboqgkn8BX6BW3gHwVaEGHQ7HI6F4EkI79WBrpLWysrFPLsreK3T+7EgQceygV7OB+injpNfXcwhFf3YOX5uJw4jxhw6X7jDN+skvyTPgnTPh3431fH2PRroKejzJ5Cn3DSlQfwr0rSP2f/EFyVfWb+2skPVYgZ5B7fwL+TGvraiv0nJPoy8LYRqeOnUrvs5csfuilL/yY+Wx/ivm9a8cPGNNeSu/x0/A8m0L4L+CNH2yXFu+pTLzvu23Jn/rmu1CPZg1epW9tbWcK29pEkESDCxxqEVR7AYAqeiv23IuFsoyan7LKsNCkv7sUm/V7v5tnwWYZvjcdLnxlWU35vb0Wy+QUUUV7x5wUUUUAFFFFABRRRQAUUUUAFFFFABRRRQAUUUUAFFFFABRRRQAUUUUAFFFFABRRRQAUUUUAFFFFABRRRQAUUUUAFFFFABRRRQAUUUUAFFFFABRRRQAUUUUAFFFFABRRRQAUUUUAFFFFABRRRQAUUUUAFFFFABRRRQAUUUUAFFFFABRRRQAUUUUAFFFFABRRRQAUUUUAFFFFABRRRQAUUUUAFFFFABRRRQAUUUUAFFFFABRRRQAUUUUAFFFFABRRRQAUUUUAFFFFABRRRQAUUUUAFFFFABRRRQAUUUUAFFFFABRRRQB//9H9/KKKKACiiigAooooAKKKKACiiigAooooAKKKKACiiigAooooAKKKKACiiigAooooAKKKKACiiigAooooAKKKKACiiigAooooAKKKKACiiigAooooAKKKKACiiigAooooAKKKKACiiigAooooAKKKKACiiigAooooAKKKKACiiigAooooAKKKKACiiigAooooAKKKKACiiigAooooAKKKKACiiigAooooAKKKKACiiigAooooAKKKKACiiigAooooAKKKKACiiigAooooAKKKKACiiigAooooAKKKKACiiigAooooAKKKKACiiigAooooAKKKKACiiigAooooAKKKKACiiigAooooAKKKKACiiigAooooAKKKKACiiigAooooAKKKKACiiigAooooA//Z;" vertex="1" parent="xsLZkG5AdHQJMk4DCyu0-20">
          <mxGeometry x="467.5" y="24.0625" width="233.75" height="58.4375" as="geometry" />
        </mxCell>
        <mxCell id="xsLZkG5AdHQJMk4DCyu0-7" value="" style="shape=image;verticalLabelPosition=bottom;labelBackgroundColor=default;verticalAlign=top;aspect=fixed;imageAspect=0;image=data:image/png,iVBORw0KGgoAAAANSUhEUgAAB9AAAAfQCAYAAACaOMR5AAAACXBIWXMAAAsTAAALEwEAmpwYAAAgAElEQVR4nOzdS49c953e8adEiWxbbXZ3ZIg3S7zJQIAAJgMLGqAJyLMxoYUAcfwGQkCAVlrIC+0MY3azdd7BAFnNzlnZmGShIGM7CAKMlclk0xnaDdKSaUo9Yjeri1XVp04WlMFm8daXqvqfqvp8AC7UZFc9+6/O77Tqus4enEty7es/l5Ms7eWXAAAAAAAAAKCQu0l+m+TnX//5/fN+ofWcgH45yc+S/GAE4wAAAAAAAACglP+W5KM8iOpP9MJTfr6cB+H8HyOeAwAAAAAAADD9fpAHDfxnedDEH/OkJ9CXk3yS5NI4lwEAAAAAAABAIZ8m+cskX+3+4fAT6OI5AAAAAAAAALPuUh608UeeRN8d0MVzAAAAAAAAAObFYxF9d0D/64jnAAAAAAAAAMyPS3nQypM8fAf65Tx4WToAAAAAAAAAzJt/n+S3f34C/WcllwAAAAAAAABAQT9LHjyBfi7J78puAQAAAAAAAICizr+Q5FrpFQAAAAAAAABQ2DUBHQAAAAAAAACSa626rr9KslR6CQAAAAAAAAAUdLdV13VdegUAAAAAAAAAlPZC6QEAAAAAAAAA0AQCOgAAAAAAAABEQAcAAAAAAACAJAI6AAAAAAAAACQR0AEAAAAAAAAgiYAOAAAAAAAAAEkEdAAAAAAAAABIIqADAAAAAAAAQBIBHQAAAAAAAACSCOgAAAAAAAAAkERABwAAAAAAAIAkAjoAAAAAAAAAJBHQAQAAAAAAACCJgA4AAAAAAAAASQR0AAAAAAAAAEgioAMAAAAAAABAEgEdAAAAAAAAAJII6AAAAAAAAACQREAHAAAAAAAAgCQCOgAAAAAAAAAkEdABAAAAAAAAIImADgAAAAAAAABJBHQAAAAAAAAASCKgAwAAAAAAAEASAR0AAAAAAAAAkgjoAAAAAAAAAJBEQAcAAAAAAACAJAI6AAAAAAAAACQR0AEAAAAAAAAgiYAOAAAAAAAAAEkEdAAAAAAAAABIIqADAAAAAAAAQBIBHQAAAAAAAACSCOgAAAAAAAAAkERABwAAAAAAAIAkAjoAAAAAAAAAJBHQAQAAAAAAACCJgA4AAAAAAAAASQR0AAAAAAAAAEgioAMAAAAAAABAEgEdAAAAAAAAAJII6AAAAAAAAACQREAHAAAAAAAAgCQCOgAAAAAAAAAkEdABAAAAAAAAIImADgAAAAAAAABJBHQAAAAAAAAASCKgAwAAAAAAAEASAR0AAAAAAAAAkgjoAAAAAAAAAJBEQAcAAAAAAACAJAI6AAAAAAAAACQR0AEAAAAAAAAgiYAOAAAAAAAAAEkEdAAAAAAAAABIIqADAAAAAAAAQBIBHQAAAAAAAACSCOgAAAAAAAAAkERABwAAAAAAAIAkAjoAAAAAAAAAJBHQAQAAAAAAACCJgA4AAAAAAAAASQR0AAAAAAAAAEgioAMAAAAAAABAEgEdAAAAAAAAAJII6AAAAAAAAACQREAHAAAAAAAAgCQCOgAAAAAAAAAkEdABAAAAAAAAIImADgAAAAAAAABJBHQAAAAAAAAASCKgAwAAAAAAAEASAR0AAAAAAAAAkgjoAAAAAAAAAJBEQAcAAAAAAACAJAI6AAAAAAAAACQR0AEAAAAAAAAgiYAOAAAAAAAAAEkEdAAAAAAAAABIIqADAAAAAAAAQBIBHQAAAAAAAACSCOgAAAAAAAAAkERABwAAAAAAAIAkAjoAAAAAAAAAJBHQAQAAAAAAACCJgA4AAAAAAAAASQR0AAAAAAAAAEgioAMAAAAAAABAEgEdAAAAAAAAAJII6AAAAAAAAACQREAHAAAAAAAAgCQCOgAAAAAAAAAkEdABAAAAAAAAIImADgAAAAAAAABJBHQAAAAAAAAASCKgAwAAAAAAAEASAR0AAAAAAAAAkgjoAAAAAAAAAJBEQAcAAAAAAACAJAI6AAAAAAAAACQR0AEAAAAAAAAgiYAOAAAAAAAAAEkEdAAAAAAAAABIIqADAAAAAAAAQBIBHQAAAAAAAACSCOgAAAAAAAAAkERABwAAAAAAAIAkAjoAAAAAAAAAJBHQAQAAAAAAACCJgA4AAAAAAAAASQR0AAAAAAAAAEgioAMAAAAAAABAEgEdAAAAAAAAAJII6AAAAAAAAACQREAHAAAAAAAAgCQCOgAAAAAAAAAkEdABAAAAAAAAIImADgAAAAAAAABJBHQAAAAAAAAASCKgAwAAAAAAAEASAR0AAAAAAAAAkgjoAAAAAAAAAJBEQAcAAAAAAACAJAI6AAAAAAAAACQR0AEAAAAAAAAgiYAOAAAAAAAAAEkEdAAAAAAAAABIIqADAAAAAAAAQBIBHQAAAAAAAACSCOgAAAAAAAAAkERABwAAAAAAAIAkAjoAAAAAAAAAJBHQAQAAAAAAACCJgA4AAAAAAAAASQR0AAAAAAAAAEgioAMAAAAAAABAEgEdAAAAAAAAAJII6AAAAAAAAACQREAHAAAAAAAAgCQCOgAAAAAAAAAkEdABAAAAAAAAIImADgAAAAAAAABJBHQAAAAAAAAASCKgAwAAAAAAAEASAR0AAAAAAAAAkgjoAAAAAAAAAJBEQAcAAAAAAACAJAI6AAAAAAAAACQR0AEAAAAAAAAgiYAOAAAAAAAAAEkEdAAAAAAAAABIIqADAAAAAAAAQBIBHQAAAAAAAACSCOgAAAAAAAAAkERABwAAAAAAAIAkAjoAAAAAAAAAJBHQAQAAAAAAACCJgA4AAAAAAAAASQR0AAAAAAAAAEgioAMAAAAAAABAEgEdAAAAAAAAAJII6AAAAAAAAACQREAHAAAAAAAAgCQCOgAAAAAAAAAkEdABAAAAAAAAIImADgAAAAAAAABJBHQAAAAAAAAASCKgAwAAAAAAAEASAR0AAAAAAAAAkgjoAAAAAAAAAJBEQAcAAAAAAACAJAI6AAAAAAAAACQR0AEAAAAAAAAgiYAOAAAAAAAAAEkEdAAAAAAAAABIIqADAAAAAAAAQBIBHQAAAAAAAACSCOgAAAAAAAAAkERABwAAAAAAAIAkAjoAAAAAAAAAJBHQAQAAAAAAACCJgA4AAAAAAAAASQR0AAAAAAAAAEgioAMAAAAAAABAEgEdAAAAAAAAAJII6AAAAAAAAACQREAHAAAAAAAAgCQCOgAAAAAAAAAkEdABAAAAAAAAIImADgAAAAAAAABJBHQAAAAAAAAASCKgAwAAAAAAAEASAR0AAAAAAAAAkgjoAAAAAAAAAJBEQAcAAAAAAACAJAI6AAAAAAAAACQR0AEAAAAAAAAgiYAOAAAAAAAAAEkEdAAAAAAAAABIIqADAAAAAAAAQBIBHQAAAAAAAACSCOgAAAAAAAAAkERABwAAAAAAAIAkAjoAAAAAAAAAJBHQAQAAAAAAACCJgA4AAAAAAAAASQR0AAAAAAAAAEgioAMAAAAAAABAEgEdAAAAAAAAAJII6AAAAAAAAACQREAHAAAAAAAAgCQCOgAAAAAAAAAkEdABAAAAAAAAIImADgAAAAAAAABJBHQAAAAAAAAASCKgAwAAAAAAAEASAR0AAAAAAAAAkgjoAAAAAAAAAJBEQAcAAAAAAACAJAI6AAAAAAAAACQR0AEAAAAAAAAgiYAOAAAAAAAAAEkEdAAAAAAAAABIIqADAAAAAAAAQBIBHQAAAAAAAACSCOgAAAAAAAAAkERABwAAAAAAAIAkAjoAAAAAAAAAJBHQAQAAAAAAACCJgA4AAAAAAAAASQR0AAAAAAAAAEgioAMAAAAAAABAEgEdAAAAAAAAAJII6AAAAAAAAACQREAHAAAAAAAAgCQCOgAAAAAAAAAkEdABAAAAAAAAIImADgAAAAAAAABJBHQAAAAAAAAASCKgAwAAAAAAAEASAR0AAAAAAAAAkgjoAAAAAAAAAJBEQAcAAAAAAACAJAI6AAAAAAAAACQR0AEAAAAAAAAgiYAOAAAAAAAAAEkEdAAAAAAAAABIIqADAAAAAAAAQBIBHQAAAAAAAACSCOgAAAAAAAAAkERABwAAAAAAAIAkAjoAAAAAAAAAJBHQAQAAAAAAACCJgA4AAAAAAAAASQR0AAAAAAAAAEgioAMAAAAAAABAEgEdAAAAAAAAAJII6AAAAAAAAACQREAHAAAAAAAAgCQCOgAAAAAAAAAkEdABAAAAAAAAIImADgAAAAAAAABJBHQAAAAAAAAASCKgAwAAAAAAAEASAR0AAAAAAAAAkgjoAAAAAAAAAJBEQAcAAAAAAACAJAI6AAAAAAAAACQR0AEAAAAAAAAgiYAOAAAAAAAAAEkEdAAAAAAAAABIIqADAAAAAAAAQBIBHQAAAAAAAACSCOgAAAAAAAAAkERABwAAAAAAAIAkAjoAAAAAAAAAJBHQAQAAAAAAACCJgA4AAAAAAAAASQR0AAAAAAAAAEgioAMAAAAAAABAEgEdAAAAAAAAAJII6AAAAAAAAACQREAHAAAAAAAAgCQCOgAAAAAAAAAkEdABAAAAAAAAIEnyYukBAEAh975K/uW3pVcATXPpL0svAABG4O7m/8pW+59KzwAa4tv/5moWjp0pPQMApoKADgDz7K+vJe27pVcATfKffpecOFd6BQBwSJ/e/I95uf0/843WkdJTgMKqPAjoAMDeOOEOAPNqcTlZvVZ6BdA0v/p56QUAwAjc3PgvWe/fS5W69BSgsOroKU+fA8A+COgAMM+uCOjAkL//29ILAIBDuvnlL5IknUGVtd6miA5zbmnlndITAGCqCOgAMM9WryUvL5VeATTJjU+T278vvQIAOIRbXwf05EFEv9G7V3ANUFKV5PzrH5eeAQBTRUAHgHl39XrpBUDTfPpJ6QUAwCHc/PKXj/z3vUE/6/12oTVASfXCG6UnAMDUEdABYN4J6MCwX3sPOgBMq5tf/iL9nc3Hfr5RdfOHne0Ci4CSTp7+oPQEAJg6AjoAzLuLl5MTZ0uvAJrk1/85ufdV6RUAwAHsPt8+7E8797NRdSe4Biipn1ZefeXd0jMAYOoI6ADAg3ehA+zmKXQAmErD59uHrffbIjrMidbCxdITAGAqCegAQPKjj0ovAJpGQAeAqfO08+3Dbu1sp1NXE1gElHT27E9LTwCAqSSgAwDJiXPJhUulVwBN4ow7AEydZ51v362q66z1NkV0mGG91ktZOv5m6RkAMJUEdADggavXSy8AmsZT6AAwVZ53vn23qq5zo7eVKvUYFwGlHDu+WnoCAEwtAR0AeOCK96ADQwR0AJgaez3fvluvHmSttymiwww6ffL90hMAYGoJ6ADAAyfOJavvlV4BNIkz7gAwNfZ6vn1YZ1Blrbe/8A40W/fIivPtAHAIAjoA8NCqp9CBIZ5CB4CpsJ/z7cM6gyrr/fYI1wAlLS6/XXoCAEw1AR0AeEhAB4YJ6ADQeAc53z5so+qK6DAjXjvzYekJADDVBHQA4KHFZWfcgUc54w4AjXfQ8+3DNqpuNqruSD4LKKN7ZCULx86UngEAU01ABwAedfV66QVA03gKHQAa7TDn24et99siOkyx5W+7LAcAhyWgAwCPWr2WvLxUegXQJAI6ADTWKM63D1vvt9Opq5F+JjB+VZLzr39cegYATD0BHQB4nHehA7s54w4AjTWq8+3D1nqbIjpMmeroqdITAGAmCOgAwOOuCOjAEE+hA0AjjfJ8+25VXWett5lePRjL5wOjt7TyTukJADATBHQA4HGr15ITZ0uvAJpEQAeAxhnH+fbdqrrOjf5WqtRj+w5gNPppOd8OACMioAMAT+aMO7Dbp5+UXgAADBnX+fbdOoMqa71NER0arrVwsfQEAJgZAjoA8GRXr5deADRJ+66n0AGgYcZ1vn1YZ1DlVn97It8FHMzJ0x+UngAAM0NABwCe7OJlZ9yBR/1KQAeAphj3+fZhG1U36/32xL4P2Lt+Wnn1lXdLzwCAmSGgAwBP91cflV4ANIkn0AGgMSZxvn3YRtXNner+xL8XeLajS2+XngAAM0VABwCe7or3oAO7OOMOAI0xqfPtw271t7NRdYt8N/Bkp0++X3oCAMwUAR0AeLoT55ILl0qvAJrEGXcAKG7S59uHrffbuTfYKfb9wEO91ktZOv5m6RkAMFMEdADg2a5eL70AaBJPoANAcSXOtw+70d9Kp65Kz4C5d+z4aukJADBzBHQA4NkEdGA3Z9wBoLjbX/269IRUdZ213qaIDoWdP/uT0hMAYOYI6ADAsy0uJ6vvlV4BNIkz7gBQzL+2/0/a3VulZyR5ENHX+/dSpS49BeZS98hKFo6dKT0DAGaOgA4APN/qtdILgCbxBDoAFHPj9t+VnvCIzqDKWm9TRIcCFpffLj0BAGaSgA4APN/qteTlpdIrgKZwxh0Airn5Rfn3nw/rDKqs99ulZ8BcqZK8dubD0jMAYCYJ6ADA8y0uewodeJQz7gAwcU063z7sbtUT0WGCqqOnnG8HgDER0AGAvbkioAO7eAIdACauaefbh21U3fxxp1N6BsyFpZV3Sk8AgJkloAMAe+OMO7CbM+4AMHFNPN8+7POdTjaqbukZMNOqJOdf/7j0DACYWQI6ALB3zrgDuznjDgAT0+Tz7cPW++3cHfRKz4CZVR09VXoCAMw0AR0A2LsffVR6AdAknkAHgIlp+vn2Yev9djp1VXoGzKTT3/lx6QkAMNMEdABg7y5eTk6cLb0CaIr23eTTT0qvAIC5MA3n23er6jprvU0RHUasn1ZefeXd0jMAYKYJ6ADA/jjjDuzmKXQAGLtpOt++W1XXudHbSpW69BSYGa2Fi6UnAMDME9ABgP1xxh3YTUAHgLGbtvPtu/XqQdZ6myI6jMjZsz8tPQEAZp6ADgDsz4lzyYVLpVcATXF7PfmX35ZeAQAzbdrOtw/rDKrc6N0rPQOmXq/1UpaOv1l6BgDMPAEdANi/q9dLLwCa5O//tvQCAJhZ03q+fdi9QT/r/XbpGTDVjh1fLT0BAOaCgA4A7N8V70EHdnHGHQDGZprPtw/bqLr5w8526RkwtU6ffL/0BACYCwI6ALB/J84l3/tB6RVAUzjjDgBjM+3n24f9aed+Nqpu6RkwdbovfNP5dgCYEAEdADgYZ9yB3ZxxB4CRm5Xz7cPW+20RHfZpceWHpScAwNwQ0AGAg1l1xh3YxRl3ABi5WTrfPmy9306nrkrPgKnx2pkPS08AgLkhoAMAB7O4nKy+V3oF0BTOuAPAyM3a+fZha71NER32oHtkJQvHzpSeAQBzQ0AHAA7OGXdgN2fcAWBkZvV8+25VXWett5kqdekp0GjL33YBDgAmSUAHAA5u9Vry8lLpFUBTOOMOACMzy+fbdxPR4dmqJOdf/7j0DACYKwI6AHA43oUO/Jkz7gAwMrN+vn23zqDKWm+z9AxopOroqdITAGDuCOgAwOFcEdCBXZxxB4BDm4fz7cM6gyrr/XbpGdA4SyvvlJ4AAHNHQAcADmf1WnLibOkVQFM44w4AhzYv59uHbVRdER126aflfDsAFCCgAwCH54w78GfOuAPAoc3T+fZhG1U3G1W39AxohNbCxdITAGAuCegAwOFdvV56AdAkzrgDwIHN4/n2Yev9togOSU6e/qD0BACYSwI6AHB4Fy874w489OknpRcAwNS6+cUvS09ohPV+O/cGO6VnQDH9tPLqK++WngEAc0lABwBG468+Kr0AaIobnya3f196BQBMpVtfzu/59mE3+lvp1FXpGVDE0aW3S08AgLkloAMAo3HFe9CBXX7189ILAGDqtO/fzL+2/7n0jMao6jprvc306kHpKTBxp0++X3oCAMwtAR0AGI0T55ILl0qvAJrCe9ABYN9uevr8MVVd50Z/K1Xq0lNgYnqtl7J0/M3SMwBgbgnoAMDoXL1eegHQFM64A8C+3bj9d6UnNFJnUGWttymiMzeOHV8tPQEA5pqADgCMjoAO7OaMOwDsmfPtz9YZVLnV3y49Aybi/NmflJ4AAHNNQAcARmdxOVl9r/QKoCmccQeAPXO+/fk2qm7W++3SM2CsukdWsnDsTOkZADDXBHQAYLRWr5VeADREdeOfU/3u/5aeAQBTwfn2vdmourlT3S89A8Zmcfnt0hMAYO4J6ADAaK1eS15eKr0CaIDb317N3U+dogWA53G+fX9u9bezUXVLz4CRq5K8dubD0jMAYO4J6ADAaC0uewodyHZrOXe/Su7+11+WngIAjed8+/6t99u5O+iVngEjVR095Xw7ADSAgA4AjN4VAR3m3WfH30qS3L/x/9K//cfCawCg2ZxvP5j1fjuduio9A0ZmaeWd0hMAgAjoAMA4OOMOc+3Oty6l3374btKt3/z3gmsAoNmcbz+4qq6z1tsU0ZkJVZLzr39cegYAEAEdABgXZ9xhLvVbC/mi8+j/QOOMOwA8nfPth1PVddb791KlLj0FDqU6eqr0BADgawI6ADAeP/qo9AKggM+WVx/7mTPuAPB0zrcfXmdQZa23KaIz1U5/58elJwAAXxPQAYDxuHg5OXG29ApggjYW3sj21s4T/84ZdwB4nPPto9MZVFnvt0vPgAPpp5VXX3m39AwA4GsCOgAwPs64w9yo8mLuHDn31L93xh0AHud8+2jdrXoiOlOptXCx9AQAYBcBHQAYH2fcYW58vrKaQbf31L93xh0AHud8++htVN38YWe79AzYl7Nnf1p6AgCwi4AOAIzPiXPJhUulVwBjtt1aztbW8/+dM+4A8JDz7ePzp5372ai6pWfAnvRaL2Xp+JulZwAAuwjoAMB4Xb1eegEwRlVezGfH39rTv3XGHQAecr59vNb7bRGdqXDs+GrpCQDAEAEdABivK96DDrNs41v/Lv32/T39W2fcAeAh59vH79bOdjp1VXoGPNPpk++XngAADBHQAYDxOnEu+d4PSq8AxuB+azFfdJb29TvOuAOA8+2TUtV11nqbIjqN1X3hm863A0ADCegAwPg54w4z6fOVK/v+ne3//dsxLAGA6eJ8++RUdZ0bva1UqUtPgccsrvyw9AQA4AkEdABg/FadcYdZs7HwRu5vdvb9e1v/4x9Ste+NYREATA/n2yerVw+y1tsU0Wmc1858WHoCAPAEAjoAMH6Ly8nqe6VXACPSby3kzpHzB/79e792xh2A+eV8exmdQZUbPf8TH83RPbKShWNnSs8AAJ5AQAcAJsNT6DAzbi+/lUG3e+Df3/rNP4xwDQBMF+fby7k36Ge93y49A5Iki8tvl54AADyFgA4ATMbV68nLS6VXAIe09Y3Xs7V1yM9wxh2AOeZ8e1kbVVdEp7gqyXcv/E3pGQDAUwjoAMDkeAodplqVF3P76L8dyWc54w7APHK+vRk2qm42qoNf04HDqo6eKj0BAHgGAR0AmJwrAjpMsy9Wvp9++/5IPssZdwDm0e27vy49ga+t99siOsUsrbxTegIA8AwCOgAwOavXkhNnS68ADmC7tZyNrWMj+zxn3AGYR95/3izr/XY6dVV6BnOmn1bOv/5x6RkAwDMI6ADAZDnjDlPp9spfjPwznXEHYJ70du7m1pe/LD2DIWu9TRGdiWotXCw9AQB4DgEdAJisq9dLLwD26c63LuX+Zmfkn+uMOwDzRDxvpqqus9bbTJW69BTmxMnTH5SeAAA8h4AOAEzWxcvOuMMU6bcWsjF4dSyf7Yw7APPE+fbmEtGZlH5aefWVd0vPAACeQ0AHACbPU+gwNT5bXs2g2x3b5zvjDsA8cL69+TqDSkRn7I68fLn0BABgDwR0AGDyBHSYCncXzmd7a2es3+GMOwDzQDyfDp1BlVv97dIzmGGvfefHpScAAHsgoAMAk3fiXHLhUukVwDNUeTF/fOHC2L/HGXcA5oHz7dNjo+pmvd8uPYMZ1Gu9lKXjb5aeAQDsgYAOAJThKXRotNvfXs2g15/IdznjDsAsc759+mxU3dyp7peewYw5dny19AQAYI8EdACgDAEdGmu7tZy7X03u+5xxB2CWiefT6VZ/OxtVt/QMZsj5sz8pPQEA2CMBHQAoY3E5WX2v9ArgCT47/tZEv88ZdwBmmfPt02u93869wU7pGcyA7pGVLBw7U3oGALBHAjoAUM7qtdILgCF3vnUp/fbkT5Y64w7ALHK+ffrd6G+lU1elZzDlFpffLj0BANgHAR0AKEdAh0a531rMF52lIt/tjDsAs0g8n35VXWett5lePSg9hSn22pkPS08AAPZBQAcAyllcTn74H0qvAL52+5XVYt/tjDsAs8j59tlQ1XVu9LdSpS49hSnUO3rK+XYAmDICOgBQ1hVPoUMTbCy8ke2vJn+6fTdn3AGYJc63z5bOoMpab1NEZ9+WVt4pPQEA2CcBHQAoa/Va8nKZk9HAA1VezJ0j50rPcMYdgJkins+ezqDKer9degZTpEpy/vWPS88AAPZJQAcAyvMudCjq85XVDLq90jOccQdgpjjfPpvuVj0RnT2rjp4qPQEAOAABHQAo70cflV4Ac2u7tZytrdIrHnLGHYBZ4Hz7bNuouvnjTqf0DKbA6e/8uPQEAOAABHQAoLyLl5MTZ0uvgLlT5cV8dvyt0jMe4Yw7ALNAPJ99n+90slF1S8+gwfpp5dVX3i09AwA4AAEdAGgGZ9xh4r5Y+X767fulZzyi/U//WHoCABya8+3zYb3fzt1B+dfg0EythYulJwAABySgAwDNcPV66QUwV+63FrOxdaz0jMcM2u1s/cYZdwCml/Pt82W9306nrkrPoIFOnv6g9AQA4IAEdACgGS5eTi5cKr0C5sbnK1dKT3gqZ9wBmGbi+Xyp6jprvU0RnUf0Wi853w4AU0xABwCaw1PoMBEbC2/k/man9Iyn8gQ6ANPM+fb5U9V11vv3UqUuPYWGOHZ8tfQEAOAQBHQAoDmueA86jFu/tZA7R86XnvFMzrgDMK2cb59fnUGVtd6miE6S5PTJ90tPAAAOQUAHAJrjxLnkez8ovSShiXYAACAASURBVAJm2u3ltzLodkvPeC5n3AGYRuL5fOsMqtzo3Ss9g8K6L3wzS8ffLD0DADgEAR0AaBZn3GFstr7xera2Sq/YG0+gAzCNnG/n3qCf9X679AwKWlz5YekJAMAhCegAQLOsOuMO41DlxXzW+m7pGXvmjDsA08gT6CTJRtXNH3a2S8+gkNfOfFh6AgBwSAI6ANAsi8vJ6nulV8DM+WLl+xn0+qVn7Isz7gBME0+fs9ufdu5no2r+a3MYre6RlSwcO1N6BgBwSAI6ANA8nkKHkdpuLWdj61jpGfvmCXQApsktAZ0h6/22iD5nFpffLj0BABgBAR0AaJ6r15OXl0qvgJlxe+UvSk84EGfcAZgmN51v5wlu7WynU1elZzABVZLvXvib0jMAgBEQ0AGAZvIUOozEnW9dyv3NTukZB+aMOwDT4OaXv0h/Z7P0DBqoquus9TZF9DlQHT1VegIAMCICOgDQTP+fvbuLsfO+88P+O3NmhmeGM5xDzXiGkkhZlF9Ek64lQYJeRrtKI3U1jOLGrrwmvGgcO7DhboEtsNvWFw7SvSgK5CIwfNNcBHARF70ItikMJ0DXRrNygciwjGi7duzNrmN6adOkSJEiRxwO5+289sKmPRrxZV7OOf/n5fO5WovSOV8YCxjP+er3fZ5VoMNeNSu1WOzMpo6xJy7QAcgD8+3cyc0SvR3d1FHoo6mDJ1NHAAB6RIEOAGTT/Mcj5t6bOgXk2oX6fHQ28v3eTTPuAOSB+XbuRolebM2oxNEHvpg6BgDQIwp0ACC7zLjDri3Vjsbqcit1jJ4w4w5AlplvZ7vWOu043fD/K0VUqb0vdQQAoIcU6ABAdr342dQJIJfaMRxvDj2UOkbPuEAHIMvMt7MTa512nG2upI5Bjx267wupIwAAPaRABwCy632PmnGHXbg0Mx+dRjN1jJ4x4w5AlplvZ6cW2xtK9AJpRiVmpz+aOgYA0EMKdAAg21yhw46sVuqxdC11it4z4w5AFplvZ7cW2xux2N5IHYMeqO5/NHUEAKDHFOgAQLYp0GHb2jEcFw48mTpGX7hAByCLzLezF2ebK0r0Ajhy+I9SRwAAekyBDgBk29yDEQ89kjoF5MLi5IlorqynjtEXZtwByCLz7ezV2eZKrHXbqWOwS43KSEwdeCJ1DACgxxToAED2uUKHu1qvTMSVtanUMfrKjDsAWWK+nV453biuRM+pfQfmU0cAAPpAgQ4AZJ8CHe7q0nTxf7xzgQ5Alphvp1fa3W6cblyPRreTOgo7dPS9/zh1BACgDxToAED2TdQj5j+WOgVk1mLt/bF6rZjT7ZuZcQcgS8y300vtbjfONJejHd3UUdimjerBqO27P3UMAKAPFOgAQD7Mfzx1AsikdgzHW9UHU8cYGDPuAGSB+Xb6Ya3TjtON60r0nJioP5c6AgDQJwp0ACAfFOhwSxcPzkdno5E6xsC4QAcgC8y30y9rnXacb66mjsE2HLn/D1JHAAD6RIEOAOTDRD3idz6TOgVkyvLYA7G8nDrFYHVWVmL9zE9TxwCg5My300+L7Y0421xJHYM7aIzea74dAApMgQ4A5MezrtDhpnYMx6XRY6ljJLH0b139AZCO+XYGYbG9EW+111PH4DamDp5MHQEA6CMFOgCQH/Mfj9g/lToFZMKVg49Hc6WcP6qacQcgJfPtDMr55mostjdSx2CLdkQcfeCLqWMAAH2kQAcA8sW70CHWKxOxuLwvdYxkmpcvmXEHIBnz7QzS2eZK3Oi0Usdgk/bovakjAAB9pkAHAPLl5T9MnQCSu3jw2dQRkjPjDkAK5ttJ4UxzOda67dQx+JX7Dv9R6ggAQJ8p0AGAfHnfoxFz702dApJZrL0/1q+vpY6RnBl3AFIw304K7W43TjeuK9EzoBmVmJ3+aOoYAECfKdABgPwx405JNSu1eKt6NHWMTDDjDkAK5ttJpd3txtnmjWhHN3WUUqvU3pc6AgAwAAp0ACB/Xvxs6gSQxIX6fHQ2NlLHyAwz7gAMkvl2UlvrtON047oSPaFD930hdQQAYAAU6ABA/rzv0YiHHkmdAgZqeeyBWF1upY6RKWbcARgk8+1kwVqnHWebK6ljlFKjMmK+HQBKQoEOAOSTK3RKpB3DcaHygdQxMseMOwCDdOnad1NHgIiIWGo3lOgJ7DswnzoCADAgCnQAIJ+e9R50yuPKwcej02imjpFJZtwBGIS3V/4yVjbOp44Bv7bY3og3W2upY5TKfYc+lzoCADAgCnQAIJ/mHjTjTimsVuqxuLwvdYzMMuMOwCCcufQnqSPAu1xsrcVieyN1jFJoVEZi6sATqWMAAAOiQAcA8uvlP0ydAPru0sGnUkfINDPuAAzCuSsWT8ims80VJfoA7L/npdQRAIABUqADAPk1b8adYntr8pFYv26a827MuAPQT+bbybrzrdVY67ZTxyi0I/f/QeoIAMAAKdABgPyaqEfMfyx1CuiLZqUWV9amUsfIBTPuAPST+Xayrt3txunGdSV6n2xUD0Zt3/2pYwAAA6RABwDyzRU6BXWhPp86Qm6YcQegn8y3kwftbjfONJajHd3UUQpnov5c6ggAwIAp0AGAfHvxsxH7XelSLEu1o7G63EodI1fMuAPQD+bbyZNGtxOnG9eV6D3UjogPPPRPUscAAAZMgQ4A5J8rdAqkHcPx5tBDqWPkjhl3APrBfDt5s9Zpx5nGjdQxCqM9em/qCABAAgp0ACD/nlWgUxwXD85Hp9FMHSN3zLgD0A/m28mjG51mnG2upI5RCFMHT6aOAAAkoEAHAPJv/uNm3CmE1Uo9lpdTp8gvM+4A9JL5dvJssb0Rb7RWU8fItXZEHH3gi6ljAAAJKNABgGJ48bOpE8CetGM4Lhx4MnWMXDPjDkAvmW8n7y631mOxvZE6Rm51a+9PHQEASESBDgAUgwKdnFucPBHNlfXUMXLNjDsAvWS+nSI421xRou/Sofu+kDoCAJCIAh0AKIb3PRox997UKWBX1isTcWXNawh6wYw7AL1gvp0iOdtcibVuO3WMXGlGJWanP5o6BgCQiAIdACgOV+jk1KXp+dQRCsOMOwC9YL6dojnduK5E34Hq/kdTRwAAElKgAwDFoUAnhxZr74/Va6bbe6V5+VI0L72ZOgYAOWe+naJpd7txunE92tFNHSUXjhz+o9QRAICEFOgAQHHMPRjx0COpU8C2NSu1eKt6NHWMwnGFDsBemG+nqJTo29OojMTUgSdSxwAAElKgAwDF4gqdHLlUfzI6GxupYxTO0p99K3UEAHLMfDtFttZpx+nG9dQxMm3fAa9XAoCyU6ADAMXy7MdTJ4BtWR57IJaXU6copvUzPzXjDsCumW+n6NY67TjbXEkdI7PuO/S51BEAgMQU6ABAscw9GDH/sdQp4I7aMRyXRo+ljlFoZtwB2A3z7ZTFYntDiX4LG9WD5tsBAAU6AFBA867QybYrBx+P5sp66hiFZsYdgN0w306ZLLY3YrHtdUKbTdSfSx0BAMgABToAUDwKdDJsvTIRi8v7UscoPDPuAOyG+XbK5mxzRYm+yZH7/yB1BAAgAxToAEDxTNQjfuczqVPALV08+GzqCKVhxh2AnTDfTlmdba7EjU4rdYzkGqP3Rm3f/aljAAAZoEAHAIrpWVfoZM9bk4/E+vW11DFKw4w7ADthvp0yO9NcjrVuO3WMpKYOnkwdAQDICAU6AFBM8x+P2D+VOgX8WrNSi8XObOoYpWLGHYCdMN9OmbW73TjduB6Nbid1lCTaEXH0gS+mjgEAZIQCHQAoLu9CJ0Mu1Oejs+H9koNmxh2A7TDfDr8s0c80l6Md3dRRBq49em/qCABAhijQAYDievGzqRNAREQsjz0Qq8veK5mCGXcAtuPcFf97ARERa512nG5cL12JPjP791NHAAAyRIEOABTXI/95xNx7U6eg5NoxHBcqH0gdo7TMuAOwHeevmm+Hm9Y67TjfXE0dY2CaUYnD9/7D1DEAgAxRoAMAxWbGncSuHHw8Oo1m6hilZsYdgDtZWT8Xb6/8x9QxIFMW2xtxtrmSOsZAVGrvSx0BAMgYBToAUGxm3ElotVKPxeV9qWOUnhl3AO7knOtzuKXF9ka82VpLHaPvDt33hdQRAICMUaADAMX2vkcjHnokdQpK6sKBJ1NHIMy4A3BnZy79SeoIkFkXW2ux2N5IHaNvGpWRmJ3+aOoYAEDGKNABgOJzhU4Cb00+Es2V9dQx+BUz7gDcivl2uLuzzZVY6jRSx+iLfQfmU0cAADJIgQ4AFN+z3oPOYDUrtbiyNpU6BpuYcQfgVsy3w/acba7EWredOkbP3Xfoc6kjAAAZpEAHAIpv7kEz7gzUhbpLlqwx4w7ArZhvh+1pd7txunG9UCV6ozISUweeSB0DAMggBToAUA4v/2HqBJTEUu1orC63UsfgFsy4A7CZ+XbYmXa3G2ebN6Id3dRRemL/PS+ljgAAZJQCHQAoh3kz7vRfO4bjzaGHUsfgNsy4A7CZ+XbYubVOO043rheiRD9y/x+kjgAAZJQCHQAoh4l6xPzHUqeg4C4enI9Oo5k6Brdhxh2Azcy3w+6sddpxtrmSOsaebFQPRm3f/aljAAAZpUAHAMrDFTp9tFqpx/Jy6hTcjRl3ACLMt8NeLbUbuS7RJ+rPpY4AAGSYAh0AKI8XPxuxfyp1CgqoHcNx4cCTqWOwDWbcAYgw3w69sNjeiDdaq6lj7Fg7Ij7w0D9JHQMAyDAFOgBQLq7Q6YPFyRPRXFlPHYNtMOMOQIT5duiVy631WGxvpI6xI+3Re1NHAAAyToEOAJTLswp0emu9MhFX1iwb5MnqD7+fOgIACZlvh94621zJVYk+dfBk6ggAQMYp0AGAcpn/uBl3euriwWdTR2CHll/7TuoIACRkvh1673xrNda67dQx7qodEUcf+GLqGABAxinQAYDyefGzqRNQEIu198f69bXUMdih5e99J9orN1LHACAR8+3Qe+1uN043rme+RO/W3p86AgCQAwp0AKB8FOj0QLNSi7eqR1PHYJdufPfV1BEASMB8O/RPu9uNM43laEc3dZTbOnTfF1JHAAByQIEOAJTP+x6NmHtv6hTk3KX6k9HZyM+7HnknM+4A5WS+Hfqr0e3E6cb1TJbozajE7PRHU8cAAHJAgQ4AlJMrdPZgeeyBWF5OnYK9MOMOUE7m26H/1jrtON24njrGu1T3P5o6AgCQEwp0AKCcFOjsUjuG49LosdQx6AEz7gDlYr4dBmet046zzZXUMd7hyOE/Sh0BAMgJBToAUE5zD0Y89EjqFOTQlYOPR3NlPXUMesCMO0C5mG+HwVpsb2SmRG9URmLqwBOpYwAAOaFABwDKyxU6O7Raqcfi8r7UMegRM+4A5WK+HQZvsb0Ri+2N1DFi34H51BEAgBxRoAMA5fXsx1MnIGcuHXwqdQR6zIw7QDmYb4d0zjZXkpfo9x36XNLvBwDyRYEOAJTX3IMR8x9LnYKceGvykVi/vpY6Bj1mxh2gHMy3Q1pnmyux1m0n+e6N6kHz7QDAjijQAYBym3eFzt01K7VY7MymjkEfmHEHKAfz7ZDe6cb1JCX6RP25gX8nAJBvCnQAoNwU6GzDhfp8dDbSv7uR/jDjDlBs5tshG9rdbpxuXI92dAf6vUfu/4OBfh8AkH8KdACg3CbqEb/zmdQpyLDlsQdidbmVOgZ9ZMYdoNguLX03dQTgVwZdojdG743avvsH8l0AQHEo0AEAnnWFzq21YzguVD6QOgZ9ZsYdoNi8/xyyZa3THliJPnXwZN+/AwAoHgU6AMD8xyP2T6VOQQZdmpmPTqOZOgYDYMYdoJgaraU4f/VbqWMAW6x12nG+udrX72hHxNEHvtjX7wAAikmBDgAQ4V3ovMtqpR5L11KnYFDMuAMUk/IcsmuxvRFnmyt9+/z26L19+2wAoNgU6AAAEREvfjZ1AjLmwoEnU0dggMy4AxST+XbItsX2RrzVXu/LZ8/M/v2+fC4AUHwKdACAiIhH/vOIufemTkFGvDX5SDRX+vNDHtllxh2gWMy3Qz6cb67GYnujp5/ZjEocvvcf9vQzAYDyUKADANxkxp2IaFZqcWVtKnUMEjDjDlAsynPIj7PNlbjRafXs8yq19/XsswCA8lGgAwDcZMadiLhQn08dgUTMuAMUi/l2yJczzeVY67Z78lmH7vtCTz4HACgnBToAwE3vezTioUdSpyChxdr7Y3W5d5cv5I8Zd4BiMN8O+dPuduN043o0up09fU6jMhKz0x/tUSoAoIwU6AAAm7lCL612DMdb1QdTxyAxM+4AxaA8h3xqd7txprkc7eju+jP2HbAoBQDsjQIdAGCzZ70HvawuHpyPzkYjdQwSM+MOUAzm2yG/1jrtON24vusS/b5Dn+txIgCgbBToAACbzT1oxr2EViv1WF5OnYKsMOMOkG/m2yH/1jrtONtc2fE/16iMxNSBJ/qQCAAoEwU6AMBWL/9h6gQMUDuG48KBJ1PHIENWfvSD1BEA2APlORTDUrux4xJ9/z0v9SkNAFAmCnQAgK3mzbiXyZWDj0dzZT11DDJk+TUX6AB5Zr4dimOxvRFvtta2/fcfuf8P+pgGACgLBToAwFYT9Yj5j6VOwQCsVyZicXlf6hhkTGdlRYkOkFPm26F4LrbWYrG9cde/b6N6MGr77h9AIgCg6BToAAC34gq9FC4efDZ1BDJq+bXvpI4AwC4oz6GYzjZXYqnTuOPfM1F/bkBpAICiU6ADANzK/Mcj9k+lTkEfLdbeH+vXtz8HSbm4QAfIJ/PtUFxnmyux1m3f8s/aYb4dAOgdBToAwK1M1F2hF1izUou3qkdTxyDDzLgD5I/5dii2drcbpxvXb1mit0fvNd8OAPSMAh0A4HaeVaAX1aX6k9HZuPt7FCk3M+4A+aI8h+Jrd7txprEc7ei+469PHTyZKBEAUEQKdACA2zHjXkjLYw/E8nLqFOSBC3SAfDHfDuXQ6HbidOP6r0v0dkQcfeCLaUMBAIWiQAcAuJMXP5s6AT3UjuG4UPlA6hjkhBl3gPww3w7lstZpx5nGjYiI6NbenzgNAFA0CnQAgDtYPfFy/Kj2P8bl4floV2qp47BHVw4+Hp1GM3UMcsSMO0A+KM+hfG50mvEnzQdi/9znUkcBAApGgQ4AcAfjzz0XUR2OcyMvxQ9q/zh+PvqJWB46mjoWu7Baqcfi8r7UMcgZF+gA+WC+Hcrj7ZiM/2f4o/E/x38b3xr6L+J9sx9LHQkAKJjh1AEAALKufqQal8/+8v++Wn0srlYfi9HutZhrfTem238R1e562oBsy6WDT0VcX0sdg5y5OeM++cxvp44CwG2Yb4dy+MHQI/Efhh6Pv2oMRzQiItrxqZkTqWMBAAWkQAcAuIu53/+9uPylb7zjrzUq9Tg38lKcG3kpptvfj+nWX8Rk52eJEnI3b00+EuvKc3Zp+bXvKNABMkx5DsX1dkzG68N/K77XOhIrrfa7/vzzh59JkAoAKDoFOgDAXYwePxFjI1+LtWb9ln/uKj3bmpVaLHZmI2IjdRRy6pcz7l9KHQOA2zDfDsVzq2vzrY5PHIojtVs/owEA7IUCHQBgG2YenY1zrzfu+Pe4Ss+mC/X56Cwrz9k9M+4A2eYCHYrhbtfmW52ae2wAqQCAMlKgAwBsQ/3ll+Lc69+4+9/4K67Ss2GpdjRWl1upY1AAZtwBssn1OeTfdq7Nb2Vh5kN9zQUAlJcCHQBgG0aPn4j61Nfi2tLOJgJdpafTjuF4c+ihiGimjkIBmHEHyKbzCnTIpZ1em2+1MHPMfDsA0DcKdACAbao/cTSuvfL2rv95V+mDdWlmPjrXlOf0hhl3gGw6Z74dcmW31+ZbLUy7PgcA+keBDgCwTfVPfSLila/u+XNcpfffaqUeS9dSp6BozLgDZMu5q9+MZut66hjAXez12vxWTppvBwD6SIEOALBN1dm5qE9d2/GM+524Su+PCweejFjx3yO9ZcYdIFvMt0O29erafKuFmWNxYLjWk88CALgVBToAwA5Mv/CRuPb1X/T8c12l985bk49EU3lOH5hxB8gW8+2QPf24Nt/qk3OP9eVzAQBuUqADAOxA/TOfjurX/zjasa9v3+EqfffWKxNxZW0qdQwKzIw7QDaYb4ds6de1+VaTwzXz7QBA3ynQAQB2qD67EVcv969Av8lV+s5dmp6PuOZfNqB/zLgDZIP5dkhvENfmW52cPjaQ7wEAyk2BDgCwQ9N/dz6u/ou/HOh3ukq/u8Xa+2NVeU6fmXEHyAbz7ZDOoK7Nb+XUIfPtAED/KdABAHZo8uMfi9H//XvR6EwM/Ltdpd9aO4bjreqDEa1G6iiUgBl3gLTMt8Pgpbg23+pwrR7P1I8m+W4AoFwU6AAAu1A/Uo3LZ9NmcJX+GxcPzkdnWXnOYKz+8PupIwCUmvl2GJyU1+ZbLUx79zkAMBgKdACAXZj+3Rfj8pdfTR0jIt59lV5v/1XU23+dOtbArFbqsbycOgVl0rx8KdbP/DRqD70/dRSAUjLfDv2VhWvzWzHfDgAMigIdAGAXxp97Lka/8s0kM+53svkqfbr9FzHT+n6Mdt9OHatv2jEcFw48GbFSzst70ln6t9+M2n/z36WOAVA65tuhf7J0bb7V4Vo9TkwcSh0DACgJBToAwC7NPX5PnHs9m7PhjUo9Lg4/HxeHn496+69juv0XhbxKv3Lw8WguK88ZvOXXXo05BTrAwJlvh966ENPxl8PPZO7afKvP3/9M6ggAQIko0AEAdqn+8ktx7vVvpI5xV9eqH4pr1Q8V7ip9vTIRi8v7UsegpMy4A6Rhvh32bi1G4z8NfSi+V3kqftaMzF2b38rCjPefAwCDo0AHANil0eMnYmzka7HWrKeOsi1Fu0q/ePDZiOtrqWNQYmbcAQbLfDvszYWYjj8ffj5+0JrJ9LX5VscnDsWRWj6euQCAYlCgAwDswdxzR+Pnr+TvmjvvV+mLtffHuvKcxMy4AwyW+XbYuTxem29lvh0AGDQFOgDAHtQ/9YmIV76aOsau5fEqvVmpxVvVoxGtjdRRKDkz7gCDZb4dti+v1+a3ctJ8OwAwYAp0AIA9qM7ORX3qWlxbyv+kYF6u0i/U56OzrDwnG8y4AwyG+Xa4uyJcm2+1MHMsDgzXUscAAEpGgQ4AsEf1J47GtRzOuN9Olq/Sl8ceiNXlVuoY8Gtm3AEGw3w73F6Rrs23Wph2fQ4ADJ4CHQBgj+qf+kRUX/ln0Y59qaP0XJau0tsxHBcqH4iIZpLvh1sx4w4wGObb4Z2KeG2+1eRwzXw7AJCEAh0AYI+qs3NRn92Iq5eLV6DflIWr9CsHH4/OsvKc7DHjDtBf5tvhN4p8bb7VyWnz7QBAGgp0AIAeqP/Wh+Pq13+ROsZApLhKX63UY3G5uP+CAvlmxh2gv8y3U3ZluDa/lQXX5wBAIpVut9tNHQIAoAh+8LE/LuSM+3b0+yr9Z/csxPr1tb58NvTC0f/1fzPjDtAn/+drH3SBTim949q8U/zCfLPJ4Vr89bP/KHUMAKCkXKADAPTI9Hs7cfls6hRp9PMq/a3JR5TnZJ4Zd4D+MN9O2ZT12nyrU3OPpY4AAJTYUOoAAABFMf27L6aOkNzNd6X/qPY/xN+M/tdxrbq32cVmpRZX1qZ6lA76Z/m1V1NHACgk8+2UxYWYjn8z/Mn4p/G5+JetX5XnJXbqkAIdAEjHBToAQI+MP/dcjH7lm9HoTKSOkgm9uEq/UJ+PWG71KSH0TvPypVg/81Mz7gA9dunad1NHgL5xbX5rh2v1ODFxKHUMAKDEFOgAAD1UP1It7Yz77dy8Sr84/PyO3pW+VDsaq8pzcsSMO0Bvvb3yl7GycT51DOi5d7zbvKUw32phem8rVgAAe6VABwDoobnf/724/KVvpI6RWdu9Sm/HcLw59FBElHy7klxZfu3VmFOgA/TMmUt/kjoC9Ixr8+37/OFnUkcAAEpOgQ4A0EOjx0/E2MjXYq1ZTx0l0+52lX5pZj4615Tn5IsZd4DeOnfF+8/JP9fmO3N84lAcqXmWAgDSUqADAPTYzKOzce71RuoYubH1Kn1/+29i6VrqVLA7ZtwBesN8O3nm2nz3Ts09ljoCAIACHQCg1+ovvxTnXjfjvlM3r9Jj+PmozVSie+n7Ue1cTh0LdsSMO0BvmG8nj1yb793CjPefAwDpKdABAHps9PiJmJz4P2L5xmTqKLm1fqUbUX00hqdGoto6H0M3fhKV7lrqWHBXZtwBesN8O3nh2rx3nq4/aL4dAMgEBToAQB9MP/VALL/yduoYude60YxWzEUMz7lKJzfMuAPsjfl28sC1ee+ZbwcAskKBDgDQB/VPfSLila+mjlEom6/ShytXovL2D12lk0mrP/pB6ggAuWa+naxybd5fJ823AwAZoUAHAOiD6uxc1KeuxbUlE4S99sur9KmI4d+O0XpE5cbpqK79LHUs+LX1Mz+N5qU3Y2TuUOooALlkvp2scW3efwszx+LAcC11DACAiFCgAwD0zfQLH4lrX/9F6hiF1rgWEfGBGNp/LEb3LbpKJzOWX3s17vn4J1PHAMgd8+1kxVqMxo+qT8VfxIdcmw/AJ823AwAZokAHAOiT+mc+HdWv/3G0Y1/qKIXXabRjveEqnexY+rNvKdABdsF8O6md6d4Xf7Xvb8er6/sjOqnTlMPkcM18OwCQKQp0AIA+qs9uxNXLCvRBcpVOFphxB9gd8+2kcPPa/NXuibjc6kSsp05ULienj6WOAADwDgp0AIA+qr/wZFz9lz9OHaOUXKWTmhl3gJ0x386gvfva3Ml5CguuzwGAjBlKHQAAoMjqn/pEjA7dSB2j9BrXIjZaH4j1/X8nOvc8Fd3KWOpIlMDSn30rdQSAXDHfziCsxWj8++pvx5eHfj/+efejvyzPSeZwrW6+HQDIHBfoAAB9Vj9SaTGlUgAAIABJREFUjctnU6cgwlU6g2XGHWBnzLfTT67Ns2lhWnkOAGSPAh0AoM+mf/fFuPzlV1PHYAvvSmcQzLgDbI/5dvrBu82z79Shx1JHAAB4FwU6AECfjT/3XIx+5ZvR6EykjsItuEqnn5b+7FsKdIBtMN9OL7k2z4fDtXqcmLDUAwBkjwIdAGAA5h6/J8693kgdg7twlU6vmXEH2B7z7eyVa/P8+fz9z6SOAABwSwp0AIABqL/8Upx7/RupY7BNrtLpJTPuAHdmvp29cG2eXwsz3n8OAGSTAh0AYABGj5+IsZGvxVqznjoKO+Qqnb0y4w5wZ+bb2SnX5vl3fOJQHKl5NgIAskmBDgAwIDOPzppxzzFX6eyWGXeAOzPfzna5Ni+OU3OPpY4AAHBbCnQAgAGZ/sI/iHOvfzV1DHrAVTo7ZcYd4NbMt3M3rs2L6dQhBToAkF0KdACAAanOzkV96lpcWzJVWBSu0tkuM+4At2a+ndtxbV5cCzPH4sBwLXUMAIDbUqADAAxQ/Ymjce2Vt1PHoA9cpXMnZtwBbs18O5u5Ni+HhekPpY4AAHBHCnQAgAGqf+oTUX3ln0U79qWOQp+4Sud2zLgDvJP5dm5ybV4ek8O1ODmjQAcAsk2BDgAwQNXZuajPbsTVywr0MnCVzmZm3AHe6dyVb6WOQEKuzcvp5LT5dgAg+xToAAADVv+tD8fVr/8idQwGyFU6EWbcAbY6f9V8exm5Ni+3BdfnAEAODKUOAABQNvXPfDqqsZE6Bok0rkVstD4Q6/v/TnTueSq6lbHUkRig5ddeTR0BIBNW1s/F2yv/MXUMBmQtRuPfV387vjz0+/HPux/9ZXlO6ZhvBwDywgU6AEACZtxxlV5OZtwBfumc6/NScG3OZienj6WOAACwLQp0AIAEZj/9d+Pql12i8kvelV4eZtwBfunMpT9JHYE+8W5zbufzh+dTRwAA2BYFOgBAAuPPPRejX/lmNDoTqaOQIZuv0kcOVGNo9ccxtHYuKtFKHY0eWn7tVVfoQKmZby8m1+bcyeFaPU5M+BcIAYB8UKADACRSP1KNy2dTpyCrmtfbcfMqfWRsJSpXvx9D3eXUsegBM+5A2ZlvLw7X5mzXwrR3nwMA+aFABwBIZO73fy8uf+kbqWOQcZ1GOzYatYjhZ1ylF8T6mZ9Ge+VGVPdboADKyXx7/v3H7oPx1/v+dry+PuLanG35/OFnUkcAANg2BToAQCKjx0/E2MjXYq1ZTx2FnHCVXhw3vvtqTP3O30kdA2DgzLfn19sxGT8ceiL+vzgWl1pt1+Zs2/GJQ3Gk5pkHAMgPBToAQEIzj87GudcbqWOQM67S82/5te8o0IFSMt+eP+++Nm+njkTOnJp7LHUEAIAdUaADACRUf/mlOPe6GXd2z1V6Pi1/7ztm3IFSMt+eD67N6aWFGe8/BwDyRYEOAJDQ6PETMTn2L2J57WDqKOScq/T8MeMOlI359uxzbU6vPV1/0Hw7AJA7CnQAgMSm5x+K5VfeTh2DAnGVng9m3IGyMd+eTa7N6Sfz7QBAHinQAQASq3/qExGvfDV1DArIVXq2mXEHysZ8e7a4NmcQTppvBwBySIEOAJBYdXYu6lPX4tqSaUP6x1V6NplxB8rCfHs2uDZnkBZmjsWB4VrqGAAAO6ZABwDIgOkXPhLXvv6L1DEoAVfp2WLGHSgL8+1puTYnhU+abwcAcqrS7Xa7qUMAABDxg4/9cbRjX+oYlNDQaNVVekIf/Ff/txl3oPD+9C9ecIE+YO+6NocBmhyuxV8/+49SxwAA2BUX6AAAGVGf3YirlxXoDJ6r9LTMuANFZ759sFybkwUnp4+ljgAAsGsKdACAjKj/1ofjqhl3EvOu9MEz4w4Unfn2/vNuc7JmYeZDqSMAAOyaCXcAgAz50X/1pWh0TDmTLa7S+8+MO1Bk5tv75x3X5pARh2v1+N5T/33qGAAAu+YCHQAgQ+pHqnH5bOoU8E6u0vvPjDtQVObbe8+1OVm3MO36HADINwU6AECGTP/ui3H5y6+mjgG35F3p/WPGHSgq8+29493m5MWpQ4+ljgAAsCcKdACADBl/7rkY/co3zbiTea7Se2v5e9+J9soNM+5A4Zy59CepI+Saa3Py5nCtHicmDqWOAQCwJwp0AICMmXv8njj3eiN1DNgWV+m9Y8YdKBrz7bvn2py8+vz9z6SOAACwZwp0AICMqb/8Upx7/RupY8COuUrfGzPuQNGYb98Z1+YUwcKM958DAPmnQAcAyJjR4ydibORrsdasp44Cu+IqfXfMuANFY759e1ybUxTHJw7FkZpnGAAg/xToAAAZNPPorBl3CsFV+s6YcQeKwnz7nbk2p4hOzT2WOgIAQE8o0AEAMmj6C/8gzr3+1dQxoGdcpW+PGXegKC4tfTd1hExybU6RnTqkQAcAikGBDgCQQdXZuahPXYtrSyYQKZ6bV+kx8oEYm25F59IPotpdTB0rE8y4A0Xh/ee/4dqcMliYORYHhmupYwAA9IQCHQAgo+pPHI1rr7ydOgb01drV4YjhJ2J4vBrDcS4qSz8u/VW6GXcg7xqtpTh/9VupYyTn2pwyWZj+UOoIAAA9o0AHAMio+qc+EdVX/lm0Y1/qKNB3rdV2tOK+iJH7Sn+VbsYdyLsyl+dvx2S8Pvy34nutI7HSdW1OOUwO1+LkjAIdACgOBToAQEZVZ+eiPrsRVy8r0CmXsl+lm3EH8q6M8+0/GHok/sPQ4/FXjeGIRoRrc8rk5LT5dgCgWBToAAAZVv+tD8fVr/8idQxIosxX6as//H5MPvPbqWMA7FiZ5tvfcW3eUphTXguuzwGAglGgAwBkWP0zn47q1//YjDulV7ar9OXXvqNAB3KpDOW5a3P4DfPtAEARKdABADLOjDv8Rlmu0pdfezUivpQ6BsCOFXW+3bU53NrJ6WOpIwAA9JwCHQAg42Y//Xfj6pdfTR0DMqfIV+mdlZVYfu1VV+hArhRxvt21OdzZ5w/Pp44AANBzCnQAgIwbf+65GP3KN6PRmUgdBTKpqFfpZtyBvClKee7aHLbncK0eJyYOpY4BANBzCnQAgByoH6nG5bOpU0D2Fekq3Yw7kDd5n293bQ47szDt3ecAQDEp0AEAcmDu938vLn/pG6ljQG4U4SrdjDuQJ3mdb3dtDrv3+cPPpI4AANAXCnQAgBwYPX4ixka+FmvNeuookDt5vko34w7kRd7Kc9fmsDfHJw7FkZpnEwCgmBToAAA5MfPobJx7vZE6BuRWHq/SzbgDeZGH+XbX5tA7p+YeSx0BAKBvFOgAADlRf/mlOPe6GXfohbxcpZtxB/Ig6/Ptrs2h9xZmvP8cACguBToAQE6MHj8Rk2P/IpbXDqaOAoWRh6t0M+5A1mWxPHdtDv3zdP1B8+0AQKEp0AEAcmR6/qFYfuXt1DGgkLJ6lW7GHci6LM23uzaH/jPfDgAUnQIdACBH6p/6RMQrX00dAwota1fpZtyBLMvCfLtrcxisk+bbAYCCU6ADAORIdXYu6lPX4tqSyUQYhKxcpZtxB7IqZXnu2hwGb2HmWBwYrqWOAQDQVwp0AICcqT97Iq796RupY0CppL5KN+MOZNWg59tdm0NaC9OuzwGA4qt0u91u6hAAAOzMDz72x9GOfaljQKkN+ir98P/0v7hCBzKl0VqKf/XawwP5rndcmwNJTA7X4q+f/UepYwAA9J2nDgCAHKrPbsTVywp0SGnQV+lm3IGs6fd8u2tzyJaT08dSRwAAGAgFOgBADtV/68Nx9eu/SB0D+JVBvCvdjDuQNf2ab/duc8imhRnz7QBAOSjQAQByqP6ZT8foN74Ujc5E6ijAJu+6Sr/8l1HtXO7JZ3dWVmL5tVddoQOZ0Ggt9fQC3bU5ZNvhWj1OKtABgJJQoAMA5FT9SDUun02dAridtavDEdVHY3hqJKqt8zF04ydR6a7t6TPNuANZ0avy3LU55MPCtPIcACgPBToAQE5N/+6LcfnLr6aOAdxF60YzWjEXMTwXtZlKdC99f9dX6WbcgazYy3z7hZiOvxx+xrU55MipQ4+ljgAAMDAKdACAnBp/7rkY/co3zbhDjqxf6e7pKt2MO5AVO71AX4vR+E9DH4rvVZ6KnzXDtTnkyOFaPU5MHEodAwBgYBToAAA5Nn1sPC7+VeoUwE7t5SrdjDuQ2k6uzy/EdPz58PPxg9aMa3PIqVNzrs8BgHJRoAMA5NjMp1+Oi1/6RuoYwB7s9CrdjDuQ2vm7FOiuzaFYPmm+HQAoGQU6AECOjR4/EWMjX4u1Zj11FGCPtnuV3llZidUf/iDGP/JogpQAEeduM9/u2hyK5/jEoThS86wBAJSLAh0AIOdmHp2Nc683UscAeuhuV+nLr72qQAeSOHf1m9FsXf/1f3ZtDsVmvh0AKKOh1AEAANib6S/8g9QRgD5p3WjGxvpcrA3/dnTuXYj20GxE3JxxBxi8m/PtF2I6/s3wJ+OfxufiX7Z+VZ4DhXPKfDsAUEIu0AEAcq46Oxf1qWtxbcm0IhTZ5qv09tr5WPrzH8XUE/9Z6lhAyfxfV96If1/9gmtzKIGFmWNxYLiWOgYAwMC5QAcAKID6Zz6dOgIwIK0bzWh0DsffvHIpdRSgZL596Sfx7c6Trs2hJBamP5Q6AgBAEgp0AIACqD/9wdQRgAF6c2U8zr9+IXUMoGS+fekn0brRjqmqi1Qog5MzCnQAoJwU6AAABVDdX4vp5z+SOgYwAMtDB2LpeiVW3lyOt09fSR0HKJFvX/pJVLqViJVujA+NpI4D9NEn5x413w4AlJYCHQCgIOpPuUKHouuMT8TFt37zGPezP/1xwjRAmXz70k/iRmsjIiKqnaEYayjQocgWXJ8DACWmQAcAKIj60w9HdXxf6hhAn1RGhuPM+eo7/tr5V88kSgOUzbcv/eQd/7nb6MZsTCRKA/TT5HDNfDsAUGoKdACAAqk//XDqCECf/PzKWHS6lXf8NTPuwKBsLdAjIlqr7ZgdUqJD0ZycPpY6AgBAUgp0AIACmf17T6aOAPTB1dZEbLSqt/wzM+5Av22eb9+qudKKmeH9A04E9NPnD8+njgAAkJQCHQCgQMaPzsXo7FTqGEAPNccm4+rS8G3/3Iw70G+3uj6/qdKtRPNGK8aGvBMdiuBwrR4nJg6ljgEAkJQCHQCgYOpPmXGHwpiYiLNv3PmxzYw70G93KtAjIqqdoRhe8xMTFMHCtHefAwB4ugEAKJjpFz6SOgLQA5V9I3H2jcq73nt+K2bcgX6503z7ZiPtoTjYHhtAIqCfTh16LHUEAIDkFOgAAAUzfnQuxo7OpY4B7NHllbHbvvd8KzPuQL/c7fp8s8pGxHsqE31MA/TT8YlD5tsBAEKBDgBQSDPPu0KHPFsfnYy3l7b/uGbGHeiXnRToERHtlXbcUx3vUxqgn07NuT4HAIhQoAMAFFL9ae9Bh7zqjo/HLy5u7/J8M1foQK9td759q+6NTtSGRvqQCOinhRnvPwcAiFCgAwAU0ujsVEx++IHUMYAdqoyOxM/fGN7VP3v+3/2sx2mAstvp9flNlW4l9q36yQny5On6g3GkVk8dAwAgEzzNAAAU1PTzj6SOAOzQmyvj0ezs7jHt2k+vxMrF5R4nAspstwV6RES1MxTTLVPukBfm2wEAfkOBDgBQUPWnP5g6ArADy0MHYul6ZU+fYcYd6JXdzrdv1m10497KZI8SAf100nw7AMCvKdABAAqqur8W9aeU6JAHnfGJuPjW3h/Pzvzpj3uQBmBv1+ebbay04j3V/T35LKA/FmaOxYHhWuoYAACZoUAHACiw+lMPp44A3EVlZDjOnK/25LPMuAO90qsCPSKidaMdU1XlHGTVwrTrcwCAzRToAAAFNv3CR6I6vi91DOAOzl2tRae7t+n2zcy4A3vVi/n2zSrdSsRKN8aGRnr2mUBvTA7X4tQh7z8HANhMgQ4AUHD1p12hQ1ZdbU3EanO4p59pxh3Yq15en99U7QzFRGO0558L7M3J6WOpIwAAZI4CHQCg4LwHHbKpOTYZV5d6W55HmHEH9u7PF3/Rl89tNzoxGxN9+WxgdxZmzLcDAGylQAcAKLj60w/H6OxU6hjAJpXxWpx9o3+PY2bcgd368fVLcWFtqW+f31ptx+yQEh2y4HCtHicV6AAA76JABwAogfpTZtwhKyr7RuLnF0d6+t7zrcy4A7v1r9/4Ud+/o7nSinuq433/HuDOFqaV5wAAt6JABwAogekXPpI6AvArl1fGYqNV7et3mHEHduv/7cP7z7eqdCvRudGJsaGRvn8XcHunDj2WOgIAQCYp0AEASmD86JwZd8iA9dHJeHtpMI9hZtyBner3fPtmQ91KDK/5WQpSOVyrx4mJQ6ljAABkkicVAICSmH7eFTqk1B0fj/NvDu4RzIw7sFODmG/fbKQ9FNMtU+6Qwqk51+cAALejQAcAKImZFx5JHQFKqzI6Ej9/Y7iv7z3f6tpPr0TjxsbAvg/Iv0HMt2/VbXTjPZWJgX8vlN0nzbcDANyWAh0AoCRGZ6di7Ohc6hhQSm+ujEezM/jHr/P/7mcD/04gnwY5375Ve6Ud91RdosOgHJ84FEdq9dQxAAAyS4EOAFAiM2bcYeBW99Vj6frgLs83e8N70IFtGvR8+1bdG52oDY0kzQBlYb4dAODOFOgAACUy/YICHQapMz4R5y+k+/7zr/7MjDuwLSnm2zerdCuxb3UoxpXo0HenzLcDANyRAh0AoESq+2tRf+qDqWNAKVRGhuPM+WrqGGbcgbtKOd++WbUzFGMNBTr008LMsTgwXEsdAwAg0xToAAAlU3/q4dQRoBTOXa1Fp5tmun0zM+7A3aSeb9+s2+jGvZXJ1DGgsBamP5Q6AgBA5inQAQBKpv60C3Tot6utiVhtDqeOERFm3IG7Sz3fvtXGSiveU92fOgYU0skZBToAwN0o0AEASqa6vxbTz3sXOvRLc2wyri5lozy/yYw7cDtZmW/fqnWjHTPDSnTopU/OPWq+HQBgGxToAAAl5D3o0B+V8VqcfSN7j1lm3IHbydJ8+2aVbiWaN1oxNuSd6NArC67PAQC2JXu/7AAA0Hf1px+O6vi+1DGgcH5+cSQT7z3fyow7cDtZm2/frNoZionGaOoYUAiTwzXz7QAA26RABwAoqfrTD6eOAIXyVutAbLSqqWPclhl3YKuszrdv1m50YjYmUseA3Ds5fSx1BACA3FCgAwCU1OzfezJ1BCiM9dHJeHsp249XZtyBrbI6375Va7Ud76ko0WEvPn94PnUEAIDcyPYvPAAA9M340bkYnZ1KHQPyb2Iizr+Z/UcrM+7AVlmeb9+qtdqKe6rjqWNALh2u1ePExKHUMQAAciP7v/IAANA39afMuMNeVEZH4uwblUy+9/xWzLgDN+Vhvn2zSrcSnRudGBsaSR0Fcmdh2rvPAQB2QoEOAFBi0y98JHUEyLU3V8Yz/d7zrS5//43UEYCMyMt8+2ZD3UqMrvopC3bq1KHHUkcAAMgVTx0AACU2fnQuxo7OpY4BubS6rx5L1/NxeX7Tee9BB34lT/Ptm1U7QzHdMuUO23V84pD5dgCAHVKgAwCU3MzzrtBhp7rj43H+QuoUO9e80VCiA7mbb9+q2+jGeyoTqWNALpyac30OALBTCnQAgJKrP+096LATlZHh+Jvz+X0Hr/egA3mcb9+qvdKOe6ou0eFuFma8/xwAYKcU6AAAJTc6O2XGHXbg3NVadLr5mm7fzAU6kNf59q26NzoxVa2ljgGZdXziUByp1VPHAADIHQU6AAAx918+mToC5MLy0IFYbQ6njrEnZtyh3PI+375ZpVuJWOnG+FB+V0Ggnz5//zOpIwAA5JICHQCAqD/9wdQRIPOaY5Nx8a1iPEKZcYfyKsr1+U3VzlCMNRTocCsnzbcDAOxKMX79AQBgT6r7a1F/SokOt1MZr8XZN4rz+OQCHcrr2wUr0CMiuo1u3FuZTB0DMmVh5lgcGPaKAwCA3SjOL0AAAOxJ/amHU0eAzPr5xZFcv/d8KzPuUE4X1pbiPy1fTh2jLzZWWjE7NJE6BmTGwrTrcwCA3VKgAwAQERHTL3wkquP7UseAzHmrdSA2WtXUMXrOjDuUTxGvzzdrrrRiZnh/6hiQ3ORwLU4deix1DACA3FKgAwDwa/WnXaHDZuujk/H2UjEfm1ygQ/n86/M/TB2hryrdSjRvtGJsyDvRKbeT08dSRwAAyLVi/hIEAMCueA86bDIxEeffLO4jkxl3KJciz7dvVu0MxURjNHUMSGphxnw7AMBeFPfXIAAAdqz+9MNm3CEiKvtG4uwblUK99/xWzLhDeRR9vn2zdqMTB9tjqWNAEpPDtTipQAcA2BMFOgAA7zD9wiOpI0Byl1fGCvne861coEN5FH2+favKRsR7KhOpY8DAnZrz7nMAgL1SoAMA8A7TL3wkdQRIanVfvbDvPd+qeaMRb5++kjoG0GdlmW/fqrXainuq46ljwECdOqRABwDYq3L8KgQAwLaNH52L0dmp1DEgie74eJy/kDrFYP3sT3+cOgLQZ2Wab9+s0q1E90YnakMjqaPAQByu1ePExKHUMQAAck+BDgDAu0w/7wqd8qmMjsTP3xhOHWPgzLhD8ZVtvn2zSrcS+1b9/EU5mG8HAOgNTxAAALzLjPegU0LnruyLZqd8j0grby6bcYcCK+t8+2bVzlBMt0y5U3yfNN8OANAT5ft1CACAuxqdnYqxo3OpY8DALA8diNVm+a7PbzLjDsVV1vn2rbqNbrynMpE6BvTN8YlDcaRWTx0DAKAQFOgAANzSjBl3SqIzPhEX3yr3o5EZdyiuMs+3b9Veacd7qvtTx4C+MN8OANA75f6VCACA26o//XDqCNB3lfFanDlfTR0jOTPuUEzm29+tdaMdU9Va6hjQcwszH0odAQCgMBToAADc0ujsVNSf+mDqGNBXP784Ep1uJXWMTDDjDsVjvv3dKt1KxEo3xodGUkeBnlmYOWa+HQCghxToAADcVv0pV+gU19XWRGy0XJ/fZMYdisd8+61VO0Mx1lCgUxwL067PAQB6SYEOAMBt1Z92gU4xrY9OxtWl4dQxMsWMOxSL+fY76za6MRsTqWNAT5w03w4A0FMKdAAAbqu6vxbTz38kdQzorYmJOP+mR6FbMeMOxWG+/e5aq+2YHVKik2+fnHs0DgzXUscAACgUvxoBAHBH3oNOkVT2jcTZNyree34bZtyhOMy3b09zpRUzw/tTx4BdW3B9DgDQcwp0AADuqP70w1Ed35c6BvTE5ZUx7z2/AzPuUAzm27ev0q1E80Yrxoa8E538mRyumW8HAOgDBToAAHdVf/rh1BFgz1b31ePtJY9Ad+MKHfLPfPvOVDtDMbzmfx/In5PTx1JHAAAoJE8HAADc1fQL3oNOvnXHx+P8hdQp8uH8v/tZ6gjAHplv37mR9lAcbI+ljgE7curQY6kjAAAUkgIdAIC7mvzwe2N0dip1DNiVyuhI/PyN4dQxcuPaT6/EysXl1DGAXTLfvnuVjYj3VCZSx4BtOVyrxzP1o6ljAAAUkgIdAIBtqT9lxp18enNlPJodjz47YcYd8st8+960V9pxT3U8dQy4q4Vp7z4HAOgXvyIBALAtZtzJo+WhA7F0vZI6Ru6c+dMfp44A7JL59r3r3uhEbWgkdQy4o/+fvfv7beu800X/pShKJEVajCVL/sF0Kp04UtOJM8GZ1socONhWNuA0wNRXY+AA3cC56L+z959ygN70sgXamwPMAAFmbjJtd340UuwkdlPHkhNLFHku2knTJrZlaZHvWi8/n6vGUcTnzovr6fu85tsBAMZHgQ4AwLG011ajtbaaOgYc27Ddiduf+spzEmbcoZrMtxejNqrF/EN/f1BeL3XOx/c751PHAADIlm8DAAAc2/K2U+hUQ60xG+/u1FPHqDQz7lA9//qHD1JHyEZ9OBNLA1PulNOtVafPAQDGSYEOAMCx9bbcg041vH+3FcOR6fbTMOMO1eP+82KNDkZxodZNHQO+4cay+88BAMZJgQ4AwLHNrSyacaf07g068Wjg9PlpmXGHanlw+GX88uPfpo6RnUf7gzhXX0gdA77yUud8PN/spY4BAJA1BToAAM9k9Z9/mDoCPNZhqxv37s+mjpENM+5QHb/4xOnzcRnsHcVivZk6BkRExE8vvZY6AgBA9hToAAA8k97Wi6kjwLfrdOKDXV9ximTGHarDfPv41Ea1iP1RtGYaqaNAvGm+HQBg7LxdAgDgmdQXmtG7qkSnXGrzjfhgt+be84KZcYdqMN8+fvXhTHQO5lLHYMrdWN6MM7PWEAAAxk2BDgDAM+td3UgdAf7KJ/st956PiRl3KD/z7ZNxdDCMleikjsEUu7Hk9DkAwCQo0AEAeGZLb1yJens+dQyIiIgv57rx2X1fbcbFjDuUn/n2yRk8PIqVGSU6k9edbcat86+mjgEAMBW8ZQIA4ER6W06hk96o3Y7f33byfJz++Lu7cbD3KHUM4DHMt0/e4f4gztbbqWMwZd5c2kwdAQBgaijQAQA4Efegk1ptrhHv786mjjEVdn71XuoIwGOYb5+82qgWw71htGYaqaMwRW4sm28HAJgUBToAACfS29ow405Sd/bbcTj0lWYSdt2DDqVlvj2NmVEtZr/wdxCT0Z1txpsKdACAifGkDwDAiS298UrqCEypBzNn4v7ntdQxpsbOr98z4w4lZL49rcbRTCwNTLkzfrdW3X0OADBJCnQAAE5s6Y0rqSMwhYbtTtz+1FeZSTPjDuVjvj290cEoztU6qWOQuVvnFegAAJPkrRMAACfWXluNuZXF1DGYIrXGbLy7U08dYyqZcYfyMd9eDkf7R3G27iQ649Fv9uL7nfOpYwAATBUFOgAAp7K07RQ6k/PhvWYMR6bbUzDjDuVivr1cRnvDaM40UscgQ+bbAQAmT4EOAMAxNrBOAAAgAElEQVSpLLsHnQm5N+jEw8PZ1DGmmhl3KA/z7eVSG9Vi/uFMtJXoFOxfzLcDAEycAh0AgFOZW1mM1tpq6hhk7rDVjXv3leepmXGH8jDfXj714Uy0DhToFOelzvl4vtlLHQMAYOoo0AEAOLVlM+6MUa3djA92fXUpAzPuUA7m28trdDCKC7Vu6hhkwnw7AEAa3kIBAHBqva2N1BHIVG2+Ee/fbrj3vETMuEN65tvL7dH+IM7VF1LHIAM3lr+XOgIAwFRSoAMAcGpzK4vRu/pi6hhk6JP9Vjwa1FPH4GvMuEN65tvLb7B3FMuzSnRO7sbypvl2AIBEFOgAABSid9UpdIr15Vw3PrvvK0vZmHGHtMy3V0NtVIvDvUG0ZtyJzsncWHL6HAAgFW+jAAAoRG/LCXSKM2q3Y+eOrytlZcYd0jHfXh314Ux0DuZSx6Ci3jTfDgCQjDdSAAAUor7QjKXtK6ljkIHaXCPe351173mJffL2buoIMLXMt1fL0cEwVqKTOgYV8y+r/xBnZpupYwAATC0FOgAAhXEPOkW4s9+Ow6GvKmW24x50SMJ8ezUNHh7FuZoSneO74fQ5AEBS3koBAFCY3tZG1NvzqWNQYQ/ne3H/cyfPy+5w70CJDgmYb6+uwcNBnK23U8egArqzTfPtAACJKdABAChUb2sjdQQqatjuxM5HqVNwXO5Bh8kz315dtVEthnvDaM00Ukeh5N5c2kwdAQBg6inQAQAo1NIb7kHn2dUas/HuTj11DJ6BE+gweebbq21mVIu5h17F8WS3zr+aOgIAwNTz1A4AQKG6f/93MbeymDoGFfPhvWYMR6bbq8SMO0yW0+d5qA9nYmlgyp1v12/24rXeWuoYAABTT4EOAEDhelfNuHN89wadeHg4mzoGJ2DGHSZHgZ6P0cEoztU6qWNQQjeW3H0OAFAGCnQAAApnxp3jOmx149595XlVOYEOk6NAz8vR/lGcrTuJzl8z3w4AUA4KdAAACtdeWzXjzlPV2s34YNdXkioz4w6T8YuPfxN7g0epY1Cw0d4wFuvN1DEoiX6zF9/vnE8dAwCAUKADADAmq//8w9QRKLn3bzfce54BM+4wfk6f56k2qkXsj6I900gdhRL46aXXUkcAAODPFOgAAIxFb8s96Dzep4Mz8WhQTx2DAjiBDuOnQM9XfTgTrQMFOhE3lt1/DgBQFgp0AADGYm5lMVprq6ljUEJfznXjs/u+iuTCjDuMl/n2/I0ORnGh1k0dg4Re6pyP55u91DEAAPgzb60AABgbM+58Q6cTO3d8DcmNGXcYH6fPp8Oj/UGszHRSxyAR8+0AAOXizRUAAGPT23oxdQRKpDbXiA92a+49z5AT6DA+CvTpcbg/iOXZhdQxSOBN8+0AAKWiQAcAYGzqC83oXVWi8yd39tvuPc/U4d5BfPbbu6ljQHbMt0+X2qgWh3uDaM24E32a3FjejDOzzdQxAAD4GgU6AABj1bu6kToCJfBwvhf3P3fyPGfv/fyd1BEgO06fT5/6cCY6B3OpYzBBN5acPgcAKBsFOgAAY9XbejHq7fnUMUho1G7HzkepUzBuZtyheAr06XR0MIznjlqpYzAB3dmm+XYAgBJSoAMAMFb1hWb0tpxCn1a1xmz87x1TtNNg/84DM+5QIPPt0632KOJcrZM6BmP25pL5dgCAMlKgAwAwdu5Bn14f3mvGcGS6fVqYcYfiOH3O4OEgztbbqWMwRjecPgcAKCUFOgAAY9fb2jDjPoUezJyJh4ezqWMwQWbcoTgKdGqjWoz2htGcseSSI/PtAADlpUAHAGAilt54JXUEJuiw1Y3bn/q6MW3MuEMxzLfzX2qjWsw/9Pdpjm6tvpo6AgAAj+EJHACAiVh640rqCExIrd2MD3Z91ZhWZtzh9Jw+5+vqw5lYGphyz82t8wp0AICy8lYLAICJaK+txtzKYuoYTMD7txvuPZ9iZtzh9BTo/K3RwSjO1TqpY1CQfrMX3++cTx0DAIDHUKADADAxvasbqSMwZp8OzsSjQT11DBIy4w6nY76dxznaP4pz9YXUMSjAjSV3nwMAlJkCHQCAiVn98Q9TR2CMvpzrxmf3fcXAjDuchtPnPMlg7ygW683UMTiln/ZfSx0BAIAn8HYLAICJmVtZjNbaauoYjEOnEzt3fL3gT8y4w8kp0HmS2qgWsT+K9kwjdRRO6KXO+Xi+2UsdAwCAJ/CGCwCAiVrevpI6AgWrzTfig92ae8/5ihl3OBnz7RxHfTgTrQMFelXdWn01dQQAAJ5CgQ4AwET1ttyDnptP9lvuPecbnEKHZ+f0Occ1OhjFSnRSx+AEbiy7/xwAoOwU6AAATNTcymL0rr6YOgYFeTjfc+8532rnV++ljgCVo0DnWQweHsXKjBK9Sm4sb5pvBwCoAG+6AACYuN5Vp9BzMGq3Y+ej1Ckoqz/+7m7s336QOgZUhvl2TuJwfxBn6+3UMTimG0tOnwMAVIECHQCAiettOYFedbW5Rry/O5s6BiVnxh2Oz+lzTqI2qsVwbxitGXeiV8Gb5tsBACpBgQ4AwMTVF5pm3Cvuw7vzcTj0dYIne/fn76SOAJXxb3/4feoIVNTMqBazX/g7uexuLG/Gmdlm6hgAAByDp2sAAJJY2r6SOgIn9GDmTDw8dPqcpzPjDsfzzucfx0df3E8dgwprHM3Ec0et1DF4gn9ZfTV1BAAAjkmBDgBAEr2tjai351PH4BkN2524/amvERyfGXd4up/t/kfqCGSg9ijiXK2TOgbfojvbNN8OAFAh3nwBAJBMb2sjdQSeQa3djHd36qljUDFm3OHpfun+cwpytH8UZ+vt1DH4G28ubaaOAADAM1CgAwCQzNIbZtyr5P3bjRiOaqljUDFm3OHJzLdTtNHeMJozjdQx+Jpb5823AwBUiQIdAIBkun//dzG3spg6Bsdwb9CJRwOnzzkZM+7weObbKVptVIv5h175lUW/2YvXemupYwAA8Aw8TQMAkFTvqhn3svtyrhv37s+mjkGFmXGHxzPfzjjUhzOxNDDlXgY3ltx9DgBQNQp0AACSMuNecp1O7NzxtYHTMeMO3858O+M0OhjFhVo3dYypZ74dAKB6vAkDACCp9tqqGfeSqs034oPdmnvPKYQZd/gm8+2M26P9QZyrL6SOMbX6zV58v3M+dQwAAJ6RAh0AgORW//mHqSPwLT7Zb7n3nMKYcYdvMt/OJAz2jmKx3kwdYyr99NJrqSMAAHACCnQAAJLrbbkHvWwezvfis/u+LlCcP/7ubhzsPUodA0rDfDuTUhvVIvZH0ZpppI4ydW4su/8cAKCKvBEDACC5uZXFaK2tpo7Bn43a7dj5KHUKcrTzq/dSR4DSMN/OJNWHM9E5mEsdY6q81Dkfzzd7qWMAAHACCnQAAErBjHs51OYa8f7ubOoYZGrXPejwFfPtTNrRwTBWopM6xtQw3w4AUF0KdAAASqG39WLqCETEnf12HA59TWA8dn79nhl3CPPtpDN4eBTnakr0SXjTfDsAQGV5MwYAQCnUF5rRu6pET+nBzJm4/3ktdQwyZ8YdzLeT1uDhIM7W26ljZO3G8macmW2mjgEAwAkp0AEAKI3e1Y3UEabWsN2J25/6esD4mXEH8+2kVRvVYrg3jNZMI3WUbN1YcvocAKDKvCEDAKA0elsvRr09nzrG1Kk1ZuPdnXrqGEwJM+5MO/PtlMHMqBazX3gtOA7d2ab5dgCAivOkDABAadQXmtHbcgp90t6/24rhyHQ7k2PGnWlmvp2yaBzNxNLAlHvR3lwy3w4AUHUKdAAASsU96JN1b9CJRwOnz5ksM+5MM/PtlMnoYBTnap3UMbJyw+lzAIDKU6ADAFAqva0NM+4Tctjqxr37s6ljMIXMuDOtzLdTRkf7R3G27iR6Ecy3AwDkQYEOAEDpLL3xSuoI+et04oNdXwdIx4w708h8O2U12htGc6aROkbl3Vp9NXUEAAAK4I0ZAACls/TGldQRslabb8QHuzX3npOUGXemkfl2yqo2qsX8w5loK9FP5dZ5BToAQA4U6AAAlE57bTXmVhZTx8jWJ/st956TnBl3po35dsquPpyJ1oEC/aT6zV58v3M+dQwAAAqgQAcAoJR6VzdSR8jSl3Pd+Oy+rwGUgxl3pon5dqpgdDCKC7Vu6hiVdGPJ3ecAALnw5gwAgFJa/fEPU0fIzqjdjt/fdvKc8vjk7d3UEWBizLdTFY/2B3GuvpA6RuX8tP9a6ggAABREgQ4AQCnNrSxGa201dYxs1OYa8f7ubOoY8Fd23IPOlDDfTtUM9o5ieVaJflwvdc7H881e6hgAABREgQ4AQGktb19JHSEbd/bbcTj0+E+5HO4dKNGZCv/2h9+njgDPpDaqxeHeIFoz7kQ/jlurr6aOAABAgbxBAwCgtHpb7kEvwoOZM3H/81rqGPCt3IPONPjZzr+njgDPrD6cic7BXOoYlXBj2f3nAAA5UaADAFBacyuL0bv6YuoYlTZsd+L2px77KS8n0MndR1/cj/988EnqGHAiRwfDeO6olTpGqd1Y3jTfDgCQGW/SAAAotd5Vp9BPqtaYjXd36qljwBOZcSd3v/j4N6kjwKnUHkWcq3VSxyitG0tOnwMA5EaBDgBAqfW2nEA/qQ/vNWM4Mt1O+ZlxJ2fm28nB4OEgztbbqWOU0pvm2wEAsqNABwCg1OoLTTPuJ3Bv0ImHh7OpY8CxOIFOrsy3k4vaqBbDvWG0Zhqpo5TKjeXNODPbTB0DAICCKdABACi9pe0rqSNUymGrG/fuK8+pDjPu5Mp8OzmZGdVi7qFXiV/3L6uvpo4AAMAYeOoFAKD0elsbUW/Pp45RCbV2Mz7Y9ZhP9ZhxJ0fm28lNfTgTSwNT7hER3dmm+XYAgEx5swYAQCX0tjZSRyi92nwj3r/dcO85leQEOrkx306uRgejOFfrpI6R3JtLm6kjAAAwJgp0AAAqwT3oT/fJfiseDeqpY8CJmHEnN+bbydnR/lGcrU/3SfRb5823AwDkSoEOAEAl9LY2Ym5lMXWM0vpyrhuf3fd4T7WZcScn5tvJ3WhvGIv1ZuoYSfSbvXitt5Y6BgAAY+INGwAAldG7asb924za7di549Ge6nMCnVyYb2ca1Ea1iP1RtGcaqaNM3I0ld58DAOTMWzYAACpj6Y0rqSOUTm2uEe/vzrr3nCwc7h3EZ7+9mzoGnJr5dqZFfTgTrYPpK9DNtwMA5E2BDgBAZbTXVs24/407++04HHqsJx/v/fyd1BHg1My3M01GB6O4UOumjjEx/WYvvt85nzoGAABj5E0bAACVsvrPP0wdoTQezvfi/udOnpMXM+5Unfl2ptGj/UGszHRSx5iIn156LXUEAADGTIEOAECl9Lbcgx4RMWx3Yuej1CmgePt3Hphxp9LMtzOtDvcHsTy7kDrG2N1Ydv85AEDuFOgAAFTK3MpitNZWU8dIqtaYjXd36qljwNiYcafKzLczrWqjWhzuDaI1k++d6C91zsfzzV7qGAAAjJkCHQCAylnevpI6QlIf3mvGcGS6nXyZcaeqzLcz7erDmZj9It/XjbdWX00dAQCACcj3iRYAgGwtvTG9Bfq9QSceHs6mjgFjZcadqjLfDhGNo5l47qiVOsZY3DqvQAcAmAYKdAAAKqe+0Ize1RdTx5i4w1Y37t1XnjMdzLhTRebb4U9qjyLO1TqpYxTqxvJmnJltpo4BAMAEKNABAKik3tWN1BEmqtZuxge7Ht+ZHmbcqRrz7fDXBg8HcbbeTh2jMDeWvpc6AgAAE+INHAAAldTbejHq7fnUMSbm/dsN954zVcy4UzXm2+Gv1Ua1GO0NoznTSB3l1LqzzXhzWYEOADAtFOgAAFRSfaEZva3pOIX+6eBMPBrUU8eAiTPjTpWYb4dvqo1qMf+w+q8f31wy3w4AME2q/wQLAMDUmoZ70L+c68Zn9z22M53MuFMV5tvh8erDmVgaVHvK/YbT5wAAU8WbOAAAKqu3tZH3jHunEzt3PLIzvcy4UxXm2+HJRgejOFfrpI5xIubbAQCmj7dxAABUWq4z7rW5RnywW3PvOVPPKXSqwHw7PN3R/lGcqy+kjvHM3lzaTB0BAIAJU6ADAFBpKz/+YeoIY3Fnv+3ec4iInV+9lzoCPNGDwy/Nt8MxDfaOYrFerbvEf9r/p9QRAACYMAU6AACV1l5bjbmVxdQxCvVwvhf3P3fyHCIi/vi7u7F/+0HqGPBYv/jEfDscV21Ui9gfRXumkTrKsfSbvfh+53zqGAAATJgCHQCAyutdzWfGfdRux85HqVNAuZhxp8zcfw7Ppj6cidZBNQr0G0vuPgcAmEYKdAAAKm81kxn3WmM2/vdONV4owyS9+/N3UkeAb/Xg8Mv45ce/TR0DKmd0MIqV6KSO8VQ/7b+WOgIAAAko0AEAqLy5lcVora2mjnFqH95rxnBkuh3+lhl3ysp8O5zc4OFRrMyUt0R/qXM+nm/2UscAACABBToAAFlY3r6SOsKpPJg5Ew8PZ1PHgNIy404ZmW+H0zncH8TZejt1jG91a/XV1BEAAEhEgQ4AQBZ6W9W9B/2w1Y3bn3o0hycx407ZmG+H06uNajHcG0ZrpnxX2NxYdv85AMC08pYOAIAszK0sRvfvv5M6xjOrtZvxwa7HcngaM+6Ujfl2KMbMqBazX5TrWWir913z7QAAU6xcT6cAAHAKS9uvpI7wzN6/3XDvORyTGXfKxHw7FKdxNBPPHbVSx/iK+XYAgOmmQAcAIBu9rRdTR3gmnw7OxKNBPXUMqAwz7pSF+XYoXu1RxLlaJ3WMiIh403w7AMBUU6ADAJCN+kIzelerUaJ/OdeNz+57HIdnYcadsjDfDuNxtH8UZ+vtpBluLG/Gmdlm0gwAAKTljR0AAFlZ2r6SOsLTdTqxc8ejOJyEGXfKwHw7jM9obxjNmUayz/8X8+0AAFPPWzsAALLS29qIens+dYzHqs034oPdmnvP4YTMuJOa+XYYr9qoFvMP07yy7M42zbcDAKBABwAgP72tjdQRHuuT/ZZ7z+EU/vi7u3Gw9yh1DKaY+XYYv/pwJpYGk59yf3Npc+KfCQBA+SjQAQDITlnvQX8433PvORRg51fvpY7AFDPfDpMxOhjFhVp3op95w+lzAABCgQ4AQIZ6Wxsxt7KYOsZfGbXbsfNR6hSQh133oJOI+XaYrEf7gzhXX5jIZ/WbPfPtAABEhAIdAIBM9a6WZ8a9NteI93dnU8eAbOz8+j0z7iRhvh0mb7B3FIv15tg/58aS8hwAgD9RoAMAkKWlN66kjvCVD+/Ox+HQozcUyYw7KZhvh8mrjWoR+6NozTTG+jm3zr861t8PAEB1eIsHAECW2murpZhxfzBzJh4eOn0ORTPjzqSZb4d06sOZ6BzMje3395u9+H7n/Nh+PwAA1aJABwAgW6v//MOknz9sd+L2px65YRzMuDNp5tshraODYaxEZyy/+6eXXhvL7wUAoJq8zQMAIFu9rXT3oNfazXh3p57s82EamHFnksy3Q3qDh0dxrlZ8iX5j2f3nAAD8hQIdAIBsza0sRmttNclnv3+7EcNRLclnw7Qw486kmG+H8hg8HMTZeruw3/dS53w83+wV9vsAAKg+BToAAFlb3r4y8c+8N+jEo4HT5zBuZtyZFPPtUB61US2Ge8NozTQK+X23Vl8t5PcAAJAPBToAAFlbemOyBfqXc924d392op8J08yMO5Ngvh3KZWZUi9kvinmteeu8Ah0AgL+mQAcAIGv1hWb0rr44mQ/rdGLnjkdsmCQz7oyb+XYop8bRTCwNTjflfmN5M87MNgtKBABALrzdAwAge72rG2P/jNp8Iz7Yrbn3HCbMjDvjZr4dymt0MIpztc6J//sbS98rMA0AALlQoAMAkL3e1otRb8+P9TM+2W+59xwSMePOOJlvh3I72j+Ks/VnP4nenW3Gm8sKdAAAvkmBDgBA9uoLzehtje8U+sP5Xnx236M1pPLJ27upI5Cxf733+9QRgKcY7Q2jOdN4pv/mzSXz7QAAfDtv+QAAmArjugd91G7Hzkdj+dXAMe24B50x+cXHv4m9gSsCoOxqo1rMP5yJ9jOU6DecPgcA4DEU6AAATIXe1kbhM+61uUa8vztb6O8Ent3h3oESnbEw3w7VUR/OROvgeAW6+XYAAJ5EgQ4AwNQoesb9zn47DoceqaEM3IPOOCjQoVpGB6O4UOs+9efeXNqcQBoAAKrK2z4AAKbGyo9/WNjvejBzJu5/Xivs9wGn4wQ6RTPfDtX0aH8Q5+oLT/yZn/b/aUJpAACoIgU6AABTo722GnMri6f+PcN2J25/6lEaysSMO0Vz+hyqa7B3FMuz316i95u9+H7n/IQTAQBQJd76AQAwVXpXTzfjXmvMxrs79YLSAEUy406RFOhQXbVRLQ73BtGa+ead6DeW3H0OAMCTKdABAJgqq6eccX//biuGI9PtUEZOoFMU8+1QffXhTHQO5r7x5z/tv5YgDQAAVaJABwBgqsytLEZrbfVE/+29QSceDZw+h7Iy405RnD6HPBwdDOO5o9ZX//xS53w83+wlTAQAQBUo0AEAmDrL21ee+b85bHXj3v3ZMaQBimTGnSIo0CEftUcR52qdiIi4tfpq4jQAAFSBAh0AgKnT23rGe9A7nfhg16MzVIET6JyW+XbIz+DhIM7W23Fj2f3nAAA8nbeAAABMnbmVxej+/XeO9bO1+UZ8sFtz7zlUhBl3Tsvpc8hPbVSLf2w8b74dAIBjUaADADCVlrZfOdbPfbLfcu85VIwZd05DgQ55utl/OXUEAAAqQoEOAMBU6m29+NSf+XKuG5/d98gMVeMEOidlvh3ytb3y9Gc/AACIUKADADCl6gvN6F19/IvUUbsdv7/t5DlU0eHeQXz227upY1BBTp9Dnq6vXo5uo5k6BgAAFaFABwBgai1tX/nWP6/NNeL93dkJpwGK9N7P30kdgQpSoEOetledPgcA4PgU6AAATK3e1kbU2/Pf+PM7++04HHpUhioz486zMt8OeerMzsfNS9/+f5oEAIBv460gAABTrbe18Vf//GDmTNz/vJYoDVCU/TsPzLjzTJw+hzw5fQ4AwLNSoAMAMNW+fg/6sN2J2596RIZcmHHnWSjQIU8KdAAAnpW3gwAATLXe1kbMrSxGrTEb7+7UU8cBCmTGneMy3w55uthaVKADAPDMFOgAAEy91sZ34sN7zRiOTLdDTsy4c1xOn0OerivPAQA4AQU6AABTb+nmP8XDw9nUMYAxMOPOcSjQIU83L72cOgIAABWkQAcAYOo9d3k5Fs53U8cAxsCMO09jvh3ydLG1GJtnVlPHAACgghToAAAQEWtvbaaOAIyBGXeexulzyJPT5wAAnJQCHQAAImL9R99LHQEYEzPuPIkCHfJ0s38ldQQAACpKgQ4AABGxcKEbvReWU8cAxsCMO49jvh3ytNFdiYutxdQxAACoKAU6AAD82boZd8iSGXce51//8PvUEYAxcPocAIDTUKADAMCfuQcd8uUUOt/ml+bbIUvuPwcA4DQU6AAA8GdznfnoX1tLHQMYg51fvZc6AiXzzucfx0df3E8dAyjY9dXL0W00U8cAAKDCFOgAAPA1l66tp44AjMEff3c39m8/SB2DEvnZ7n+kjgCMwfbqi6kjAABQcQp0AAD4mv7rTqBDrsy483Xm2yFP2ysKdAAATkeBDgAAXzPXmY+1H7kLHXL07s/fSR2BkjDfDnn68aWXzbcDAHBqCnQAAPgbTqFDnsy481/Mt0OezLcDAFAEBToAAPyN/rX1aHTmUscAxsCMOxHm2yFHndl5BToAAIVQoAMAwLfoX1tPHQEYAzPumG+HPCnPAQAoigIdAAC+xcatV1JHAMbAjDvm2yFPP/nuD1JHAAAgEwp0AAD4Fs9dXo6F893UMYAxMOM+3cy3Q34uthZj88xq6hgAAGRCgQ4AAI9hxh3yZMZ9eplvhzxdN98OAECBFOgAAPAYa29tpo4AjIEZ9+llvh3ydPPSy6kjAACQEQU6AAA8xnOXl6P3wnLqGMAYmHGfTubbIT8b3RXz7QAAFEqBDgAAT7DuFDpkyYz79DHfDnm62b+SOgIAAJlRoAMAwBO4Bx3y9Mff3Y2DvUepYzBB5tshT9vuPwcAoGAKdAAAeIKFC91Y+YeLqWMAY7Dzq/dSR2CCzLdDfv7x7HfiYmsxdQwAADKjQAcAgKdYe+t7qSMAY7DrHvSpYb4d8nSz/3LqCAAAZEiBDgAAT9F/fS11BGAMdn79nhn3KWG+HfK0vWK+HQCA4inQAQDgKeY689G/pkSHHJlxnw7m2yE/11cvR7fRTB0DAIAMKdABAOAYLl1bTx0BGAMz7vkz3w552l51+hwAgPFQoAMAwDGsv7UZjc5c6hhAwcy45898O+SnMzsfNy9dSR0DAIBMKdABAOCY+k6hQ5bMuOfNfDvkx+lzAADGSYEOAADH1H/dPeiQIzPu+TLfDnlSoAMAME4KdAAAOKb+tfVYON9NHQMomBn3fJlvh/xcbC0q0AEAGCsFOgAAPAMz7pAnM+55Mt8O+bmuPAcAYMwU6AAA8AzW3tpMHQEYAzPu+THfDnm6eenl1BEAAMicAh0AAJ7Bc5eXzbhDhsy45+ff/vD71BGAgl1sLcbmmdXUMQAAyJwCHQAAnpFT6JAnM+55+dnOv6eOABTM6XMAACZBgQ4AAM9o/UffSx0BGINP3t5NHYGCfPTF/fjPB5+kjgEU7Gb/SuoIAABMAQU6AAA8o4UL3ei9sJw6BlCwHfegZ+MXH/8mdQSgYBvdlbjYWkwdAwCAKaBABwCAE1g34w7ZOdw7UKJnwnw75MfpcwAAJkWBDgAAJ+AedMiTe9Crz3w75Mn95wAATIoCHQAATmCuMx/9a2upYwAFcwK9+sy3Q36ur16ObqOZOgYAAFNCgQ4AACd06dp66ghAwRSr7TgAACAASURBVMy4V5/5dsjP9uqLqSMAADBFFOgAAHBC/dedQIccmXGvLvPtkKftFQU6AACTo0AHAIATmuvMx9qP3IUOuXECvbrMt0N+fnzpZfPtAABMlAIdAABOwSl0yI8Z9+oy3w75Md8OAMCkKdABAOAU+tfWo9GZSx0DKJgZ9+ox3w756czOK9ABAJg4BToAAJxS/9p66ghAwZxArx7z7ZAf5TkAACko0AEA4JTW33IPOuTGjHv1mG+H/NzsX0kdAQCAKaRABwCAU1p59VIsnO+mjgEUzIx7dZhvh/xcbC3GD85+J3UMAACmkAIdAAAKYMYd8uMEenWYb4f8XDffDgBAIgp0AAAowJoZd8jO4d5BfPbbu6ljcAzm2yE/Ny+9nDoCAABTSoEOAAAFeO7ycvReWE4dAyjYez9/J3UEnsJ8O+Rno7sSm2dWU8cAAGBKKdABAKAg606hQ3bMuJef+XbIz83+ldQRAACYYgp0AAAoiHvQIT/7dx6YcS858+2Qn233nwMAkJACHQAACrJwoWvGHTJkxr28zLdDfja6K3GxtZg6BgAAU0yBDgAABdq49UrqCEDBzLiXl/l2yM9P1n6QOgIAAFNOgQ4AAAXqv76WOgJQMDPu5WW+HfKzvWK+HQCAtBToAABQoLnOfPSvKdEhN2bcy8d8O+Tn+url6DaaqWMAADDlFOgAAFCwS9fWU0cACmbGvXzMt0N+tledPgcAID0FOgAAFGz9rc1odOZSxwAKZMa9fMy3Q146s/Nx89KV1DEAAECBDgAA49B3Ch2yY8a9PB4cfmm+HTLj9DkAAGWhQAcAgDHov+4edMiNGffy+MUn5tshNwp0AADKQoEOAABj0L+2bsYdMmPGvTzcfw556czOK9ABACgNBToAAIzJ+o++lzoCUDCn0NN7cPhl/PLj36aOARToZt/d5wAAlIcCHQAAxmTtrc3UEYCC7fzqvdQRpp75dsjPzUsvp44AAABfUaADAMCYPHd5ORbOd1PHAAr0x9/djf3bD1LHmGrm2yEvF1uLsXlmNXUMAAD4igIdAADGyCl0yI8Z93TMt0N+nD4HAKBsFOgAADBG7kGH/Lz783dSR5ha5tshP+4/BwCgbBToAAAwRgsXutF7YTl1DKBAZtzTMd8OednorsTF1mLqGAAA8FcU6AAAMGbrZtwhO2bcJ898O+TH6XMAAMpIgQ4AAGPWv7aeOgJQMDPuk2e+HfKzvfpi6ggAAPANCnQAABizhQvd6F9bSx0DKJAZ98kz3w55ub562Xw7AAClpEAHAIAJuOQUOmTHjPvkmG+H/Dh9DgBAWSnQAQBgAvqvO4EOuTHjPjnm2yE/2ysKdAAAykmBDgAAEzDXmY+1H22mjgEUyIz75Jhvh7z8+NLL0W00U8cAAIBvpUAHAIAJcQod8mPGffzMt0N+zLcDAFBmCnQAAJiQ/rX1aHTmUscACmTGffzMt0NeOrPzCnQAAEpNgQ4AABPUv7aeOgJQIDPu42e+HfKiPAcAoOwU6AAAMEHrb7kHHXLz8du7qSNky3w75Odm/0rqCAAA8EQKdAAAmKCVVy/Fwvlu6hhAgXbdgz425tshLxdbi/GDs99JHQMAAJ5IgQ4AABNmxh3ysvPr9+Jg71HqGFky3w55uW6+HQCAClCgAwDAhK2ZcYfs7PzqvdQRsmO+HfJz89LLqSMAAMBTKdABAGDCnru8HL0XllPHAApkxr145tshLxvdldg8s5o6BgAAPJUCHQAAElh3Ch2yYsa9eObbIS83+1dSRwAAgGNRoAMAQALuQYf8mHEvjvl2yM+2+88BAKgIBToAACSwcKFrxh0yY8a9OObbIS8b3ZW42FpMHQMAAI5FgQ4AAIls3HoldQSgQGbci2O+HfLyk7UfpI4AAADHpkAHAIBE+q+vpY4AFMyMezH+9d7vU0cACrS9Yr4dAIDqUKADAEAic5356F9TokNOzLif3i8+/k3sDZzkh1xcX70c3UYzdQwAADg2BToAACR06dp66ghAgcy4n575dsjL9qrT5wAAVIsCHQAAElp/azManbnUMYACmXE/HQU65KMzOx83L11JHQMAAJ6JAh0AABLrO4UOWTHjfnLm2yEvTp8DAFBFCnQAAEis/7p70CEnH7+9mzpCZTl9DnlRoAMAUEUKdAAASKx/bd2MO2TkcO8gdpxCPxEFOuSjMzuvQAcAoJIU6AAAUALrP/pe6ghAgdyD/uzMt0NebvbdfQ4AQDUp0AEAoATW3tpMHQEokBPoz87pc8jLzUsvp44AAAAnokAHAIASeO7yciyc76aOARTEjPuzU6BDPi62FmPzzGrqGAAAcCIKdAAAKAmn0CEvZtyPz3w75MXpcwAAqkyBDgAAJeEedMiLE+jH5/Q55MX95wAAVJkCHQAASmLhQjd6LyynjgEUxIz78SnQIR8b3ZW42FpMHQMAAE5MgQ4AACWybsYdsmLG/enMt0NenD4HAKDqFOgAAFAi/WvrqSMABXIC/emcPoe8bK++mDoCAACcigIdAABKZOFCN/rX1lLHAApixv3pFOiQj+url823AwBQeQp0AAAomUtOoUNWzLg/nvl2yIvT5wAA5ECBDgAAJdN/3Ql0yIkT6I/n9DnkZXtFgQ4AQPUp0AEAoGTmOvNm3CEjh3sH8cnbu6ljlJICHfJxffVydBvN1DEAAODUFOgAAFBCa29tpo4AFMiM+zeZb4e83Lx0JXUEAAAohAIdAABKqH9tPRqdudQxgIKYcf8mp88hH53ZefefAwCQDQU6AACUVP/aeuoIQEH27zyIz357N3WMUlGgQz6U5wAA5ESBDgAAJbVuxh2y8t7P30kdoTTMt0NebvbNtwMAkA8FOgAAlNTKq5di4Xw3dQygIGbc/8Lpc8jHxdZi/ODsd1LHAACAwijQAQCgxMy4Qz7MuP+FAh3ycd18OwAAmVGgAwBAia2ZcYesmHE33w65uXnp5dQRAACgUAp0AAAosecuL5txh4yYcY/41z/8PnUEoCAXW4uxeWY1dQwAACiUAh0AAEpu49YrqSMABTHjHvFL8+2QjZ989wepIwAAQOEU6AAAUHLuQYe8TPOM+zuffxwffXE/dQygINvuPwcAIEMKdAAAKLmFC93ovbCcOgZQkGmecf/Z7n+kjgAUZKO7Ehdbi6ljAABA4RToAABQAWbcIR/TPONuvh3y8ZM18+0AAORJgQ4AABXQf30tdQSgQNM4426+HfKyvWK+HQCAPCnQAQCgAuY689G/pkSHXHz89m7qCBNnvh3ycX31cnQbzdQxAABgLBToAABQEZeuraeOABTkj7+7G/u3H6SOMVHm2yEf26tOnwMAkC8FOgAAVET/9bVodOZSxwAKsvPrd1NHmBjz7ZCPzuy8+XYAALKmQAcAgIr404y7U+iQi3en6B508+2Qj+3VF823AwCQNQU6AABUSP9196BDLqZpxt18O+TDfDsAALlToAMAQIX0r62bcYeMTMOMu/l2yEdndl6BDgBA9hToAABQMes/+l7qCEBBpmHG3Xw75ONm/0rqCAAAMHYKdAAAqJi1tzZTRwAKMg0z7ubbIR83L72cOgIAAIydAh0AACrmucvLsXC+mzoGUJCcZ9zNt0M+LrYWY/PMauoYAAAwdgp0AACooP619dQRgILkPONuvh3ycd3d5wAATAkFOgAAVNDGrVdSRwAKkvOMu/l2yMf/+O4PUkcAAICJUKADAEAFLVzoRu+F5dQxgILkOONuvh3ysdFdiYutxdQxAABgIhToAABQUetvbaaOABQkxxl38+2Qj5v9K6kjAADAxCjQAQCgotyDDvnIccbdfDvkY9v95wAATBEFOgAAVNTChW70r62ljgEU5OO3d1NHKIz5dsjH9dXL5tsBAJgqCnQAAKiwS06hQzZ2M7oH3Xw75MPpcwAApo0CHQAAKqz/uhPokIudX78XB3uPUscohPl2yMf2igIdAIDpokAHAIAKm+vMm3GHjOz86r3UEU7NfDvk4/rq5eg2mqljAADARCnQAQCg4tbe2kwdAShIDjPu5tshHzcvXUkdAQAAJk6BDgAAFde/th6NzlzqGEABcphxN98OeejMzrv/HACAqaRABwCADPSvraeOABSkyjPu5tshH8pzAACmlQIdAAAysG7GHbJR5Rn3f/vD71NHAApys2++HQCA6aRABwCADKy8eikWzndTxwAKUOUZ95/t/HvqCEABLrYW4wdnv5M6BgAAJKFABwCATJhxh3xUccb9oy/ux38++CR1DKAA1823AwAwxRToAACQiTUz7pCNKs64/+Lj36SOABTk5qWXU0cAAIBkFOgAAJCJ5y4vm3GHTFRxxt18O+ThYmsxNs+spo4BAADJKNABACAjG7deSR0BKEiVZtzNt0M+fvLdH6SOAAAASSnQAQAgI+5Bh3xUacbdfDvkY9v95wAATDkFOgAAZGThQjd6LyynjgEU4OO3d1NHODbz7ZCHje5KXGwtpo4BAABJKdABACAzZtwhD4d7B7FTgVPo5tshHz9ZM98OAAAKdAAAyEz/9bXUEYCCVOEedPPtkI/tFfPtAACgQAcAgMzMdeajf02JDjmowgl08+2Qh+url6PbaKaOAQAAySnQAQAgQ5euraeOABSg7DPu5tshH9urTp8DAECEAh0AALLUf30tGp251DGAApR5xt18O+ShMztvvh0AAP5MgQ4AABn604y7U+iQgzKfQDffDnnYXn3RfDsAAPyZAh0AADLVf9096JCDss64m2+HfJhvBwCAv1CgAwBApvrX1s24QybKOONuvh3y0JmdV6ADAMDXKNABACBj6z/6XuoIQAHKeALdfDvk4Wb/SuoIAABQKgp0AADI2Npbm6kjAAUo24y7+XbIx81LL6eOAAAApaJABwCAjD13eTkWzndTxwAKUKYZd/PtkIeLrcXYPLOaOgYAAJSKAh0AADLXv7aeOgJQgDKdQDffDnm47u5zAAD4BgU6AABkbuPWK6kjAAU43DuIT97eTR3DfDtk5H989wepIwAAQOko0AEAIHMLF7rRe2E5dQygAGWYcTffDnnY6K7ExdZi6hgAAFA6CnQAAJgC629tpo4AFKAMM+7m2yEPN/tXUkcAAIBSUqADAMAUcA865GH/zoP47Ld3k32++XbIx7b7zwEA4Fsp0AEAYAosXOjGyj9cTB0DKMB7P38n2Webb4c8/OPZ75hvBwCAx1CgAwDAlFh763upIwAFSDnjbr4d8nCz/3LqCAAAUFoKdAAAmBL919dSRwAKkGrG/cHhl+bbIRPbK+bbAQDgcRToAAAwJeY689G/pkSHHKSYcf/FJ+bbIQfXVy9Ht9FMHQMAAEpLgQ4AAFNk7a3N1BGAAqSYcXf/OeTh5qUrqSMAAECpKdABAGCK9K+tR6MzlzoGcEqTnnF/cPhl/PLj307s84Dx6MzOx/aq+XYAAHgSBToAAEyZ/rX11BGAAkxyxt18O+RBeQ4AAE+nQAcAgCnTf9096JCDSc64m2+HPCjQAQDg6RToAAAwZfrX1mPhfDd1DOCUJjXjbr4d8nCxtahABwCAY1CgAwDAFDLjDnmYxIy7+XbIw3XlOQAAHMts6gAAAMDkzb/1f8T//N078XyrGc8NZ2Ll0SjmP34YC58PYuWLYcwfpU4IHMfHb++O/TPMt0O1jGrDGNVGcWZ+LuZn6zFTH8WDoy/jv194IXU0AACoBAU6AABMoe9fvhAXznbiwz/sxYf/9YertYjVRkREtGdn4/nmfJz5chSLg1EsvPt5nDkYxcoXo2SZgW/64+/uxv7tB7FwYTzXMphvh5KqjWJYG8b87Ew8N9+Ko5mjOBwdxqeHD776kXvxMGIQEYOIi81e/J+97yaLCwAAVaJABwCAKfV//7e/j//1//5/3/rvHg4G8Z97g7/8wXrjq/+5PD8XS41GnNs7isbBMM59sB+LB6M4c6BchxR2fv1ubNx6ZSy/23w7pDWcOYqojeJ8uxPD2jBqM6PYefSHr/79YUTsDfae+nv+n/7/NcaUAACQFwU6AABMqf/2yt89tkB/kruPDuLuo4P4z4iIuYi4/Jdy/flWM1oxE9/5wiQ8TMq7P39nfAW6+XYYu9HMMEYxirOt+ajPzHw1uX5/8PCrn/lw8MWpPuO/L7902pgAADA1FOgAADClLp7txouXzsZvdv/w9B8+pg+/+DIiIn7z/7N3N81R3+mep29J+ahMpURK4qRSWUgYkA0GESHCJRyuCWeNvZqAhdn5bKrew0TMciLmBcx5Eb3pXa963dHnnE13NJ52UC678EwYsAFjHo6rSjYCiZRmYcNBBoMeMvOXD9e1KjBkfqrK9ubL//5H7DgJHxHxZrm04yR8vhXxmx+22vbdMKw6dcbd+XZoo59PrlfyuRjPZGNzdDNa260dJ9e/23oYsRU/nV1vo7fKczFfONTeDwUAgAFmQAcAgCF2YXVpX0+h78fVH3789x88dxL+6fvWnz8Jn2953zrsRSfOuDvfDnu3Ndra8V7y0ZHYcXL9QTyMB20eyF/nUm2lu18IAAB9zoAOAABD7OL57g3ov+bp+9ZfdxJ+7O8bMfndIyfh4SU6ccbd+XZ4uedPrmfGRmNkdDvub67Fo63NiNj9e8m75aPaudQJAADQVwzoAAAwxCaKuXh/eSH++cqN1CkvteMkfCUiKjtPwuc3t+PwYyfhod1n3J1vZ9htj2zF9sh2VPK5yGfGXvpe8mcn13vYBzOnopIppM4AAIC+YkAHAIAh1+zhAf1VXncSvvJoO8oPnzgJz9Bo5xl359sZCj+/l/z5k+ub25s73kv+IB7+9E7yLp9db5cPZ06lTgAAgL5jQAcAgCHXXF6M/7v43+KH9Y3UKW3x9CR8RLxwEn4mn4vqaGbHSfjJje2obBjX6X/tPOPufDuDZGu0FTGyHbXxcmyNbMXI6PaO95L32sn1dpnIFAzoAACwDwZ0AAAYchPFXDSXF+I///fBP9d8//FG3I+N156Ez3/3MEp/f+IkPH2lXWfcnW+nHz09uV4t5mNsdPSlJ9e/ebKesLD7PnS+HQAA9sWADgAARHN5cSgG9FfZcRL+H0Yi/uGncf35k/CTT35633plw0l4elM7zrg7307P+vnkeiWfi/FMNjZHN6O13dpxcv3Ze8n79OR6O3n6HAAA9seADgAARHN5IcrF3MCccW+nHSfhI3a8b30mn4vpbDZmf2hF6e+bTsKTXDvOuDvfTmrPn1xvjbZidCR2nFx/EA/jgYH8lZxvBwCA/TOgAwAAERFDc8a9ne4/3oj7jzfiasQLJ+F/UyzEoa3RHSfhD69vRb6VqpZhcNAz7s630y3bo1uxHT+dXM+MjcbI6Hbc31yLR1ubz37NsJ1cbyfjOQAA7J8BHQAAiIiIf2yeNqC30Tfrj+Kbpz94zUn4fCu8b522+e5/3oo35t7a1+91vp12evpe8udPrq9vbex4L/mzk+u01R8a76VOAACAvmVABwAAIiJiqTEdc9VyfPtvP6ROGWi7PQmf3diK2Rs/OgnPnt3616/ijf9tnwO68+3s1c/vJc9nRuNQvhit0VZsbm/ueC+5k+vdVS9MxcnyXOoMAADoWwZ0AADgmebyYvzH//pZ6oyhteMkfC4iTuw8CV+M0Tiy7iQ8r3bzX6/Fxg+PI1fO7+n3Od/Oqzz/XvKtka0XTq5vRsQPT/wBrF7gfDsAAByMAR0AAHjm49+/bUDvUd+sP4qIiC8jdpyEj4h4s1yK/OZ2HH7sJDw/ufkv1/b8FLrz7Tw9uV4t5mNsdDRGx7ZjrfVox8l17yXvfX90vh0AAA7EgA4AADxTr07E0nw1vrz1b6lT2IOrP/z47z947iT80/etP38SPt/ajsPrTsIPuv2ccXe+fUj8fHL9+feSt7ZbO06uP3svubPrfeet8lzMFw6lzgAAgL5mQAcAAHa4sLoU//Sf/lvqDNrg6fvWX3cSfuzvGzH53SMn4QfIfs64/48HX3ewiG57/uR6a7QVoyMRNx//+x+O8l7ywXSptpI6AQAA+p4BHQAA2KF5dsGAPgR2nISvRETl5Sfhn75v3Un4/rOXM+7/5bsv44cnjztcRLttj27Fdvx0cj0zNvrCe8kjnFwfNt5/DgAAB2dABwAAdqhXJ2Ll+Fz8P//ft6lTSGTHSfjn3rf+9CR85dF2lB8+cRK+x+3ljLvz7b3r6XvJnz+5vr61seO95M9OrjPUfjt11Pl2AABoAwM6AADwgovnTxjQecHTk/AR8cJJ+Jl8LqqjmR0n4Sc3tqOyYVxPZS9n3A3oif38XvJ8ZjQO5YvRGm3F5vbmjveSO7nO63xUO5c6AQAABoIBHQAAeEFzeTH+r/iX1Bn0kfuPN+J+bOz6JLz3rXfHbs64O9/ePc+/l3xrZOuFk+ubEfHDkx/SRtK3nG8HAID2MKADAAAvmCjm4v3lhfjnKzdSpzAAdnMSfvLJdpS++ntUNpyEb6fdnHH39Hl7PT25Xi3mY2x0NEbHtmOt9WjHyXXvJafdPpg5FZVMIXUGAAAMBAM6AADwUhdXlwzodNSOk/AREW/sPAk/nc3G7A+tKP1900n4fdrNGXcD+j78fHL9+feSt7ZbO06uP3svubPrdMGl2krqBAAAGBgGdAAA4KWaywtRLubih/WN1CkMofuPN+L+4424GvHCSfjfFAtxaGvUSfhdetUZd+fbX+35k+ut0VaMjkTcfPxvz/6695LTCyYyBefbAQCgjQzoAADAr2ouL8R//u//b+oM2OGb9UfxzdMfPHcSPuKn960/fxI+34r4zQ9bSTp7xavOuHv6PGJ7dCu246eT65mx0RfeSx7h5Dq9zXgOAADtZUAHAAB+VXN50YBOX9nxvvVfOQmf3diK2Rs/Ds1J+O/+561f/WvDMqA/fS/58yfX17c2dryX/NnJdegzBnQAAGgvAzoAAPCrmssLMVctx7f/9kPqFDiQHSfhcxFxYudJ+GKMxpH17Rj7+0ZMfvdooE7Cb/6wETf/9ato/C9v7Pj5gTvf/vN7yfOZ0TiULzq5zlCoF6YM6AAA0GYGdAAA4JWay4vxH//rZ6kzoGO+WX8UERFfRrzwvvU3y6XIb27H4cf9fRL+5r9ce+mA3o+2R7die2QrauPl2BrZeuHk+mZE/PDEH/phOBjPAQCg/QzoAADAK11cPWFAZ2j92kn48UwmflPI7zgJn29tx+H13jwJf/Nfv4qID3b8XC8P6E9PrleL+RgbHY3Rse1Yaz3acXLde8kh4lLtXOoEAAAYOAZ0AADglZYa0864wy88fPIkrv7wZNcn4VO/b/2XZ9x74nz7L06ub45uRmu7Ffc21579kmfvJXd2HV5QL0zFyfJc6gwAABg4BnQAAOC1Pm6ejn/6T/8tdQb0hd2ehM9/9zBKf3/StZPwz59x7+bT51ujrYiR7aiNl1/6XnIn12F//th4L3UCAAAMJAM6AADwWs2zCwZ0aIMdJ+H/YSTiH34a15+ehK882o7ywycdOQn//Bn3dg/o26NbsR07T64//17yCCfXod28/xwAADrDgA4AALxWvToRS/PV+PLWv73+FwN79vQkfES8cBJ+Jp+L6mjmwCfhn55x/3Lpyb7Otz99L3kln4vxTDY2RzdjfWtjx3vJnVyH7nirPBfzhUOpMwAAYCAZ0AEAgF25sLrkKXRI4P7jjbgfGy89Cf+bYiEObY3uOAl/eH0r8q2Xf9bNf7kW/2XyFU+C/+K95C87uf4gHsYDAzkkdam2kjoBAAAG1sj29nb77sEBAAADa219I37/f/yH1BnALjx/En7yyXaUvvp7VDa2Y34sG//0v6/F2tZ6bI9sRW28HFsjWzEy+uLJdaB3/Y/f/Z9RyRRSZwAAwEDyBDoAALArE8VcvL+8EP985UbqFOA1dpyEj4h446en1seKo/FD9u/xJDYiwnvJoR99MHPKeA4AAB00mjoAAADoH83lhdQJwAF8e/hE/Nu936bOAA7gw5lTqRMAAGCgGdABAIBday4vpk4A9ik/XY2b5cPx3YNjUYn51DnAPhnQAQCgswzoAADArk0Uc3Fh9UTqDGAfPpk+9uw/f3Z9JWEJsF8f1VacbwcAgA4zoAMAAHviKXToP+uNo7GR/ffR7fGjarTWjOjQbzx9DgAAnWdABwAA9qS5vBDlYi51BrBLxfJ4fFmuvfDz1++8GaWRSoIiYD8mMgUDOgAAdIEBHQAA2LPm8kLqBGCXrswcj9ZY5oWf32rl4uqNdxMUAfthPAcAgO4woAMAAHv2j83TqROAXcjMHo610uSv/vX1h7UoPDnaxSJgv/7QeC91AgAADAUDOgAAsGdLjemYq5ZTZwCvkMtl45PpY6/9dX++dj7yI/kuFAH7VS9MxcnyXOoMAAAYCgZ0AABgX5rLi6kTgFe4PXvkpafbf2mrlYsH9892oQjYL+fbAQCgewzoAADAvlxcPZE6AfgVpZnp+Hqqvutf/+29k1GJ+Q4WAQdxqXYudQIAAAwNAzoAALAvS43pWJqvps4AXuLy5MKef89n11c6UAIc1FvlOefbAQCgiwzoAADAvl1YXUqdAPzCeuNorBdKe/59jx9VI7N+ugNFwEFcqvnDLQAA0E0GdAAAYN+aZ/f+lCvQOcXyeHxZru3791+9eSZKI5U2FgEH5f3nAADQXQZ0AABg3+rViVg57qws9Iprh49Gayyz79+/1crF7TvvtLEIOIjfTh2N+cKh1BkAADBUDOgAAMCBXDx/InUCEBGZ2cNxu1g98Ofc/b4RhSdH21AEHNRHtXOpEwAAYOgY0AEAgANpLi+mToChl89n49ND7Xulwl9urERhNN+2zwP2x/l2AADoPgM6AABwIBPFXLy/7F3okNKtmSOxkS207fM2N8tx/97Ztn0esHcfzJyKSqZ9/1wDAAC7Y0AHAAAOrGlAh2RKU5X4eqre9s/99t7Jpxpk6wAAIABJREFUqIzMtv1zgd3x9DkAAKRhQAcAAA7s4upSlIu51BkwlC5PH+/YZ3927XzHPhv4dROZQlyqraTOAACAoWRABwAA2sJT6NB92/NHYr1Q6tjnP35Ujcz66Y59PvBynj4HAIB0DOgAAEBbNJcXUyfAUCmWx+PKxHzHv+fqzTNRGql0/HuAf2dABwCAdAzoAABAWzSXF2KuWk6dAUPj2uGj0RrLdPx7tlq5uH3nnY5/D/CTemHKgA4AAAkZ0AEAgLbxFDp0R2b2cNwuVrv2fXe/b8T4Vr1r3wfDzHgOAABpGdABAIC2ubh6InUCDLx8PhufHlro+vd+fu3dKIzmu/69MGwu1c6lTgAAgKFmQAcAANpmqTHtjDt02F9nG7GRLXT9ezc3y/Hj397u+vfCMKkXpuJkeS51BgAADDUDOgAA0FYXV5dSJ8DAKk1V4ovJRrLv/+rWmaiMzCb7fhh0nj4HAID0DOgAAEBbXTjvjDt0yqdTi6kT4vMbK6kTYGBdqvnnCwAAUjOgAwAAbVWvTsTSfDV1Bgyc7fkjsVaaTJ0R6w9rkVk/nToDBs5b5bmYLxxKnQEAAEPPgA4AALTdBWfcoa2yuWxcmZhPnfHM1ZtnIjeST50BA8XT5wAA0BsM6AAAQNtdPG9Ah3b6prEUrbFM6oxntlq5uHfnd6kzYKB85P3nAADQEwzoAABA200Uc/H+8kLqDBgI+elq3C723msR7n7fiPGteuoMGAgfzJyKSqaQOgMAAAgDOgAA0CFNAzocWD6fjU+mj6XO+FWfX3s3CqNOucNBfThzKnUCAADwMwM6AADQEc3lxdQJ0Pf+OtuIjWzvPpW6uVmOH//2duoM6HsGdAAA6B0GdAAAoCMmirm4sHoidQb0rdJUJb6YbKTOeK2vbp2J0kgldQb0rY9qK863AwBADzGgAwAAHeMpdNi/T6cWUyfs2tUb76ZOgL7l6XMAAOgtBnQAAKBjmssLUS7mUmdA38nW67FWmkydsWvrD2sxvvlm6gzoOxOZggEdAAB6jAEdAADoqObyQuoE6CvZXDYuV/rvn5s/XV+J3Eg+dQb0FeM5AAD0HgM6AADQUf/YPJ06AfrKrbk3ojWWSZ2xZ1utXNy/+07qDOgrf2i8lzoBAAD4BQM6AADQUUuN6ZirllNnQF/IT1fjZvlw6ox9++7BsRjfqqfOgL5QL0zFyfJc6gwAAOAXDOgAAEDHNZcXUydAX/hk+ljqhAP7/Nq7qROgLzjfDgAAvcmADgAAdNzF1ROpE6DnrTeOxka2kDrjwDY3y9FaW0mdAT3vUu1c6gQAAOAlDOgAAEDHLTWmY2m+mjoDelaxPB5fTDZSZ7TNV7fORGmkkjoDetZb5Tnn2wEAoEcZ0AEAgK64sLqUOgF61pWZ46kT2u7qDafc4ddcqrnSAAAAvcqADgAAdEXz7ELqBOhJ2Xo91kqTqTPabv1hLcY330ydAT3J+88BAKB3GdABAICuqFcnYuW4c7XwvGwuG5crg/uHS/50fSXyI/nUGdBTfjt1NOYLh1JnAAAAv8KADgAAdM3F8ydSJ0BPuTX3RrTGMqkzOmarlYsH98+mzoCe8lHtXOoEAADgFQzoAABA1zSXF1MnQM8ozUzHzfLh1Bkd9+29k1GJ+dQZ0DOcbwcAgN5mQAcAALpmopiL95cH91w17MXlyeH5Z+Gz6yupE6AnfDBzKiqZQuoMAADgFQzoAABAVzUN6BDrjaOxXiilzuiax4+q0VozooOnzwEAoPcZ0AEAgK66uLoU5WIudQYkUyyPx5flWuqMrrt+580ojVRSZ0AyE5lCXKr5gyQAANDrDOgAAEDXeQqdYXZl5ni0xjKpM7puq5WLqzfeTZ0ByXj6HAAA+oMBHQAA6Lrm8mLqBEgiM3s41kqTqTOSWX9Yi8KTo6kzIAkDOgAA9AcDOgAA0HXN5YWYq5ZTZ0BX5XLZ+GT6WOqM5P587XzkR/KpM6Cr6oUpAzoAAPQJAzoAAJCEp9AZNrdnjwzl6fZf2mrl4sH9s6kzoKuM5wAA0D8M6AAAQBIXV0+kToCuKc1Mx9dT9dQZPePbeyejEvOpM6BrLtXOpU4AAAB2yYAOAAAksdSYdsadoXF5ciF1Qs/57PpK6gToinphKk6W51JnAAAAu2RABwAAkrm4upQ6ATpuvXE01gul1Bk95/GjamTWT6fOgI7z9DkAAPQXAzoAAJDMhfPOuDPYiuXx+LJcS53Rs67ePBOlkUrqDOioSzXXFgAAoJ8Y0AEAgGTq1YlYmq+mzoCOuXb4aLTGMqkzetZWKxe377yTOgM65q3yXMwXDqXOAAAA9sCADgAAJHXBGXcGVGb2cNwu+gMir3P3+0YUnhxNnQEd4elzAADoPwZ0AAAgqYvnDegMnnw+G58eWkid0Tf+cmMlCqP51BnQdh/OnEqdAAAA7JEBHQAASGqimIv3lw2NDJZbM0diI1tIndE3NjfLcf/e2dQZ0FYfzJxyvh0AAPqQAR0AAEiuaUBngJSmKvH1VD11Rt/59t7JqIzMps6AtvH0OQAA9CcDOgAAkFxzeTF1ArTN5enjqRP61mfXzqdOgLYxoAMAQH8yoAMAAMlNFHNxYfVE6gw4sO35I7FeKKXO6FuPH1Ujs346dQYc2Ee1lahkvMYBAAD6kQEdAADoCZ5Cp98Vy+NxZWI+dUbfu3rzTORG8qkz4EA8fQ4AAP3LgA4AAPSE5vJClIu51Bmwb9cOH43WWCZ1Rt/bauXi3p3fpc6AfZvIFAzoAADQxwzoAABAz2guL6ROgH3JT1fjdrGaOmNg3P2+EeNb9dQZsC/GcwAA6G8GdAAAoGdcXF1KnQB7ls9n45PpY6kzBs7n196NwqhT7vSfS7WV1AkAAMABGNABAICece7EXMxVy6kzYE/+OtuIjWwhdcbA2dwsx49/ezt1BuxJvTAVv516I3UGAABwAAZ0AACgpzSXF1MnwK6VpirxxWQjdcbA+urWmaiMzKbOgF1zvh0AAPqfAR0AAOgpF1dPpE6AXft0ajF1wsD7/IZz2PSPS7VzqRMAAIADMqADAAA9ZakxHUvz1dQZ8Frb80dirTSZOmPgrT+sRWb9dOoMeK23ynNxsjyXOgMAADggAzoAANBzLqwupU6AV8rmsnFlYj51xtC4evNM5EbyqTPglS7VXEsAAIBBYEAHAAB6TvPsQuoEeKVvGkvRGsukzhgaW61c3Lvzu9QZ8Erefw4AAIPBgA4AAPScenXCGXd6Vn66GreL/v7strvfN2J8q546A17qrfJczBcOpc4AAADawIAOAAD0pI9/753H9J58PhufTB9LnTG0Pr/2buoEeKk/NN5LnQAAALSJAR0AAOhJzeXF1Anwgr/ONmIjW0idMbQ2N8vRWvOeaXqP8+0AADA4DOgAAEBPmijm4v1l70KndxTL4/HFZCN1xtD76taZKI1UUmfAMx/MnIpKxh+sAQCAQWFABwAAelbTgE4PuTJzPHUCP7t6wyl3eoenzwEAYLAY0AEAgJ51cXUpysVc6gyIbL0ea6XJ1Bn8bP1hLcY330ydATGRKcSlmtcKAADAIDGgAwAAPc1T6KSWzWXjcsXfh73mT9dXIjeST53BkPP0OQAADB4DOgAA0NOay4upExhyt+beiNZYJnUGv7DVysX9u++kzmDIGdABAGDwGNABAICe1lxecMadZPLT1bhZPpw6g1/x3YNjMb5VT53BkJrIFAzoAAAwgAzoAABAz7u4upQ6gSH1yfSx1Am8xufX3k2dwJD6yLvPAQBgIBnQAQCAnndx9UTqBIbQeuNobGQLqTN4jc3NcrTWDJl036XaudQJAABABxjQAQCAnrfUmI65ajl1BkOkWB6PLyYbqTPYpa9unYnSSCV1BkOkXpiKk+W51BkAAEAHGNABAIC+4Iw73XRl5njqBPbo6g2n3OkeT58DAMDgMqADAAB94cJ5Z9zpjmy9HmulydQZ7NH6w1oUnhxNncGQuOT95wAAMLAM6AAAQF+oVydiab6aOoMBl8tl43JlIXUG+/Tna+cjP5JPncGAe6s8F/OFQ6kzAACADjGgAwAAfeOCM+502O3ZI9Eay6TOYJ+2Wrl4cP9s6gwGnKfPAQBgsBnQAQCAvtE868lgOqc0Mx1fT9VTZ3BA3947GZWYT53BAPtw5lTqBAAAoIMM6AAAQN+oVyfi/WUjOp1xedLfW4Pis+ueEKYzPpg55Xw7AAAMOAM6AADQV5oGdDpgvXE01gul1Bm0yeNH1WitGdFpP0+fAwDA4DOgAwAAfaW5vJg6gQFTLI/Hl+Va6gza7PqdN6M0UkmdwYAxoAMAwOAzoAMAAH1lopiLC6snUmcwQK7MHI/WWCZ1Bm221crF1Rvvps5ggHxUW4lKppA6AwAA6DADOgAA0Hc8hU67ZGYPx1ppMnUGHbL+sBaFJ0dTZzAgPH0OAADDwYAOAAD0nebyQpSLudQZ9LlcLhufTB9LnUGH/fna+ciP5FNn0OcmMgUDOgAADAkDOgAA0JeaywupE+hzt2ePON0+BLZauXhw/2zqDPqc8RwAAIaHAR0AAOhLF1eXUifQx0oz0/H1VD11Bl3y7b2TURmZTZ1BH7tUW0mdAAAAdIkBHQAA6EvnTszFXLWcOoM+dXnSBYNh89m186kT6FP1wlT8duqN1BkAAECXGNABAIC+1VxeTJ1AH9qePxLrhVLqDLrs8aNqZNZPp86gDznfDgAAw8WADgAA9K2LqydSJ9BniuXxuDIxnzqDRK7ePBOlkUrqDPrMpdq51AkAAEAXGdABAIC+tdSYjqX5auoM+si1w0ejNZZJnUEiW61c3L7zTuoM+shb5bk4WZ5LnQEAAHSRAR0AAOhrF1aXUifQJzKzh+N20R+4GHZ3v29E4cnR1Bn0iUu1ldQJAABAlxnQAQCAvtY8u5A6gT6Qz2fj00P+XuEnf7mxEoXRfOoM+oD3nwMAwPAxoAMAAH2tXp1wxp3XujVzJDayhdQZ9IjNzXLcv3c2dQY97q3yXMwXDqXOAAAAusyADgAA9L2Pf386dQI9rDRVia+n6qkz6DHf3jsZlZHZ1Bn0sD803kudAAAAJGBABwAA+l5zeTF1Aj3s8vTx1An0qM+unU+dQA9zvh0AAIaTAR0AAOh7E8VcvL/s/da8aHv+SKwXSqkz6FGPH1Ujs+6CBS/6YOZUVDJe+wAAAMPIgA4AAAyEpgGdX8jmsnFlYj51Bj3u6s0zkRvJp86gx3j6HAAAhpcBHQAAGAgXV5eiXMylzqCHfNNYitZYJnUGPW6rlYt7d36XOoMeMpEpxKXaSuoMAAAgEQM6AAAwMDyFzlP56WrcLlZTZ9An7n7fiPGteuoMeoSnzwEAYLgZ0AEAgIHRXF5MnUAPyOez8cn0sdQZ9JnPr70bhVGn3DGgAwDAsDOgAwAAA6O5vOCMO/HX2UZsZAupM+gzm5vl+PFvb6fOILGJTMGADgAAQ86ADgAADJSLq0upE0ioNFWJLyYbqTPoU1/dOhOVkdnUGST0kXefAwDA0DOgAwAAA+Xi6onUCST06dRi6gT63Oc3DKjD7FLtXOoEAAAgMQM6AAAwUJYa0zFXLafOIIHt+SOxVppMnUGfW39Yi8z66dQZJFAvTMXJ8lzqDAAAIDEDOgAAMHCccR8+2Vw2rkzMp85gQFy9eSZyI/nUGXSZp88BAIAIAzoAADCALpx3xn3YfNNYitZYJnUGA2KrlYv7d99JnUGXXfL+cwAAIAzoAADAAKpXJ2Jpvpo6gy7JT1fjdtH/37TXdw+OxfhWPXUGXfJWeS7mC4dSZwAAAD3AgA4AAAykC864D41Ppo+lTmBAfX7t3dQJdImnzwEAgKcM6AAAwEBqnl1InUAXrDeOxka2kDqDAbW5WY7WmmF1GHw4cyp1AgAA0CMM6AAAwECqVyfi/WUj+iArlsfji8lG6gwG3Fe3zkRppJI6gw76YOaU8+0AAMAzBnQAAGBgNQ3oA+3KzPHUCQyJqzecch9knj4HAACeZ0AHAAAGVnN5MXUCHZKt12OtNJk6gyGx/rAW45tvps6gQwzoAADA8wzoAADAwJoo5pxxH0DZXDYuV/z/Snf96fpK5EbyqTNosw9mTkUlU0idAQAA9BADOgAAMNAuri6lTqDNbs29Ea2xTOoMhsxWKxf3776TOoM2u1RbSZ0AAAD0GAM6AAAw0JrLC1Eu5lJn0Cb56WrcLB9OncGQ+u7BsRjfqqfOoE0mMgXn2wEAgBcY0AEAgIHXdMZ9YHwyfSx1AkPu82vvpk6gTYznAADAyxjQAQCAgeeM+2BYbxyNjax3FZPW5mY5WmvOfg8C59sBAICXMaADAAAD79yJuZirllNncADF8nh8MdlInQEREXH9zptRGqmkzuAA6oWp+O3UG6kzAACAHmRABwAAhkJzeTF1AgdwZeZ46gR4ZquVi6s3nHLvZ863AwAAv8aADgAADIWLqydSJ7BPmdnDsVaaTJ0BO6w/rEXhydHUGezTpdq51AkAAECPMqADAABDYakx7Yx7H8rlsvHJ9LHUGfBSf752PvIj+dQZ7FG9MBUny3OpMwAAgB5lQAcAAIbGx83TqRPYo9uzR6I1lkmdAS+11crFg/tnU2ewR39svJc6AQAA6GEGdAAAYGg0zy6kTmAPSjPT8fVUPXUGvNK3905GJeZTZ7AH3n8OAAC8igEdAAAYGvXqRCzNV1NnsEuXJ/2BB/rDZ9dXUiewS2+V52K+cCh1BgAA0MMM6AAAwFD5+PfOuPeD9cbRWC+UUmfArjx+VI3WmhG9H/zB+XYAAOA1DOgAAMBQaS4vpk7gNYrl8fiyXEudAXty/c6bURqppM7gNZxvBwAAXseADgAADJWJYi7eX3YavJddmTkerbFM6gzYk61WLq7eeDd1Bq/wwcypqGQKqTMAAIAeZ0AHAACGTtOA3rMys4djrTSZOgP2Zf1hLQpPjqbO4Fd4+hwAANgNAzoAADB0msuLUS7mUmfwC7lcNj6ZPpY6Aw7kLzdWojCaT53BL0xkCgZ0AABgVwzoAADA0Jko5jyF3oNuzx5xup2+t7lZjvv3zqbO4Bc+dL4dAADYJQM6AAAwlJrLi6kTeE5pqhJfT9VTZ0BbfHvvZFRGZlNn8BxPnwMAALtlQAcAAIZSc3nBGfcecnn6eOoEaKvPrp1PncDPnG8HAAD2woAOAAAMrYurS6kTiIjt+SOxXiilzoC2evyoGpn106kziIiPaiupEwAAgD5iQAcAAIbWxdUTqROGXrE8Hlcm5lNnQEdcvXkmSiOV1BlD71LtXOoEAACgjxjQAQCAobXUmI65ajl1xlC7dvhotMYyqTOgI7Zaubh9553UGUOtXpiKk+W51BkAAEAfMaADAABDrbm8mDphaGVmD8ftYjV1BnTU3e8bUXhyNHXG0PLucwAAYK8M6AAAwFD7+Pdvp04YSvl8Nj49tJA6A7riLzdWojCaT50xlP7YeC91AgAA0GcM6AAAwFCrVydiad5T0N12a+ZIbGQLqTOgKzY3y3H/3tnUGUPnrfJczBcOpc4AAAD6jAEdAAAYehdWl1InDJXSVCW+nqqnzoCu+vbeyaiMzKbOGCqXaiupEwAAgD5kQAcAAIZe86xT4t306dRi6gRI4vMbBt1u8v5zAABgPwzoAADA0KtXJ+L9ZSN6N2zPH4m10mTqDEhi/WEtMuunU2cMhQ9mTjnfDgAA7IsBHQAAICKaBvSOy+aycWViPnUGJHX15pnIjeRTZww8T58DAAD7ZUAHAACIiObyYuqEgfdNYylaY5nUGZDUVisX9+78LnXGwDOgAwAA+2VABwAAiIiJYs4Z9w7KT1fjdrGaOgN6wt3vGzG+VU+dMbA+mDkVlUwhdQYAANCnDOgAAAA/u7i6lDphIOXz2fhk+ljqDOgpn197NwqjTrl3wqXaSuoEAACgjxnQAQAAftZcXohyMZc6Y+D8dbYRG1lPg8LzNjfL8ePf3k6dMXAmMgXn2wEAgAMxoAMAADyn6Yx7W5WmKvHFZCN1BvSkr26dicrIbOqMgWI8BwAADsqADgAA8Bxn3Nvr06nF1AnQ0z6/4dx4OznfDgAAHJQBHQAA4DnnTszFXLWcOmMgbM8fibXSZOoM6GnrD2uRWT+dOmMg1AtT8dupN1JnAAAAfc6ADgAA8AvN5cXUCX0vm8vGlYn51BnQF67ePBO5kXzqjL7nfDsAANAOBnQAAIBfuLh6InVC37s190a0xjKpM6AvbLVycf/uO6kz+t6l2rnUCQAAwAAwoAMAAPzCUmPaGfcDyE9X42b5cOoM6CvfPTgW41v11Bl9q16YipPludQZAADAADCgAwAAvMTHTe8k3q9Ppo+lToC+9Pm1d1Mn9K0/Nt5LnQAAAAwIAzoAAMBLNM8upE7oS+uNo7GRLaTOgL60uVmO1tpK6oy+5P3nAABAuxjQAQAAXqJenYil+WrqjL5SLI/HF5ON1BnQ1766dSZKI5XUGX3lrfJczBcOpc4AAAAGhAEdAADgV3z8e2fc9+LKzPHUCTAQrt5wyn0v/uB8OwAA0EYGdAAAgF/RXF5MndA3svV6rJUmU2fAQFh/WIvxzTdTZ/QN59sBAIB2MqADAAD8ioliLt5f9i7018nmsnG54n8naKc/XV+J3Eg+dUbP+2DmVFQyhdQZAADAADGgAwAAvELTgP5at+beiNZYJnUGDJStVi7u330ndUbP8/Q5AADQbgZ0AACAV2guL0a5mEud0bPy09W4WT6cOgMG0ncPjkUl5lNn9KyJTMGADgAAtJ0BHQAA4BUmijlPob/CJ9PHUifAQPvs+krqhJ71ofPtAABABxjQAQAAXqO5vJg6oSetN47GRtZ4BZ30+FE1WmtG9Jfx9DkAANAJBnQAAIDXaC4vOOP+C8XyeHxZrqXOgKFw/c6bURqppM7oKc63AwAAnWJABwAA2IWLq0upE3rKlZnj0RrLpM6AobDVysXVG++mzugpH9U8lQ8AAHSGAR0AAGAXLq6eSJ3QMzKzh2OtNJk6A4bK+sNaFJ4cTZ3RMy7VzqVOAAAABpQBHQAAYBeWGtMxVy2nzkgul8vGJ9PHUmfAUPrztfORH8mnzkiuXpiKk+W51BkAAMCAMqADAADsUnN5MXVCcrdnjzjdDolstXLx4P7Z1BnJefc5AADQSQZ0AACAXfr492+nTkiqNDMdX0/VU2fAUPv23smoxHzqjKT+2HgvdQIAADDADOgAAAC7VK9OxNJ8NXVGMpcnF1InABHx2fWV1AnJvFWei/nCodQZAADAADOgAwAA7MGF1aXUCUmsN47GeqGUOgOIiMePqtFaG84R/VJtOP97AwAA3WNABwAA2IPm2eF7CrtYHo8vy7XUGcBzrt95M0ojldQZXef95wAAQKcZ0AEAAPagXp2IleNzqTO66srM8WiNZVJnAM/ZauXi9p13Umd01W+njjrfDgAAdJwBHQAAYI8unj+ROqFrMrOHY600mToDeIm73zei8ORo6oyu+ah2LnUCAAAwBAzoAAAAe9RcXkyd0BX5fDY+PTR8J+uhn/zlxkoURvOpM7rC+XYAAKAbDOgAAAB7NFHMxfvLgz8s35o5EhvZQuoM4BU2N8tx/97Z1Bkd98HMqahk/PsIAADoPAM6AADAPlxcXUqd0FGlqUp8PVVPnQHswrf3TkZlZDZ1Rkddqq2kTgAAAIaEAR0AAGAfmssLUS7mUmd0zOXp46kTgD347Nr51AkdM5EpON8OAAB0jQEdAABgn5oDesZ9e/5IrBdKqTOAPXj8qBqZ9dOpMzrCeA4AAHSTAR0AAGCfmsuLqRParlgejysT86kzgH24evNMlEYqqTPazoAOAAB0kwEdAABgn5rLCzFXLafOaKtrh49GayyTOgPYh61WLm7feSd1RlvVC1MGdAAAoKsM6AAAAAcwSE+hZ2YPx+1iNXUGcAB3v29E4cnR1BltYzwHAAC6zYAOAABwABdXT6ROaIt8PhufHhrMd7rDsPnLjZUojOZTZ7TFpdq51AkAAMCQMaADAAAcwFJjeiDOuP91thEb2ULqDKANNjfL8ePf3k6dcWD1wlScLM+lzgAAAIaMAR0AAOCAPm6eTp1wIKWpSnwx2UidAbTRV7fORGVkNnXGgfyx8V7qBAAAYAgZ0AEAAA6oeba/T59/OrWYOgHogM9vrKROOBDvPwcAAFIwoAMAABxQvToRS/PV1Bn7sj1/JNZKk6kzgA5Yf1iLzHp/Xsh4qzwX84VDqTMAAIAhZEAHAABogwurS6kT9iyby8aVifnUGUAHXb15JnIj+dQZe3ap1t9PzwMAAP3LgA4AANAGF8/334D+TWMpWmOZ1BlAB221cnHvzu9SZ+zZR7VzqRMAAIAhZUAHAABog4liLt5f7p93oeenq3G72J9n54G9uft9I8a36qkzdu2DmVNRyRRSZwAAAEPKgA4AANAmzT4Z0PP5bHwyfSx1BtBFn197Nwqj/XHK/cOZU6kTAACAIWZABwAAaJPm8mKUi7nUGa/119lGbGQ93QnDZHOzHD/+7e3UGa81kSkY0AEAgKQM6AAAAG0yUcz1/FPopalKfDHZSJ0BJPDVrTNRGZlNnfFKHzrfDgAAJGZABwAAaKPm8mLqhFf6dGoxdQKQ0Oc3VlInvJKnzwEAgNQM6AAAAG3UXF7o2TPu2Xo91kqTqTOAhNYf1mJ8883UGS/lfDsAANALDOgAAABt1otn3LO5bFyu9F4X0H1/ur4SuZF86owXGM8BAIBeYEAHAABos39snk6d8IJbc29EayyTOgPoAVutXNy/+07qjBf8ofFe6gQAAAADOgAAQLstNaZjrlpOnfFMfroaN8uHU2cAPeS7B8difKueOuOZemEqTpbnUmcAAAAY0AEAADqhubyYOuGZT6aPpU4AetDn195NnfCM8+0AAECvMKADAAB0wMe/fzt1QkRErDcLyJZHAAAgAElEQVSOxka2kDoD6EGbm+Vora2kzoiIiD863w4AAPQIAzoAAEAH1KsTsTRfTdpQLI/HF5ONpA1Ab/vq1pkojVSSNrxVnov5wqGkDQAAAE8Z0AEAADrkwupS0u+/MnM86fcD/eHqjbSn3C/VeuMpeAAAgAgDOgAAQMc0zy4k++5svR5rpclk3w/0j/WHtRjffDPZ93v/OQAA0EsM6AAAAB1Sr07EyvG5rn9vNpeNy5V04z3Qf/50fSVyI/muf+9vp4463w4AAPQUAzoAAEAHXTx/ouvfeWvujWiNZbr+vUD/2mrl4v7dd7r+vR/VznX9OwEAAF7FgA4AANBBzeXFrn5faWY6bpYPd/U7gcHw3YNjUYn5rn6n8+0AAECvMaADAAB00EQxF+8vd++c+uVJp9uB/fvs+krXvuuDmVNRyRS69n0AAAC7YUAHAADosIurS135nvXG0VgvlLryXcBgevyoGq217ozol2rdG+sBAAB2y4AOAADQYc3lhSgXcx39jmJ5PL4s1zr6HcBwuH7nzSiNVDr6HROZgvPtAABATzKgAwAAdEGzw2fcr8wcj9ZYpqPfAQyHrVYurt54t6PfYTwHAAB6lQEdAACgC5rLix377Mzs4VgrTXbs84Hhs/6wFoUnRzv2+QZ0AACgVxnQAQAAuqC5vBBz1XLbPzeXy8Yn08fa/rkAf752PvIj+bZ/br0wZUAHAAB6lgEdAACgSzrxFPrt2SNOtwMdsdXKxYP7Z9v+ucZzAACglxnQAQAAuuTi6om2fl5pZjq+nqq39TMBnvftvZNRifm2fual2rm2fh4AAEA7GdABAAC6ZKkx3dYz7pcnF9r2WQC/5rPrK237rHphKk6W59r2eQAAAO1mQAcAAOiij5un2/I5642jsV4oteWzAF7l8aNqZNbb8++uPzbea8vnAAAAdIoBHQAAoIuaZw/+1HixPB5flmttqAHYnas3z0RppHLgz/H+cwAAoNcZ0AEAALqoXp2IpfnqgT7j2uGj0RrLtKkI4PW2Wrm4feedA33GW+W5mC8calMRAABAZxjQAQAAuuzC6tK+f29m9nDcLh5sgAfYj7vfN6Lw5Oi+f/+lWvvepQ4AANApBnQAAIAuu3h+fwN6Pp+NTw8d/AQ8wH795cZKFEbz+/q9H9XOtbkGAACg/QzoAAAAXTZRzMX7y3sfwm/NHImNbKEDRQC7s7lZjvv3zu75930wcyoqGf/+AgAAep8BHQAAIIHmHgf00lQlvp6qd6gGYPe+vXcyKiOze/o9H86c6lANAABAexnQAQAAEmguL0a5mNv1r788fbyDNQB789m187v+tROZggEdAADoGwZ0AACABCaKuV0/hb49fyTWC6UOFwHs3uNH1cisn97Vr/3Q+XYAAKCPGNABAAASaS4vvvbXFMvjcWVivvMxAHt09eaZKI1UXvvrPH0OAAD0EwM6AABAIs3lhdeecb92+Gi0xjJdKgLYva1WLm7feeeVv8b5dgAAoN8Y0AEAABJ61Rn3zOzhuF2sdrEGYG/uft+I8a36r/514zkAANBvDOgAAAAJ/WPz5e8Qzuez8emh3b0jHSClz6+9G4XR/Ev/2h8a73W5BgAA4GAM6AAAAAktNaZjrlp+4ef/OtuIjWwhQRHA3mxuluPHv739ws/XC1NxsjyXoAgAAGD/DOgAAACJNZcXd/y4NFWJLyYbaWIA9uGrW2eiMjK74+ecbwcAAPqRAR0AACCxi6sndvz406nFNCEAB/D5jZUdP75UO5eoBAAAYP8M6AAAAIktNaZjab4aERHb80dirTSZuAhg79Yf1iKzfjoiIt4qzznfDgAA9CUDOgAAQA+4sLoU2Vw2rkzMp04B2LerN89EbiQfl2orr//FAAAAPSiTOgAAAICI5tmF+A83NuJ31UrqFIADGI+xjf/V+88BAIC+NbK9vb2dOgIAAAAAAAAAUnPCHQAAAAAAAADCgA4AAAAAAAAAEWFABwAAAAAAAICIMKADAAAAAAAAQEQY0AEAAAAAAAAgIgzoAAAAAAAAABARBnQAAAAAAAAAiAgDOgAAAAAAAABEhAEdAAAAAAAAACLCgA4AAAAAAAAAEWFABwAAAAAAAICIMKADAAAAAAAAQEQY0AEAAAAAAAAgIgzoAAAAAAAAABARBvT/n717PVIrydqGvb435j+MBdAWQFsAbQG0BVAWCFlQyAIhC4qyoMECgQUCCwQWaGOBvh96SqPu1qEOwErY1xVRMTMx3bVXbTaQmXceAAAAAAAAACAiBOgAAAAAAAAAEBECdAAAAAAAAACICAE6AAAAAAAAAESEAB0AAAAAAAAAIkKADgAAAAAAAAARIUAHAAAAAAAAgIgQoAMAAAAAAABARAjQAQAAAAAAACAiBOgAAAAAAAAAEBECdAAAAAAAAACICAE6AAAAAAAAAESEAB0AAAAAAAAAIkKADgAAAAAAAAARIUAHAAAAAAAAgIgQoAMAAAAAAABARAjQAQAAAAAAACAiBOgAAAAAAAAAEBECdAAAAAAAAACICAE6AAAAAAAAAESEAB0AAAAAAAAAIkKADgAAAAAAAAARIUAHAAAAAAAAgIgQoAMAAAAAAABARAjQAQAAAAAAACAiBOgAAAAAAAAAEBECdAAAAAAAAACICAE6AAAAAAAAAESEAB0AAAAAAAAAIkKADgAAAAAAAAARIUAHAAAAAAAAgIgQoAMAAAAAAABARAjQAQAAAAAAACAiBOgAAAAAAAAAEBECdAAAAAAAAACICAE6AAAAAAAAAESEAB0AAAAAAAAAIkKADgAAAAAAAAARIUAHAAAAAAAAgIgQoAMAAAAAAABARAjQAQAAAAAAACAiBOgAAAAAAAAAEBECdAAAAAAAAACICAE6AAAAAAAAAESEAB0AAAAAAAAAIkKADgAAAAAAAAARIUAHAAAAAAAAgIgQoAMAAAAAAABARAjQAQAAAAAAACAiBOgAAAAAAAAAEBECdAAAAAAAAACICAE6AAAAAAAAAESEAB0AAAAAAAAAIkKADgAAAAAAAAARIUAHAAAAAAAAgIgQoAMAAAAAAABARAjQAQAAAAAAACAiBOgAAAAAAAAAEBECdAAAAAAAAACICAE6AAAAAAAAAESEAB0AAAAAAAAAIkKADgAAAAAAAAARIUAHAAAAAAAAgIgQoAMAAAAAAABARAjQAQAAAAAAACAiBOgAAAAAAAAAEBECdAAAAAAAAACICAE6AAAAAAAAAESEAB0AAAAAAAAAIkKADgAAAAAAAAARIUAHAAAAAAAAgIgQoAMAAAAAAABARAjQAQAAAAAAACAiBOgAAAAAAAAAEBECdAAAAAAAAACICAE6AAAAAAAAAESEAB0AAAAAAAAAIkKADgAAAAAAAAARIUAHAAAAAAAAgIgQoAMAAAAAAABARAjQAQAAAAAAACAiBOgAAAAAAAAAEBECdAAAAAAAAACICAE6AAAAAAAAAESEAB0AAAAAAAAAIkKADgAAAAAAAAARIUAHAAAAAAAAgIgQoAMAAAAAAABARAjQAQAAAAAAACAiBOgAAAAAAAAAEBECdAAAAAAAAACICAE6AAAAAAAAAESEAB0AAAAAAAAAIkKADgAAAAAAAAARIUAHAAAAAAAAgIgQoAMAAAAAAABARAjQAQAAAAAAACAiBOgAAAAAAAAAEBECdAAAAAAAAACICAE6AAAAAAAAAESEAB0AAAAAAAAAIkKADgAAAAAAAAARIUAHAAAAAAAAgIgQoAMAAAAAAABARAjQAQAAAAAAACAiBOgAAAAAAAAAEBECdAAAAAAAAACICAE6AAAAAAAAAESEAB0AAAAAAAAAIiLiP9kFAFCO3W4Xm80mNpvNd///fr8f7XY72u32eQsDAAAAAAA4g//v8+fPn7OLACDPZrOJ+Xwei8Ui9vv9o/6dVqsVw+EwJpOJMB0AAAAAALgaAnSAmtpsNjGZTGK9Xr/o94xGo5hOp4J0AAAAAADg4jkDHaBmqqqKyWQSv//++4vD84iI+/v7+O2332I6nb68OAAAAAAAgERWoFNbq9UqVqtVbDabqKrqX/9/u92Obrcbw+HQylq+2mw2sVgsfvnc9Pv96Ha7CRX+3G63i+FwGNvt9iS/v9frxWKxiGazeZLfDwDwI1VV/a2N/z0PbbThcHjm6ijJr9r03W7363OiXQsAAFA/AnRqpaqqmM1mMZ/PH33Wc0REp9OJyWQS4/H4dMVRrGt5bjabTfT7/TgcDie9TqfTidVqZbARADiL3W4X0+k07u/vH/3vNBqNGA6HjqGpkee26UejUYzH4+j3+6crDgAAgKII0KmNxWIR4/H4ReFhp9OJ+Xxe5MpiTuNanptzhecPhOgAwKlVVRXT6TTevXv3ot9ze3vrKJord4w2/Wg0itlspn0LAABQAwJ0amE8Hj9pRcqv3N3dFbOqmNO5luemqqro9/sn27b9Rzqdzg+3TwUAeInNZhPj8fho7RuT/67XMdv0rVYrFouFCdUAAABXToDOVTtlcChEv27HDs8fjEajmM/nR/+9PzMcDmO5XJ71mg9evXoVs9ks5doAwHU61c46QvTr0+/3Y71eH/V3NhqNWK1WQnQAAIArJkDnqp0qBH0gRL9O1/TcLBaL+PPPP89yrR95//69MyMBgKOoqira7fbJjqURol+PU7bphegAAADXTYDO1ZrNZvH69euTX+fDhw8GTq7ItT037XY79vv9ya/zM71eL1arVWoNAMB1OMWK4n8aDAaxWCxOeg1O6xxtescVAQAAXC8BOldpt9tFt9s92cqUbwkHr8epVzR96xwDbvP5PG5ubk56jceyCh0AeKlzTXSM0Ha5ZOfsC97e3sZ0Oj35dQAAADiv/5ddAJzCdDo9y4BJRMR6vT77mdacxmQyOdtzs91uT/7clHT2eEm1AACXp6qqswaVjmm6XOfsC85ms6iq6izXAgAA4HysQOfqVFUV//3vf896TavQL985V58/OOUq9N1uF7/99ttJfvdzffr0yXmiAMCzZOysYxX65cnoC759+zYmk8lZrwkAAMBpWYHO1clYDb5er2O32539uhzPYrE4a3ge8WUV+qkC9BLP7TTJBAB4roy2jV2mLo/nBAAAgGMQoHN1skI6AyeXLStwPtXzeurz1Z+jxJoAgMuwXC7Pfk2T/y5PRpt+u92aTA0AAHBlBOhcHQE6T7Xb7VIGZSNO97yWOIhnEBoAeI6sNsR+vy+yTcWPZU3Y9JwAAABcFwE6V+fc23A/2O/3VtheqMztzquqOsnv9SwCANfiVO2lxxCMXpb9fp9yXRNFAQAArosAHY7IKvTLdI2vW9ZEEgCAYzMxEAAAADgnAToc0TUGsddut9vFdrvNLgMAAAAAAIACCNDhiA6HQ+p24DzdbDbLLgEAAAAAAIBCCNC5Oo1GI/X6AvTLkv16NZvNk/zeVqt1kt8LAAAAAABwzQToXJ1ut5t6/cViEVVVpdbA42w2m9jv96k1nOp5bbfbJ/m9L1FiTQAAAAAAAN8SoHN1hsNh6vVt4345Sti+/VTPa/ZEku8psSYAAAAAAIBvCdC5OtkBekT+tuA8Tvbr1Gq1ThYq9/v9k/zelyixJgAAAAAAgG8J0Lk67XY7Op1Oag3L5dI27oVbLBZxOBxSazjlZI/SwupTThYAAAAAAAA4FgE6V2kymWSXEPP5PLsEfiJ79XnEaZ/TZrMZo9HoZL//qUrYGQIAAAAAAOBXBOhcpRLCOgF6uaqqivv7+9QaOp1OtNvtk15jPB6f9Pc/RQmTWgAAAAAAAH5FgM5VajabMRgMUmvYbrex2+1Sa+D7Slh9fo5wu9/vR6/XO/l1fmU0Gp18sgAAAAAAAMAxCNC5WiWsQi8hqOXfSnhdzvV8zufzaDQaZ7nW9zQajZjNZmnXBwAAAAAAeAoBOldrPB6nBocRITgsUFVVsVwuU2sYDAZnW5HdbrdjOp2e5VrfM5/Po9lspl0fAAAAAADgKQToXLXsVej7/T42m01qDfxdCWfTn/u5nEwmMRqNznrNiIjb29v09yAAAAAAAMBTCNC5aiWEdyUEtvxPCa9HxnM5n8/PGqKPRqPUle8AAAAAAADPIUDnqg2Hw2i1Wqk1lHDeNl/sdrvYbrepNYxGo7Qtzc8Voo9GoyImKgAAAAAAADyVAJ2rl70Kfb/fC9ELUUKom/08zufzuL29PcnvbjQacXd3V8R9BgAAAAAAeA4BOldvPB5nlyBAL0R2sNtoNNID9IiI6XQaHz58iE6nc7Tf2ev1YrPZFPF+AwAAAAAAeC4BOlev2+3axp3YbDax3+9TaygpXO52u7HZbOLu7u5FQXqv14v379/HarWKdrt9vAIBAAAAAAASCNCphclkknr9w+GQvvq57kq4/yUF6A/G43FsNpv48OFD3N7eRq/X++W/0+v14u3bt/Hx48dYrVbR7/dPXygAAAAAAMAZ/Ce7ADiH4XAYr1+/Tq1hsVgUGaDWRXaA3mq1otvtptbwM91u92/1VVUVm83mX/9Ms9k8d2kAAAAAAABnI0CnFtrtdvR6vViv12k1LJfLqKpKAJlgsVjE4XBIreHSJk80m00rywEAAAAAgNqxhTu1UUKA6Sz0HCXc9xKePwAAAAAAAH5OgE5tDIfD7BJiNptll1A7VVWlB+idTifa7XZqDQAAAAAAAPyaAJ3aaDabMRgMUmvYbrex2+1Sa6gb27cDAAAAAADwWAJ0aqWEIDN7NXTdlHC/S3juAAAAAAAA+DUBOrUyHA6j0Wik1mAb9/OpqiqWy2VqDYPBIJrNZmoNAAAAAAAAPI4AndrJPgt9v9/HZrNJraEuSlh9nv28AQAAAAAA8HgCdGqnhO205/N5dgm1kL3av9FoCNABAAAAAAAuiACd2un3+9FqtVJrKGFl9LXb7Xax3W5TaxgOh7ZvBwAAAAAAuCACdGope1Xwfr8Xop9YCfc3+zkDAAAAAADgaQTo1FIJ27iXEPBeM9u3AwAAAAAA8FQCdGqp2+1Gp9NJrUGAfjqbzSb2+31qDSVM0gAAAAAAAOBpBOjUVnbAeTgcYj6fp9ZwrUq4r9nPFwAAAAAAAE8nQKe2Sthe2yr008i+r61WK7rdbmoNAAAAAAAAPJ0Andpqt9vR6/VSa1gul1FVVWoN12axWNi+HQAAAAAAgGcRoFNrJQSd2aulr00J97OE5woAAAAAAICnE6BTayVs4z6bzbJLuCrZAXqn04l2u51aAwAAAAAAAM8jQKfWms1mDAaD1Bq2223sdrvUGq7FfD6Pw+GQWsNkMkm9PgAAAAAAAM8nQKf2SthuO3vV9LUo4T6WsKsBAAAAAAAAzyNAp/aGw2E0Go3UGmzj/nJVVcVyuUytYTAYRLPZTK0BAAAAAACA5xOgQ+SvGt7v97HZbFJruHRWnwMAAAAAAPBS/8kuAEowmUzi/v4+tYb5fG4l+gvM5/PU6zcajSKOA3iJxWIRq9UqNptNrNfr7/4zvV4vut1ujMfj6Ha7Z67wcux2u9jtdrFarb7+96qqYrvdZpd2sRqNRnS73RgOhzEcDqPdbmeXdHKLxSIWi0VsNpvvPjutViu63W70+/3a3JNS/erzs47P76ltNpvY7XZf/3O320VE/PD7i+97+F5/+BwBgMf6tq+z2Wyiqip9nid6aCP2+/0Yj8cX10b8VX+l0+n8rZ1hx77Tqarqb6/Hfr//7j9X19dktVr96zPrcDhkl1Wch8+kiIh+vx/NZvPr80Keb5/d1WoVEXGWZ9iYE0TEZ+Dz58+fP7darc8RkfbTarWyb8HF+vjxY+prFxGfR6NR9m14tru7u2c9/61W6/Pd3V12+UX49OnT57u7u8+j0Sj9s6QuP4PB4PP79++zX/qj+/Tp0+fb29vPjUbjWffkw4cP2X9CrTz387PX613l83tKf/311+fb29vPvV4v/fPnWn9ardbn29vb7Jf6u25vb9Pui/fqZcl6Tkp978CxfPz48Wt/p9PppH9nXevPJbQRn9tfaTQan0ej0edPnz5l/wlX5ePHj59Ho9Gznrdrfk0+fvz4+e3bt/oOR/58ur29NeZwBh8+fCiy73ut43DwMwJ0+D+vXr1K/yL666+/sm/DRXr79q3X7hk+fPhwlMGPXq/3+ePHj9l/ztk9hOaDwSD9+avzz6tXr66mw//+/fujTMC4pntSqg8fPhzltbrWAatj8Bmb99NqtYobGBOg81hZz4kAnWv0MIAvMD//z2AwKLKNeIz+SqPR+Pz27dvsP+UqHKt9dE2vyfv37/UfzvDTarU+v3r1qrg+wyX78OHD51evXl3EohxjTtSJAB3+j1XMlyu7Q3+Juwfc3d09a4Xrj34ajUZtBpg/fvz4+dWrV0e9f35e9tPpdC6+8X7siUDXcE9KdXd3d/TXysDD//z1118GvQr5KWmXGQE6j5X1nAjQuRafPn36/Pbt2/Q+tp/yJrQd+7vY+Nfzffr06STt5Ut+Td6/f1/cat26/PR6vaL6DZfm7u7uIp9dY07UhQAdvpHdSWw0Gtm34OJ8+PAhvdHw6tWr7NvwJMcOf779ucSV+I/1kq3R/Jz+p9FoXGzj/VTPlQ7N8Z3q87PRaBQ1QHpuD4P1lzDbvm4/pQyGCdB5rKznRIDOpXvo65gkXNZPKW3EU/VXLjmwzfLp06eTjl1e2mvy8eNHk28L+XHM49M89zi4kn6MOVEH/y+Ar8bjcer1D4dDzOfz1BouTQn3K/u5eYrVahU3Nzcn+/3j8Tg2m83Jfn+GqqpiOp3Gb7/9Fvf399nl8AOHwyH6/X5UVZVdypPM5/OTPVfb7fYi70mpFovFyT4/D4dDDIfD2r1WD5+v7XY7Xr9+Hfv9Prsk/uHm5iYWi0V2GQCcyG63i/F4/LWvczgcskviGyX0cU7ZX7m/v7+o8ZQSjMfj2G63J/v99/f3MZlMTvb7j2k2m0W3243lcpldChGx3+/j5uYm+v1+rFar7HKKtVqtot1ux83NzcX3f405UQcCdPjGcDjMLsEg5RNl369WqxXdbje1hseqqurkz/jhcLiqDvBisYh2ux1v3rzJLoVH2G63MZ1Os8t4tM1mc9IJLRGXd09K9TC4fEr7/f6qPj9/ZTabff18NVhftvF4HLvdLrsMAI6oqqq/BeeU62GiZYZz9Ffu7+/Tx3UuxWw2O0tY/O7du6Jfk4fPr9evX+tHFGi9Xscff/wRk8lEsPqNhzHZP/744+KD828Zc+LaCdDhG+12OwaDQWoNy+VSA+ORVqtVeqPjUmbmRnyp9Rydi2toPD00bP/8808dsgvz7t27i5ntfK7Pj0u6J6WaTqdn+SxYLpdX/1o9zLg34HU5DofDRbV3APi5h0lsgvPLsV6vU3bfO9f3/3g8Ng72Cw87N51LqeHnbreLfr/v8+sCvHv3Lrrd7tX3bx/jYXHOte6WYMyJayZAh3+wCv1ylLB9ewnPy2PsdruzdjBms1mRna3H2Gw2tgG7cJcwgWO1WsV6vT7b9S7hnpTq3J+f1xpUVlUVk8nk6mbc18Vyuby6I1oA6uahn2MS22U6d3v+nP2Vw+EQs9nsLNe6VOea0Ptgv98XMeb2rYfPsFNuYc9x7ff7+OOPP2o9HjGZTGqxOKfOrzHXTYAO/1BCIKrj8DjZEw06nU602+3UGh7r3M/U4XAorrP1GPP5PH7//XfhzoVbr9fFbzd87vfkJdyTUp27I7jdbq8uqFytVtHtduPdu3fZpfAC2qcAl2s2m8Xvv/8ueLpg+/3+rGMg5/7ev8Txg3Opqirl/pTU9ttsNtHv968+hLxWb968ieFweLELbZ6jqqpa9YGNOXGtBOjwD81mM0ajUWoN2+3Wl84vLBaL9IbzJa0SzJhskD3B4akmk8nJz3fjfEoegKmqKmWHg0t7T5Yi476V/Pw+1XQ6ter8SvgMAbg8VVVFv9+P169fZ5fCEZzruzijv7Lf720B/ANZ41/7/b6Iib3C8+uwXC6j3+/XIkTfbDbRbrdrN2ntmsYx4IEAHb6jhFXoBil/roQv5RKek8fY7XYpwcU5t6d+qfF4XJtZoXVR8uBL1iCE75Wn22w2KQM1JT+/j1VVVQyHw3jz5k12KRzJ4XC4imcToC4etju+pH4ZP3eu7+Gs7/sSxnlKlHlfsvuQD30K4fl12G630e12i5iYcSp1nvChr8g1EqDDdwyHw2g0Gqk1lLRVUmmyVm9+azAYRLPZTK3hsTIbppfQeBqPx2c935jzKHmgMOt9cc2d1FPJumeXPlN9t9tFv99P/67m+HyOAFyG+Xwe/X7fDjBXZr/fn2X1ZuaE3zqsTn2K3W6X2rfNbvsNh0OfY1dmv99Hv99Pf7ZOoc7heUTZ43DwXAJ0+IHs1cWlbJVUouwZsBH5z8dTeI5+THhOndS1E/cSmcepXOpn98Nqt0ufBMD3GdQGKN98Po+bmxttvyt1jjZiVhv4cDgUMd5TkuzFNZltv+l0KpC7UofD4epC9LqH53CtBOjwAyWcb237qu/L7lA1Go0Yj8epNVyKkhvDwnOyXMLODOS7xKDSoAEA5JpMJnFzc5NdBhcucxKpcbC/yx7/yrJarRwFdeUOh0OMx+OL7Pf+k34wXC8BOvxAt9uNVquVWkNdG8o/s9vt0reEvaTV59lKbQhPp1PhOcARGTQAgFzj8TjevXuXXQa8yHq9Tg3wS7JYLGq7fXkJi5o4ve12G/1+v9ixw8eoqko/GK6YAB1+Ijso3e/3QvR/KOF+ZD8XvMxisTCTGeCIhOcAkMvuWhxTt9tNvb5V6F+UMP6VYT6fOw6qRrbb7cVOmBCew/UToMNPlPAFXtcG849kd6RarZYA/YLtdjvb7wMckfAcAHLZXYtjazabqdfPHvcpQVVVRbyv2+32Wa9XVVURY7Gc1/39fcxms+wynmwymZjsAVdOgA4/0W63o9PppPBsQtMAACAASURBVNYgQP+f3W6X3jARnl+24XAo5KmJ7CM4oA6E5wCQaz6f212Lo+v3+6nX3+/3sVqtUmvIVsokgnM/C4vFQt+ipl6/fh2bzSa7jEdbLBZFTHIpiXE4rpEAHX4he7Xq4XAQov+fEmYjZj8PPN90Ok2fgMH5ZG87CNeuqiqTkgAg0WKxiJubm+wyuEL9fj8ajUZqDaUEyFlK+fvPHaBPp9OzXo+yXMqYa1VVF1PrOWVPvoJTEKDDL5Sw4riUhnO27IkEnU5HKHehdrudlRk1U8JnN1yz4XAY+/0+uwwAqKXNZmPwnpPK7k8tFouoqiq1hiybzaaIyf+9Xu+sW7hvNhv9i5rbbrcXMYliPB6bSP4d2d8bcAoCdPiFdrsdg8EgtYblclnbjsODEhrSBigul9euXhqNhoY7nNBkMon1ep1dBgDU0sPKN4P3nFL2OdR13o2xhN0XI84/jmLxEBERb968id1ul13GD61Wq1gul9llFMc4HNdKgA6PUMIXQF07Dg9K6ECU8BzwdKvVStBTM+PxOJrNZnYZcJUWi0W8e/cuuwwAqK3JZFLE6lSuW7fbTT/Ptq6BagnjfxlhWAl/N2XInsDzMxbofF/Jrxm8hAAdHmE4HDr/KVl2Q/rcW1dxPBq39dJoNC5iyy+4RM56A4Bci8Ui7u/vs8ugJrIDkfV6XfRK1FOYz+dF7C4xHA7POil9t9ul7zpJOZbLZaxWq+wy/mU+n3tOv6PVaqV/X8CpCNDhEZrNZvrq4zp2HB4sFov0DoTA4DItFguN25qZz+dWn8OJDIfD9O9jAKgrE9k4t+xxsIj6LSYp5e89dxi22WzOej3KV+LCiBJrKoFxOK6ZAB0eqYSOQ/Yq7Cwl/N0lvP48XQlb/3M+o9HIexVOZLFYOA4DABI595xza7fbMRgMUmsoJVA+h91uV0R7u9VqRbfbPes1Bej8U2kLySzQ+b67u7vo9/vZZcDJCNDhkWzjnqOqqvQt6gaDgZl0F2iz2RTR+eQ8RqNRLT8j4RyseAOAXIvFIpbLZXYZ1FB2G3C/3xe5lfMplNKfzdiKuS6vMU9T0opvC3T+7e7uLv07Ak5NgA5PkP2lsN1uazcrs4TV59mvO89TSueT07u9vfV6wwlNp1Mr3gAgkbNFyWIxyfmU8ncaA6MUi8UiqqrKLqOY3SFK0Wg0hOfUhgAdnqCEL4ZSGtTnkh2gNxoNW0JfqLq9V+qo0+nE+/fvi5qVDNdmt9vFu3fvsssAgNqaTqe2jSVV9lhYKSHaKa1WqyLe51k7MNZtsRCPczgc0seFI/LHpksyGAxis9mkfy/AuQjQ4Qm63W60Wq3UGur0pV1VVfo2dcLzy7RarayWvGK9Xi/u7u5is9k4awlOzAQVAMhTVZVtY0mXHZSUEqKdUikLALJea+M3/EgJ7/1S3p9ZGo1GjEaj+PDhQywWi2i329klwdn8J7sAuDTj8TjevHmTdv2H85/qEBqV0EDJ7ijyPCU0sH+m1+tll3BRms1mdLvdrz8a63Aeu90u7u/vs8t4lmv9nLV1IEC9zGaziwyWWq3WVbbZd7tdEauEz63b7Uan04ntdptWw3w+v9rxmaqqimhzt1oti0geodPppKzSP7VS+xnL5TKqqkq751VVpX72/Uyj0fg6TnaK+9Nut7/+fqgrATo8UXaAHvGl4yBAP71Wq1WL+3yNVqtVdgl/02g0Yjwex3g81vAELsalrD5/GOzr9/vR7/evckDrwcPOG5cYpgDwdJey+nwwGES/349ut3v1fejZbBavX7/OLuPsJpNJ3NzcpF1/vV7Hbre7yokZpSwAEJ5/38PRjuPx+Oo/3xaLRSwWiyImdHxrtVqlPZ+lvD+/NRqNYjKZGF+EM7CFOzxRu92OTqeTWkOJX97Httvt0mf46TxcptJmh97e3sZut4vZbKZxC1yMUlbC/MzDNnIPn7HD4fCqw/OILyvALiVMAeBl5vN50ROmWq1WvH37Nj59+hSLxSImk8nVh0sRX4Lka93p5mdKGB/JXmRxKqW07SaTSXYJRWk0Gl/Hc+qykGk4HMZ8Po+PHz8W9TmXuUhms9mkXfufer1efPz4MebzufFFOBMBOjxD9rZRzn86j+zXmecppXHbarXiw4cPMZ1Orz7QAa5PKQN53zMajWo9cHCNK68A+LdSv4sbjUa8ffs2drtdTCaTWvZ16hCk/VOz2YzRaJRaQwnjRMe22WyKWADQ6/W0Mb/R6XRis9nUdjyn3W7HarWK29vb7FIiQoAe8WVxzmq18j6FMxOgwzOUEKxeY8fhW9l/X6fTqeWg/DUoYfv2h86WZwi4VNnfw9/T6XTiw4cPMZ/PDRwAcNVKCdX+aTAYfA3OqZ/sVej7/b6I/v4xldLmLmGcsxSj0Sg2m43+Rnw50uvu7i67jNTvwxLOhr+7u7uY49Xg2gjQ4RmazWYMBoPUGpbLZVRVlVrDqWw2m9jv96k16Dxcruz3RaPRiMViUctZysB1KOF7+J9Go1GsVisTkwCohVJCtQeNRiPu7u70c2puOBxGq9VKraG098ZLlfD3NBoNY2D/ZzQaFfGalGQ8HserV6+yy0iZPLPb7c5+zX969eqV9yckEqDDM2XPvI243rPQS2islvD68jzZ2ytZGQlcutK2jH379m3M53MD9gDURkl9/UajEavVygA+EZG/2GCxWKRPmj+W+Xweh8MhuwzjX/+n0+kUMR5ZotlsFp1OJ7WGjDA7O0BvtVrF9c2hbgTo8EzD4TAajUZqDdfasMv+u5z9dNkyO9O9Xk/nE7h4JW2NeXd3Z5tYAGqlpJ1gHsJzO8DwIDtAPxwORU0weYlS/g5t7S9KeT1KlR3k1jFAz77ngAAdnq3ZbKYHZev1Ov3L/NgWi0X6DNzsDiEvk3k2ko4ncOlKGrS/u7vznQxA7WRPKH8gPOd72u129Hq91BpKeY+8xG63i+VymV1GdDod7/GIuL29tZDmF/r9fup7v24BeqvVSs8dAAE6vEgJX2TXNkOyhL+nhNeVy+TZAS5dCd/DEV/OHxSeA1BHpewEs1gsBGt8V3Yb7RoWk5TS5s5+LUvQaDQshnikzOfl0t/zT2V8EcogQIcXsI37cVVVld6JGI1GzljlWbLPgwI4hhIG7Z0/CEBdVVWVuqPWg9vb2+j3+9llUChjYS9XytbMAvQvz7NxwMfxvXA+7jWUQYAOL5Td2Nxut7HZbFJrOJYStm83w4/n0uECrsF6vc4u4eIHRAHguUro23c6nZhOp9llULASjjS85PbiarUq4sgkC0i+yH6WL0m73U6fPFMX3ptQBgE6vFB2gB5x2R2Hb2WvPm80GhrOANRWCYP2t7e3tosFoLZK2AnmWsYXOK3ssbD9fl/E++U5SnmPGf/6wkrfp9FXA+pEgA4v1O12o9VqpdaQHTwfQ1VVsVwuU2vQeQCgzrIDdOcPAlB32YHgaDQSjvAo/X4/fSyslCD6KUo4ujAiotVqGQOLL/0PK30B+BEBOhyBmbcvV0IHwqA9AHW22+1Srz+ZTAxgAVBr2d/Ftm7nKbLHUBaLRVRVlVrDU5VwdGFE/jhmKUwYAuBnBOhwBCU0PC9x5u23ZrNZ6vVbrZaGMwC1lj0ZL3sQFgCyZZ6L3Ov1ot1up12fy5O9gvlwOBSxGOMpsse+HpQwjgkApROgwxG02+3odDqpNVxap+Fbu90uttttag3ZHT8AqLPBYGD1OQC1ln2UikCNp2q32zEYDFJruKTFJCWMfUWYLAMAjyVAhyPJXjV1iTNvH5RQd/brx+W7tK3jAP5pvV6nXdtENgDqLrs/4buY58h+btbrdfrRB49l9TkAXBYBOhxJdqch4rJm3n4ruxPR6XTMvuXFtttt+qAXwKXq9/vZJQBAqswQsNPp2AmGZxmPx9FoNFJruJSxsBLqbDQaAnQAeCQBOhxJs9lM37pquVxeXIC32WxSz3mLMPuW4ylhNwWA58hsPzQaDRPZAKi9zADdRDZeIntMpYRg+lcWi0UcDofsMopY/MNlu5QdHwCOQYAOR1RCQ/TSArwSOjolvG4cT6/XS7t2Cc8zwHNknrva7XbTrg0AhIlsvEh2gL7f72O1WqXW8CuljBU4vpCXqKoqfREUwDkJ0OGIbF31dNmB/2AwMFjA0azX6/RnGuDS+B4GgFwms/ES3W43Op1Oag0lj4VVVRXL5TK7jOh0Ot7rvEjpE1UAjk2ADkeWvZp5vV5fzHY6i8UifeZi9uvF8WV3CMfj8cUdpQCQSYAOAHDZslehLxaLYvvhpYT7Vp/zUpnPcrPZTLs2UF8CdDiyEgLZS1kBW0KdJbxeHFd2EHM4HKLf7xfbeQcAAIBjyg7QD4dDEWNM3zObzbJLiAjjX7zMbrdL3Ukhe7EMUE8CdDiy4XAYrVYrtYZSZrf+SnbnZjQamcF4hUpoVG+32+j3+xezGwQAAAA8V7PZjMFgkFpDiWNhm80mfefFCONfvFz2JBnPL5BBgA4nkD2rc7vdxmazSa3hVxaLRRwOh9Qasl8nTqPf72eXEBFf3ofdbrfITjwAAAAcU3bAVuKRhqWsPs9+bbhss9ks1ut1ag0lLJYB6keADidQQsO09NAuu75GoyFAv2K9Xi+7hIj4so3czc3N1yDdtu4AAABcIzsy/l1VVek7L0ZEtFqtYhYacHnm83m8fv06uwwBOpDiP9kFwDXqdrvRarVSt2laLBbFzHT9p6qqUs/NibD6/Nr1+/302bHf2m63cXNzEzc3N9HpdKLb7aaf1X5OzWbza2en2+3aegsAAOAKDYfDePfuXdr15/N5TKfTtOt/q4SdFyPKWOTDZZrP53Fzc5NdRrRaLeNIQAoBOpzIZDJJnaG33+9jtVoVOcu0hBm4k8kkuwROaDgcxps3b7LL+K7tdhvb7Ta7jFSNRiO63W50u93o9/vR7/d1hgAAAC7cZDJJDdBLGgsrZTW8AJ2n2u12MZlM0hc/PSjh/QzUky3c4URKWOFcSmP9n7LrarVatv65cg+7QFCmw+EQ6/U63r17F3/++Wf897//jW63G7PZrLgz6wAAAHicdrsdnU4ntYbsMaeILwFkCbviDQaDWu1+x8tsNpsYj8fR7XaLCc8jBOhAHivQ4UQeOg2ZK01LWOn9TyV0IkqY3MDpZW8dx9Nst9t4/fp1vH79OjqdTkwmEzPlAQAALsxkMknd9nmxWERVVam7nJVypKLxr7JUVRWr1So2m01ERKxWq9yCvrHZbIo4cuB7PMdAFgE6nFB2p+FwOMRisSiqoVFCqG/79nrI3jqO53s4M34ymXz9scU7AABA+YbDYUwmk7Qw7mEsLHNCdgljX41Gw6T0QiwWi5jP50Wt6r4UnU7HeBCQxhbucEIlBNclbF31rex6Op2O7atqot1uR6/Xyy6DFzgcDvHmzZtot9sxnU6jqqrskgAAAPiJZrOZPh6WOfa0WCxiv9+nXf+B8DzfZrOJfr8ff/75p/D8mTzHQCYBOpxQs9mMwWCQWsNyuSwmdNpsNqlb2kdoeNXNdDrNLoEjeAjSu91uETP5AQAA+LHssZf1eh273S7l2qX0WbNfg7qbzWbx+++/px9jeek8x0AmATqcWPas24hyGu/Zq88jNLzqpt/vW4V+Rfb7ffz5558xHA6LmRgEAADA3/X7/Wi1Wqk1ZIxBVVUV9/f3Z7/uP3U6neh2u9ll1NZ4PI7Xr19nl3HxRqOR7duBVAJ0OLHxeByNRiO1hhKC64j8IH8wGGh41ZBV6NdnuVxGu92O1WqVXQoAAADfkb2AIWMsrJTxt8lkkl1CbU0mkyImUVyD7M8QAAE6nEH2KvTMraserFar9DOgsl8HcvT7/fSjFDi+w+EQf/zxhwkSAAAABcoOv/b7/dknXZcSoBv/yrFYLOLdu3fZZVyFXq8X/X4/uwyg5gTocAbZnYaI/NXf2Z2IRqOhA1Fjs9ksfScITuPNmzcxHo9t6Q4AAFCQdrudPpn9nGNRm80mttvt2a73I7a9zlFVVRHjv9fCYgmgBAJ0OIO6nv30rewAfzgc6kDUWLvd1vi+Yvf399Hv94XoAAAABcleyLBYLM7WT5zNZme5zq8IcXPMZrM4HA7ZZVwFq8+BUgjQ4UyyOw3b7TZtG/fFYpHeiMy+/+SbTCbR6/Wyy+BEttutEB0AAKAg4/E4dTe4w+FwtgUd2QtHIiJarZbgMUFVVcVMoLgG2YvAAB4I0OFMSpgBmtWYy+5E2L6dB4vFwlbuV0yIDgAAUJbs8ZhzhHHz+Tx94UjEl4UDnF8JC4euxe3tbbTb7ewyACJCgA5n0+12o9PppNaQEWRXVRX39/dnv+63Spi8QBmazWb6hA5OS4gOAABQjuxQd71en3xHxlJWzGZPVqgr40zH0el0HL8IFEWADmeUHeTu9/vYbDZnvWYJjcjs+05Z+v1+3N3dZZfBCW23WwMHAAAABeh2u9FqtVJrOOXY1G63i/V6fbLf/1iDwcDK3SSr1Sq7hKtQykQUgAcCdDijEgKdc2/jnh2gt1qt6Ha7qTVQnvF4HK9evcougxNar9cmzwAAABQgexX6KcfCSgn99H/z2L795d6+fWv8FiiOAB3OqN1uR6/XS63hnIH2breL5XJ5tut9jw4EPzKbzWI0GmWXwQnd398XM5gBAABQV9ljM6fckbGEPmej0Shi0U4dnfp4gDoYjUbpk2wAvkeADmeW3Wk4HA5nC9GzV59H5N9vyjafz4XoV24ymZz96AoAAAD+p9lsxmAwSK3hFKvQV6tV7Pf7o//epzL2lUeA/jKdTufsu6UCPJYAHc6shBmh5wq2s2fhdjod5z/xS0L063Y4HAwmAAAAJMvul51iLCx73OuB1bt5ms1mdgkXq9PpxGq1cg+BYgnQ4cxKmHV7f38fVVWd9Bq73S622+1Jr/Er2Z0zLsd8Po/b29vsMjiR7XYb0+k0uwwAAIDaGg6H0Wg00q5/OByOGnhXVRX39/dH+33PZfFILud2P0+j0YjFYiE8B4omQIcEJQS7p16FXsL2OyXcZy7HdDqNu7u71A49p/PmzRtbqwEAACTKHqc55lhYCccWRlh9zuVpNBqxWq1M/ACKJ0CHBNmzbiNO39DP7kgMBgOzGHmy8Xgcq9UqOp1OdimcQPZgDQAAQJ1lh73L5fJoE6tLWDjSaDSKOCqy7nq9XnYJF6PT6cRms7FyH7gIAnRIkt3APWan4Z82m03s9/uT/O7Hyr6/XK5utxur1cq56FdovV7HarXKLgMAAKCW2u12+oT1Yyz42Gw26ccWRnwZ+7J4JJ8xyMd5OPPcynPgUgjQIUkJKyFPtUo8exauGbi8VLPZjPl8Hn/99Ve0Wq3scjgiZ6EDAADkyV6Ffowxq2Oepf4SJYwtIkB/jNFoFKvVyoQP4KII0CFJv99PD+ZO1eDP3r7dDFyOZTgcxmazidvb2+xSOBKr0AEAAPJkh437/T42m82LfkcJAXqr1Yp+v59dBvFlZwXbuP/Y27dvYz6fG6sFLo4AHRJldxq22+3Rt3FfLBZxOByO+jufKvu+cl2azWZMp9P4+PGjbd2vRAmDHQAAAHXUbDbT+9YvWYU+n8/Tx70i8lfy83fZu3GWqNVqxYcPHzyrwMUSoEOiErZaOnYDL3v1ue3bOZV2ux3z+Tw+fvwYr169ikajkV0Sz3R/f3/0yUMAAAA8TvZ42EvGrrLHvR4Y+ypLt9uNV69eZZdRjNvb29hsNtHtdrNLAXg2ATok6na70el0Ums4ZsO/qqr0jkR2J4zr1263YzabRVVVcXd3F4PBILskniH7swoAAKCuso81PBwOz9qZbLfbxXK5PH5BTzQYDKLdbmeXwT/MZrP0cd5svV4vPnz4ENPp1JbtwMUToEOy7MD3GGc/PShh+/bs+0m9jMfjWCwW8enTp7i7u4vRaJQ6CMDj2cYdAAAgT/b4zXMmVZcyETv73vFjq9WqliF6r9eL9+/fx2q1suocuBoCdEhWwpZLx9rGPbsj0Wq1NNJI0Ww2Yzwex3w+j91uFx8/foz379/H7e1tjEaj6PV6texAlWy73drGHQAAIEl2CLxcLp/cJyzhnOtWq1XEWCLf12w2axWiDwaDr8F5v9/PLgfgqP6TXQDUXbvdjl6vF+v1Oq2GYwTfVVWlb2M1mUxSrw8P2u12tNvt2nceVqtV7Ha7WK1WRexQ8U+r1Sp90AYAAKCOShkPe+xY0mq1iv1+f+KKfk14Xr5msxmbzSam02m8efMmu5yj63Q6MR6PYzgcOkoAuGpWoEMBsgOcw+Hw4hC9hO2QdSKgLP1+/28r89++fRuNRiO7rK9Wq1V2CQAAALWVPR72lBXlJYx7RVg8ckmm02l8/PgxRqNRdikv0mg0YjAYxNu3b+Pjx4+x2WxiMpkIz4GrJ0CHApQQ/F56gN7pdDTcoGDNZjMmk0nsdrsYDAbZ5USEAB0AACDTcDhMnWS93+9js9n88p+rqir92MKIL+dMG/u6LO12O+bzeXz69Cnu7u6+HvNXmlarFb1eL3q9Xrx69Spub2/j/fv38fHjx6/Pv9AcqBtbuEMBms1mjEajuL+/T6vh/v4+ZrNZNJvNJ/+7u90uttvtCap6PDNw4TI0m81YLBYxHo9TP/MivgyWVFX1rM89AAAAXqbZbMZwOEztG85ms18uCinlSLLsFfs8X7PZjPF47DUEuCBWoEMhLnkVevbq84gy7h/wePP5vIhtzB6z2gAAAIDTyF4Q8ZixsKds9X4qjUbD2BcAnJEAHQqRvW1VxOUG6IPBwApSuEDz+Tw6nU5qDbvdLvX6AAAAddbtdqPVaqVd/3A4/HRcq4RdFyO+jBsa+wKA8xGgQ0GyZ5Iul8snh0mbzSb2+/1pCnqk7PsGPF/2TH4BOgDwUlVVZZcAcNFKXoWe3Wd9kH2PAKBuBOhQkBIaw09dhZ69+rzRaDg/CC5Yv9+PXq+Xdn0BOgDwUo6EAXiZ7IURP1tQkj3uFRHRarWi2+1mlwEAtSJAh4Jkb1sV8fSOQXZHIruTBbxc5iSYugXodft7AeAcrEAHeJl2ux2DwSC1hu+Nby0WizgcDucv5h9KWHADAHUjQIfCZAfC2+320QFLCR2J7PsFvFzd3sftdjvt2gJ0AK5Zo9FIuW4JZ+MCXLrs3QVns1msVquv/3u32xUTXGffGwCoIwE6FKaExvljz3d66nbvx9ZqtWoXvME1ajabaQPeGTIDdCjRtwOVAC+Rub2tbdy5ZHZRoATD4TC1X3g4HOKPP/6Ibrcb/X4/fvvtt9jv92n1PBgMBtFsNrPLAIDaEaBDYdrtdnQ6ndQaHhuMZwfownO4Hs5zOw9BJSUyaA9cA9+xXDITQChFCSutt9ttrNfr7DK+KuGeAEAdCdChQNmN4/1+/8sO9Hw+T9++Pfs+AVwaW7jzI/1+P+3atj4GjiVzQp4AnUsmQKcUxnn+zs6LAJBHgA4FKqFx/Ktt3LNXn7daLStWgYuUuYW7wVFKJXgCjiFzi9vlcmlHDV4kczKb72FK0e1203dlLEkJ44MAUFcCdChQu92OwWCQWsPPAvKqqmK5XJ6xmn8r4ax4gOfIDNC3261V6PxQ5pmT2RPzgOuQGUBGfNmlCy7R4XAw0ZJiGO/5H/cCAPII0KFQ2bNMD4fDDwezSxjkzr4/AM+VuTouoozPcMqUubOL5xI4hsxJahG/3sULfiZ7hzUTQCiF8Z4ver1e+vcaANSZAB0KVUKH4UeD2dkDQ51ORycCuFgGRylV5nfrfr+3fSzwYu12O3U3jf1+73uWZzPJEr5oNpsxGo2yy0jnPHgAyCVAh0KV0GG4v7//1zZuq9UqttttUkVf2MIKuHSZ5/ptt1tBJd+VPTlN6AQcQ/Y27tPp1FnoPFuv10u7tgkglKSERSWZGo2GAB0AkgnQoWAldBj6/X7M5/NYrVYxm82KqKmEGgBeIjuonE6nqdenTNmh0/cm7gE8VfZOL/v9Pn3HLi6XNiJ8MRwOo9VqZZeRxrgXAOQToEPBhsNh6haEEV/OQr+5uYk//vgjXr9+HYfDIbWewWCQvrUdwEtlD+6v12ur0PmX7Ocywi4zwMuVEDq8efPGhCCeJfu72AQQSlLC53kWbWIAyCdAh8LVucPwPbawgutUt61Os1f6RhiU4d+azWb6Sp/1em3gHniRbrebPgk54ks/rm7tG16uhDbidDqN3W6XXQbUtr/S6XTSJ9MAAAJ0KF5dOwzf02g0TCiAK7XdbrNLOKsSBke3263vGP6lhGdzOp1auQm8SAl9hv1+X0QdXJYSJoAcDgfPLkVot9vR6/Wyyzg7C0fOZ71eZ5cAQMEE6FC4brebvhqsFDrxcJ3qGpSVMBj07t27WCwW2WVQkBIC9MPhEOPx2MpN4NlK+CyL+DIwLwjhqUp4frfbrWeXItTxOazj35w5cciOGwD8iAAdLoDg+Is6diKgDubzedq1m81m2rVL+Wwfj8e1ncTAv5XyXG632+j3+0J04FlK+SyLiLi/v9eP4UlKeX7v7+9T2+kQ8eX9kL0rwzmNRqPUPmqWzC3rTSgH4EcE6HABbLEb0Wq1ipiJDxxXVVWpA3OZHfVSBkcPh0P0+30hOhHxZVJJp9PJLiMihOjA8zWbzRiNRtllfCVE5ylK6vfe3NwI0UnVbDaL6TedQ53+1lLMZrPsEgAolAAdLkC73S5mMDuLTgRcp+l0GofDIbuMFCV9tgvR+VZJIY8QHXiu0voP9/f3Ps94lJLaiBFfQvTpdJpdBjVWUtv0lFqtVnHfXefSbrfTrr3f74XoAHyXAB0uRF06DD9S978frtF8Po93796l1pC9wqekz7aHEN0WdpQ2cLfdbqPb7ZrgATzJcDiMVquVXcbfrNfr6Ha7sVqtskuhcKXtQvfmzZsYDocmgJCi3+8X93l+CiX1Dc8tM0CP+DKx31noAPyTAB0uRJ0bpFKydwAAIABJREFU0p1OJ3WbZeD45vN53NzcZJeR3lEvLag8HA7x559/xmQyMUBaY+12OwaDQXYZf7Pf7+P333+3Ag54ktJCyIgvn2d//PGH71p+qrQ2YkTEcrk0AYQ0JX6eH1udx/2yx/wOh4NJQgD8iwAdLkSz2SxuMPtc6tyJgGs0m82KCM8bjUZ6gF5iUBkR8e7du+h2u1aj11ip371v3ryJdrtt8B54lPF4HI1GI7uM73r37l202+2YTqcG7PmXZrMZo9Eou4x/eZgAMhwOrdbkrEqcVHJMvV4vvW+aKTtAj/jf0VE+2wB4IECHC3LtHYYfqevfDddmt9tFv9+P169fZ5cSEWV00iPKXU2x3+/jzz//jH6/H/P5PLucFHUOaUvc+vjBw+B9t9uN+XwueAJ+qNlsFvs9G/FlxdvDxKDJZGLQnr8p+dldLpfx22+/xXg8NuGSsyh14vGxlDp59Vza7XYRE94ejo6qa/8XgL8ToMMFGQ6HRTQoz6nus3Dh0u12u5jP5zEcDuO3336L9XqdXdJX2eefP+j3+9HpdLLL+KH1eh03NzfRbDa/DpLWIbCcz+dFPa8ZSt8ufbvdxs3NTfz3v/+N4XAYs9ksVqvV/9/e/Z6nceVtAH6y1/sdUgG4AtgKIBXAViBSgUgFIhUYVyBSgXEFQhUIVyCoQFCB3g9ZvHZix7YMnJnhvq9rPmyShR9imDlnnvPnIs5P4NtNp9PK96H2+33evHmTV69efQjTl8ulQP3C9fv9DAaD0mX8oz/++CP/+c9/PrQTF4tF1ut16bJoqKZOrmi1WhcfoCfV6Z/v9/v8+uuv6Xa7WSwW7sUAF+z/ShcAfLt2u53xeJw//vijdClnoxNBCavV6sPBy+x2u7x//750Gf+oSg9gptNpJZa1/yf7/T5//PHHh3tQp9NJt9v9cDTJarW6+PA8+fMePJvNst1uS5fyVe/evcu7d+8++WeHc/SU+v1++v1+hsNh434H0BSHWei///576VK+yXa7zZs3b/LmzZsP/6zX66Xdbhes6rIMh8O02+0Mh8PiKxbNZrP88ssvRWv4Fn9tJx6cYwDA4XuqUtue05hMJplOp9nv96VLOSrn7p+Gw+Hf2vMlbbfbT/roVR/QVBWuyUCTCNChZi4tQNfg4lx2u13m83nm83njOuT8XavVKv5A9GOTySTz+bzygw4+tt1us91uBc0NN5vNKj+440sO5+gpfXz+DwaDzGazysyeAf5nOp1msVjUYkDQ59SpfdAEH1/bO51OptNpJpNJkUEMw+Ewg8Ggtu2tc9R9eI9Wq5XxeJzZbGZQW4NNJpNPBhg1QZW3azin8Xhcme3ePqeu1+Fz+/iafBj04poM1JUl3KFmLmkZ99FoZKYFZ3F4yPL7778Lzy9EFQfnzOfz0iVQIVW5/00mk8ruhV419/f3+eWXXzIcDi31CBXTbrcrvy0F1bTdbvPbb7+l2+0Wa6s5d7/NYRb8q1evMp1ObenSUE1bpbDX61VqYHdJ3W630lub8X0O29P0+333MaC2BOhQQ03rMHzJpXxOytntdhkOh4LzC1TFUf6HGUaQpFIP0gzu+D739/fp9/tZLBalSwE+MplM3Gd5sf1+n99++y3D4fDswexwOMzV1dVZ37Pu3rx5Y0BbQ/X7/UaFrFXsl5bkOWDz7Pf7/P777+n3+wY2AbUjQIcauoQG5WH5NTiVQ3huGa7L0+l0KhVOfkzgRhWNx2Oh03fa7/f59ddf/aahYhaLxcWs5sVp3N/fFwnRZ7OZc/c7vX//Pv1+P+v1unQpHFmTnol57vWpJn23fOr9+/dF7p8AP0KADjXU7/cbv5yqTgSndAjP7Sd5maq8fFi3283NzU3pMiisimG10Ollfv311yyXy9JlAP/V7XYr3Q6gHkqEAM7dl9nv9xmPxwKbhmlKyHp1dVWZbZuqot1uW3GjwYToQN0I0KGmmtJh+JKmfz7Kms1mwvMLVYfVLWazWaOWJeT7dbvd0iX8jQf3LzeZTCwhCxUynU4rOVCJenn//v3Z+6zO3ZfZbreVb//zfdrtdkajUekyfpjnXp/n79JsJe6fAC8lQIeaanJjo9PpZDgcli6DhlqtVnnz5k3pMihkOp3WYpS/2b6XrapbDHhw/zL7/b7R7Taoo+Vy6T7LD3v37t3ZVxnRRnyZ+/t726o0TN3bVp57fdlwONTnaLh3795ltVqVLgPgqwToUFPdbrexMxSNDueUzKC8XJ1OJ9PptHQZ36Tf72c+n5cug0Kq/DBN6PQy9/f3HhJBhbTbbb9JjuLcbctutysIfiH9wGYZj8e13tqw7gMATs3vtfn8BoA6EKBDjTW1sdHUz0V56/U69/f3pcugkNlsVovZ5weTycT+bxeo0+lUdgZ68mfoZE/vlzEoBqql3+/n9va2dBnU3Ha7Pft9cTweayO+wHa7NfigYeo8+cJzr382HA5d5xpuu90azAhUngAdaqyJDe5er1fp4IB688Dkcg0Gg1peM+fzeWNXG+Hzqjz7/GA4HOb169ely6idd+/eZbfblS4D+IjBahxDiT7GYrHQRnwBgwCbpS6ri/3VaDRKt9stXUblzWYzK181nGd0QNUJ0KHG2u12RqNR6TKOqo4BF/XhgcllarVate2YHZaY9eDgctTlQeB0OhU6vYBZFlA9i8XC9Ywf8u7duyLvu1qtar2EdQmlvitOo65bG9Z55vw5dbtdS7k3nL4RUHUCdKi5pjW8m/Z5qJbtdlu6BAqYzWa1HuEvRL8cdVuFZbFYZDAYlC6jVtbrdekSgM+w4gs/qsT1/bCtijbi9xHYNEtdBp8etFotE0e+w3Q61d9osO12m81mU7oMgC8SoEPNjcfjxnSYLWPFKXlQcplGo1HtHqp8Tr/fF6JfgDqeq8vlUuj0HQToUE2HwWquZ7xUqS06tBG5dHV7JiY8/36LxaJW3zHfR4AOVJkAHWqu3W43ZtZ2Uz4HUA29Xq+2S7d/Tr/fz3w+L10GJ9LpdGr5QE3o9H3sgQ7V5XrGjyg5WFeI/n0MrG6Wuj0Tq2N7v7Rut9uofj0A9SFAhwaoU2fhnzTlcwDlHfY9b7fbpUs5qslkktvb29JlcAJ1figkdAKawvWMuhKic8nqEkrXbbumKhmPx3n9+nXpMgC4MAJ0aIDxeJxOp1O6jB9ydXXVuKCL+E4potVqZbVaNfbhxGQyycPDgwekDTIajTIcDkuX8UOETkBTtNvtrNfrXF1dlS4FvosQnUs1HA5r8Uysjts1Vcl0OnVvBuCsBOjQEHWfvV33+vm8pgaYVNt8Pm/8uecBaXMcVktogkOIPhqNSpfSaE2/vn1Ot9stXQIXaLFY5Pr6unQZ1ERVrs3aiF9X90GLfF4dZqF77vXjFouFEJ2L4F4F1SBAh4aoQ2fhS1qtlo7ECWl0/akqD7U4rdvb21pfD79Hv9/Per0247fmlstlo1braLfbWS6XHmx9wTHuySXPl1JBdskAXXh/2ebzua1T+CZVupf3+/1sNhttxBMq2cfWv/+8qvcBrbp4PIvFwoDdBqlyW9tvFhCgQ0P0+/1aLFn1OcLz0yrZGK1S577dbtf2N8LXtVqtvH37tvIPTo6t2+2a8VtjNzc3lbpOHtNisRA6fcax7smDweAor/O9Sg1GK/W+rVar0g/1OI/D1inakfyTqt3PD6vCGND2d8f4rkrdG1yHvqzb7RZrH32LS+unnpoBu81Q9bZ2qXt7la9lcGkE6NAgdd1Pqa5110W32y3S0a5ioFe1B1scx2HP80sdjHOY8Xtzc1O6FL7D1dVVZrNZ6TJOSuj0d8e6TpW4n3U6nWJBdrvdLjKT8lLvK/zdYdWXKrZvKa+qD7rb7XYWi0Vev35dupTKONZ3VaqP7b70z6oaUnc6Hc8iTsBy7vVX9Wtav98vsiVK1f8ucEkE6NAgdbzBlnwYe0lKdCSreD5WtUPNy/V6vazXa9eRJLPZTFhZE1dXV43Z9/xrhE7/MxqNjrYM4CXe10sMuCz9mamWw4C1169f21+aT1S9jzGdTvPw8GBJ9xz3u7rEe3HVTSaTSl6fTRo5ncViYSB5jdXhmlaixjr8XeBS/PT8/PxcugjgeMbjcd69e1e6jG92SfsVl7Tb7fLzzz+f7f1arVZ2u93Z3u97dLvdbLfb0mVwBFdXV5nP5/al+ovdbpfZbJY3b96ULoXPuKTw/K+Wy2Umk0n2+33pUoq4u7s76uyj4XCY+/v7o73e1zw+PhZdYnG326Xb7Z7t/Ol0OtlsNmd5L+pns9lkOp3Wqt/FabRarWw2m1q0R3e7XebzeX7//ffSpRRx7O/q3PelwWCQ1Wp1lveqs8lkkj/++KN0GZ8o3Ya6BJfez6ijurS1N5tNXr16dbb3c62HajEDHRpmPp+XLuGbdTod4fmZtNvts47KrfKyxHX6jfB5rVYrt7e3WSwWtXhYeW7tdjvz+Tx3d3dmGlXMJYfnyZ+D/DabTa6vr0uXcnaDweDoS3ee8157dXVV/MFvu90+6wwu7QX+SbfbzXK5zN3dnZVfLtx0Oq1Ne7Tdbn9Ysaiqy86f0mw2O+p3de77UpX72FVStdneo9GoeBvqEozH46zX64u8ttVVXdra3W73rFsF1OXvAhfjGWicm5ub5ySVP+7u7kr/qS7K09PTc6fTOfn3OhgMSn/UrxqNRsXPf8fLjtFo9Pz4+Fj6FKqV29vbs/z2HV8+Wq3W8+3tbelToVIeHh6eB4NB8e/mXN//w8PDSf6O19fXZ6n/6enpJPW/RK/XO/lnrkNbhmp5/fr1c6vVKn69cZz36PV6pU+9H3JJbcRTfVfn6mOPRqOT1N9UVTqv3759W/rPcXHck6t/1K2t/fT0dJZz6vr6uvRHBf7CEu7QUP1+P+/fvy9dxhddX18bVVfAer3OcDg82bJWrVYr6/W68iOsd7tdhsNhpX8jfKrT6WSxWBx9BuelOCzZOZ/PLWt3Zr1eL4vFIv1+v3QplbRarTKbzc66FPm5nXq7mlO3+R4eHip1/p66LdPpdLJer2szo5TqONxrF4uF7YIuQF36Pd9isVhkNps19rw99Xd16vtSr9fLarVyX/oO8/k8v/32W+kyKr21XdPZaqW66trWXq1W+eWXX072+r1eL+v1+mSvD7yMJdyhoVarVWWX7j3sW8z59fv9LJfLtFqto792q9XKarWqxUOkdrudxWJxkr8Dx9XpdHJ7e5vNZiM8/wGHJTt3u11ub28tN3smNzc3Wa/XlQofq2Y4HGa1WuXu7i6j0ah0OUd36vA8OW2b7/b2tnLnb7/fz2q1OllbZrlc1u6BHtVwuNduNpvc3t5Wti/Gj6tTv+dbTCaTxp635/iuTnlfEp6/TFX2VbZlYTkfb7ViWffqqHNbezgc5vb29iSvfbjWAxVUego8cDpPT0+VWx7VcjTV8PDwcNTlhzqdzsmWpz2lp6ensywF6/j+YzAYWPL6xO7u7p6vrq4sb3eC4+rqylYDL/T4+Ph8c3NTqaU3X3qc8xp27DZfq9Wq/JKjx27L9Ho9v1uO7uHh4fn6+tq9tkFHXfs936MpbcRzf1enuC9VaQuVOqlKO1K7ojoO17XS58QlH01pa799+/ao1/rBYOBaDxUmQIcLcHNzU7zz2+l0Kv8g9tI8PT0dZS/wq6urWjf2np6ezrKHrOPbrhPX19eN6FTVydPT0/Pt7W0jHpSWPFqtluD8yA7BU90GOvV6vWLhys3NzQ/XPxgManMeH6stc319Xeu2DPVwd3f3fH19XZlgx/H9x2g0urhrxdu3b2vZRizVRz3Wfenm5ubstTfF27dvi59/yZ/tQarn8fHx+fXr17XrX9T9aFpb+/Hx8YcHL7daLdd6qAEBOlyIx8fHIh3fTqfzfHNz06iGUtPc3d29qOE3Go2e7+7uSpd/NIffSOmOxSUdrVbreTQaPb9+/brxM3nq5OHh4fn169fPo9HIQ/5vOIevrq4MEDuDx8fHDwM9qvrAq9PpVGLljJe2+QaDQW3v63d3dy8KLAx6oZTDNe36+rpyK4Y5/n40rd/zUnVoI1blu3ppH9t96ccdYwDDMY4qtAn5Z4cwfTQa1W6QUF2Opl/T3r59+93XegPvoV5+en5+fg5wUZbLZVarVdbrdTabTbbb7dFeu9frpd1uZzgcZjweV27fTL5ss9l8ODd2u13W63X2+32SP/cp6vf76Xa7GQ6HGQ6Hjdnz7692u92Hv8Nmszn6b+TSfLzfWL/f/3B96Ha7jT2HmuZwPTj8Hg7Hwf39fbnizuRwb0vy4fzt9/vucYUdzsv1ev3hPD04x7X7cH2raptnt9tltVp9sc03GAw+abM14Zq82Ww+fObDufGltsx4PK7l/os01+FadtgD8/C/Dy7hflsFl9Tv+VFfayN+fA0+hTp8V//Ux+50Oh/6RO5Lx7Hb7fLzzz+XLiOtViubzcb3WTOHa9jHv9cD9+Cvu+S29l+v9R+fL4drfb/f/3CvupS/CzSBAB0AAAAAgNqaz+f57bffSpeRq6urLBaL0mUAAD/oX6ULAAAAAACAl6pKaD2ZTEqXAAAcgRnoAAAAAADU0nq9zr///e/SZaTT6XyylQEAUF9moAMAAAAAUEvz+bx0CUmS6XRaugQA4EjMQAcAAAAAoJba7Xb2+33pMvL4+Jhut1u6DADgCMxABwAAAACgdhaLRSXC89FoJDwHgAYRoAMAAAAAUDvL5bJ0CUmSyWRSugQA4Igs4Q4AAAAAQK1sNpu8evWqdBnpdDrZbDalywAAjsgMdAAAAAAAaqUqs8/H43HpEgCAIzMDHQAAAACAWul2u9lut6XLyOPjo/3PAaBhzEAHAAAAAKA2VqtVJcLzwWAgPAeABhKgAwAAAABQG4vFonQJSZLJZFK6BADgBCzhDgAAAABALex2u3S73ez3+6J1tFqtbDabtNvtonUAAMdnBjoAAAAAALWwXC6Lh+dJMh6PhecA0FACdAAAAAAAaqEqy7dPp9PSJQAAJ2IJdwAAAAAAKm+z2eTVq1ely0in08lmsyldBgBwImagAwAAAABQeWafAwDnYAY6AAAAAACV1+12s91uS5eRp6cn+58DQIOZgQ4AAAAAQKUtl8tKhOej0Uh4DgANJ0AHAAAAAKDSlstl6RKSJJPJpHQJAMCJWcIdAAAAAIDK2u12+fnnn0uXkU6nk81mU7oMAODEzEAHAAAAAKCyqjL7fDwely4BADgDM9ABAAAAAKisfr+f9+/fly4jj4+P6Xa7pcsAAE7MDHQAAAAAACppvV5XIjwfDAbCcwC4EAJ0AAAAAAAqabFYlC4hSTKZTEqXAACciSXcAQAAAACopHa7nf1+X7SGVquV3W5XtAYA4HzMQAcAAAAAoHKWy2Xx8DxJxuNx6RIAgDMSoAMAAAAAUDlVWb59Op2WLgEAOCNLuAMAAAAAUCm73S4///xz6TLS6/WyXq9LlwEAnJEZ6AAAAAAAVEpVZp9PJpPSJQAAZ2YGOgAAAAAAldLtdrPdbkuXkaenp7Tb7dJlAABnZAY6AAAAAACVsV6vKxGeX11dCc8B4AIJ0AEAAAAAqIz5fF66hCTJeDwuXQIAUIAl3AEAAAAAqIx2u539fl+0hk6nk81mU7QGAKAMM9ABAAAAAKiExWJRPDxPkslkUroEAKAQAToAAAAAAJWwXC5Ll5BEgA4Al8wS7gAAAAAAFLfZbPLq1avSZWQwGGS1WpUuAwAoxAx0AAAAAACKq0pobfY5AFw2AToAAAAAAMVVIUBvtVoCdAC4cAJ0AAAAAACK22w2pUvIeDwuXQIAUJgAHQAAAACA4qoQoE+n09IlAACF/fT8/PxcuggAAAAAAC7bTz/9VPT9e71e1ut10RoAgPLMQAcAAAAAoLher1f0/c0+BwASAToAAAAAABXQbreLvr/9zwGARIAOAAAAAEAF9Pv9Yu99dXVVPMAHAKpBgA4AAAAAQHHD4bDYe08mk2LvDQBUy0/Pz8/PpYsAAAAAAOCy7Xa7dLvd7Pf7s75vp9PJZrM563sCANVlBjoAAAAAAMW12+0i+5CbfQ4AfMwMdAAAAAAAKmGz2eTVq1dne79Wq5XNZmP/cwDgAzPQAQAAAACohG63m5ubm7O932w2E54DAJ8wAx0AAAAAgErp9/t5//79Sd9jNBpluVye9D0AgPoxAx0AAAAAgEpZrVbp9Xone/1er5fFYnGy1wcA6kuADgAAAABApbTb7ZOF6L1eL6vVytLtAMBnCdABAAAAAKicQ4g+Go2O9prX19dZr9fCcwDgiwToAAAAAABUUrvdznK5zN3dXTqdzotfZzAY5O7uLvP5/IjVAQBN9NPz8/Nz6SIAAAAAAOBrVqtVFotFVqtVttvtP/63nU4n4/E4k8kk/X7/TBUCAHUnQAcAAAAAoHZ2u13W6/Vn/91wODxvMQBAYwjQAQAAAAAAACD2QAcAAAAAAACAJAJ0AAAAAAAAAEgiQAcAAAAAAACAJAJ0AAAAAAAAAEgiQAcAAAAAAACAJAJ0AAAAAAAAAEgiQAcAAAAAAACAJAJ0AAAAAAAAAEgiQAcAAAAAAACAJAJ0AAAAAAAAAEgiQAcAAAAAAACAJAJ0AAAAAAAAAEgiQAcAAAAAAACAJAJ0AAAAAAAAAEgiQAcAAAAAAACAJAJ0AAAAAAAAAEgiQAcAAAAAAACAJAJ0AAAAAAAAAEgiQAcAAAAAAACAJAJ0AAAAAAAAAEgiQAcAAAAAAACAJAJ0AAAAAAAAAEgiQAcAAAAAAACAJAJ0AAAAAAAAAEgiQAcAAAAAAACAJAJ0AAAAAAAAAEgiQAcAAAAAAACAJAJ0AAAAAAAAAEgiQAcAAAAAAACAJAJ0AAAAAAAAAEgiQAcAAAAAAACAJAJ0AAAAAAAAAEgiQAcAAAAAAACAJAJ0AAAAAAAAAEgiQAcAAAAAAACAJAJ0AAAAAAAAAEgiQAcAAAAAAACAJAJ0AAAAAAAAAEgiQAcAAAAAAACAJAJ0AAAAAAAAAEgiQAcAAAAAAACAJAJ0AAAAAAAAAEgiQAcAAAAAAACAJAJ0AAAAAAAAAEgiQAcAAAAAAACAJAJ0AAAAAAAAAEgiQAcAAAAAAACAJAJ0AAAAAAAAAEgiQAcAAAAAAACAJAJ0AAAAAAAAAEgiQAcAAAAAAACAJAJ0AAAAAAAAAEgiQAcAAAAAAACAJAJ0AAAAAAAAAEgiQAcAAAAAAACAJAJ0AAAAAAAAAEgiQAcAAAAAAACAJAJ0AAAAAAAAAEgiQAcAAAAAAACAJAJ0AAAAAAAAAEgiQAcAAAAAAACAJAJ0AAAAAAAAAEgiQAcAAAAAAACAJAJ0AAAAAAAAAEgiQAcAAAAAAACAJAJ0AAAAAAAAAEgiQAcAAAAAAACAJAJ0AAAAAAAAAEgiQAcAAAAAAACAJAJ0AAAAAAAAAEgiQAcAAAAAAACAJAJ0AAAAAAAAAEgiQAcAAAAAAACAJAJ0AAAAAAAAAEgiQAcAAAAAAACAJAJ0AAAAAAAAAEgiQAcAAAAAAACAJAJ0AAAAAAAAAEgiQAcAAAAAAACAJAJ0AAAAAAAAAEgiQAcAAAAAAACAJAJ0AAAAAAAAAEgiQAcAAAAAAACAJAJ0AAAAAAAAAEgiQAcAAAAAAACAJAJ0AAAAAAAAAEgiQAcAAAAAAACAJAJ0AAAAAAAAAEgiQAcAAAAAAACAJAJ0AAAAAAAAAEgiQAcAAAAAAACAJAJ0AAAAAAAAAEgiQAcAAAAAAACAJAJ0AAAAAAAAAEgiQAcAAAAAAACAJAJ0AAAAAAAAAEgiQAcAAAAAAACAJAJ0AAAAAAAAAEgiQAcAAAAAAACAJAJ0AAAAAAAAAEgiQAcAAAAAAACAJAJ0AAAAAAAAAEgiQAcAAAAAAACAJAJ0AAAAAAAAAEgiQAcAAAAAAACAJAJ0AAAAAAAAAEgiQAcAAAAAAACAJAJ0AAAAAAAAAEgiQAcAAAAAAACAJAJ0AAAAAAAAAEgiQAcAAAAAAACAJAJ0AAAAAAAAAEgiQAcAAAAAAACAJAJ0AAAAAAAAAEgiQAcAAAAAAACAJAJ0AAAAAAAAAEgiQAcAAAAAAACAJAJ0AAAAAAAAAEgiQAcAAAAAAACAJAJ0AAAAAAAAAEgiQAcAAAAAAACAJAJ0AAAAAAAAAEgiQAcAAAAAAACAJAJ0AAAAAAAAAEgiQAcAAAAAAACAJAJ0AAAAAAAAAEgiQAcAAAAAAACAJAJ0AAAAAAAAAEgiQAcAAAAAAACAJAJ0AAAAAAAAAEgiQAcAAAAAAACAJAJ0AAAAAAAAAEgiQAcAAAAAAACAJAJ0AAAAAAAAAEgiQAcAAAAAAACAJAJ0AAAAAAAAAEgiQAcAAAAAAACAJAJ0AAAAAAAAAEgiQAcAAAAAAACAJAJ0AAAAAAAAAEgiQAcAAAAAAACAJAJ0AAAAAAAAAEgiQAcAAAAAAACAJAJ0AAAAAAAAAEgiQAcAAAAAAACAJAJ0AAAAAAAAAEgiQAcAAAAAAACAJAJ0AAAAAAAAAEgiQAcAAAAAAACAJAJ0AAAAAAAAAEgiQAcAAAAAAACAJAJ0AAAAAAAAAEgiQAcAAAAAAACAJAJ0AAAAAAAAAEgiQAcAAAAAAACAJAJ0AAAAAAAAAEgiQAcAAAAAAACAJAJ0AAAAAAAAAEgiQAcAAAAAAACAJAJ0AAAAAAAAAEgiQAcAAAAAAACAJAJ0AAAAAAAAAEgiQAcAAAAAAACAJAJ0AAAAAAAAAEgiQAcAAAAAAACAJAJ0AAAAAAAAAEgiQAcAAAAAAACAJAJ0AAAAAAAAAEgiQAcAAAAAAACAJAJ0AAAAAAAAAEgiQAcAAAAAAACAJAJ0AAAAAAAAAEgiQAcAAAAAAACAJAJ0AAAAAAAAAEgiQAcAAAAAAACAJAJ0AAAAAAAAAEgiQAcAAAAAAACAJAJ0AAAAAAD3WXg1AAAFj0lEQVQAAEgiQAcAAAAAAACAJAJ0AAAAAAAAAEgiQAcAAAAAAACAJAJ0AAAAAAAAAEgiQAcAAAAAAACAJAJ0AAAAAAAAAEgiQAcAAAAAAACAJAJ0AAAAAAAAAEgiQAcAAAAAAACAJAJ0AAAAAAAAAEgiQAcAAAAAAACAJAJ0AAAAAAAAAEgiQAcAAAAAAACAJAJ0AAAAAAAAAEgiQAcAAAAAAACAJAJ0AAAAAAAAAEgiQAcAAAAAAACAJAJ0AAAAAAAAAEgiQAcAAAAAAACAJAJ0AAAAAAAAAEgiQAcAAAAAAACAJAJ0AAAAAAAAAEgiQAcAAAAAAACAJAJ0AAAAAAAAAEgiQAcAAAAAAACAJAJ0AAAAAAAAAEgiQAcAAAAAAACAJAJ0AAAAAAAAAEgiQAcAAAAAAACAJAJ0AAAAAAAAAEgiQAcAAAAAAACAJAJ0AAAAAAAAAEgiQAcAAAAAAACAJAJ0AAAAAAAAAEgiQAcAAAAAAACAJAJ0AAAAAAAAAEgiQAcAAAAAAACAJAJ0AAAAAAAAAEgiQAcAAAAAAACAJAJ0AAAAAAAAAEgiQAcAAAAAAACAJAJ0AAAAAAAAAEgiQAcAAAAAAACAJAJ0AAAAAAAAAEgiQAcAAAAAAACAJAJ0AAAAAAAAAEgiQAcAAAAAAACAJAJ0AAAAAAAAAEgiQAcAAAAAAACAJAJ0AAAAAAAAAEgiQAcAAAAAAACAJAJ0AAAAAAAAAEgiQAcAAAAAAACAJAJ0AAAAAAAAAEgiQAcAAAAAAACAJAJ0AAAAAAAAAEgiQAcAAAAAAACAJAJ0AAAAAAAAAEgiQAcAAAAAAACAJAJ0AAAAAAAAAEgiQAcAAAAAAACAJAJ0AAAAAAAAAEgiQAcAAAAAAACAJAJ0AAAAAAAAAEgiQAcAAAAAAACAJAJ0AAAAAAAAAEgiQAcAAAAAAACAJAJ0AAAAAAAAAEgiQAcAAAAAAACAJAJ0AAAAAAAAAEgiQAcAAAAAAACAJAJ0AAAAAAAAAEgiQAcAAAAAAACAJAJ0AAAAAAAAAEgiQAcAAAAAAACAJAJ0AAAAAAAAAEgiQAcAAAAAAACAJAJ0AAAAAAAAAEgiQAcAAAAAAACAJAJ0AAAAAAAAAEgiQAcAAAAAAACAJAJ0AAAAAAAAAEgiQAcAAAAAAACAJAJ0AAAAAAAAAEgiQAcAAAAAAACAJAJ0AAAAAAAAAEgiQAcAAAAAAACAJAJ0AAAAAAAAAEgiQAcAAAAAAACAJAJ0AAAAAAAAAEgiQAcAAAAAAACAJAJ0AAAAAAAAAEgiQAcAAAAAAACAJAJ0AAAAAAAAAEgiQAcAAAAAAACAJAJ0AAAAAAAAAEgiQAcAAAAAAACAJAJ0AAAAAAAAAEgiQAcAAAAAAACAJAJ0AAAAAAAAAEgiQAcAAAAAAACAJAJ0AAAAAAAAAEgiQAcAAAAAAACAJAJ0AAAAAAAAAEgiQAcAAAAAAACAJAJ0AAAAAAAAAEgiQAcAAAAAAACAJH8G6PvSRQAAAAAAAABAYft/JVmXrgIAAAAAAAAAClv/K8mydBUAAAAAAAAAUNjyp+fn526Sx9KVAAAAAAAAAEBBr/6VZJPkvnAhAAAAAAAAAFDKfZLNT8/Pz0nST/JQth4AAAAAAAAAKOLf+e8e6EmyTvKmYDEAAAAAAAAAUMKb/JmZ5zADPUnaSVZJemVqAgAAAAAAAICzep9kmGSXJP/66F/s/vsv3p+9JAAAAAAAAAA4r0/C8+TTAD0RogMAAAAAAADQfH8Lz5O/B+jJ/0J0e6IDAAAAAAAA0DRv8pnwPPl0D/TP6SeZJxmcpCwAAAAAAAAAOI/7JNMk6y/9B18L0A+6Scb/PfpJWkcoDgAAAAAAAABOZZ8/w/Llf4/N1/4P/w/HfVSFImcb3QAAAABJRU5ErkJggg==;" vertex="1" parent="xsLZkG5AdHQJMk4DCyu0-20">
          <mxGeometry width="110" height="110" as="geometry" />
        </mxCell>
        <mxCell id="xsLZkG5AdHQJMk4DCyu0-18" value="" style="endArrow=classic;startArrow=classic;html=1;rounded=0;" edge="1" parent="xsLZkG5AdHQJMk4DCyu0-20">
          <mxGeometry width="50" height="50" relative="1" as="geometry">
            <mxPoint x="343.75" y="54.66999999999999" as="sourcePoint" />
            <mxPoint x="453.75" y="54.66999999999999" as="targetPoint" />
          </mxGeometry>
        </mxCell>
        <mxCell id="xsLZkG5AdHQJMk4DCyu0-19" value="" style="endArrow=classic;startArrow=classic;html=1;rounded=0;" edge="1" parent="xsLZkG5AdHQJMk4DCyu0-20">
          <mxGeometry width="50" height="50" relative="1" as="geometry">
            <mxPoint x="96.25" y="54.66999999999999" as="sourcePoint" />
            <mxPoint x="206.25" y="54.66999999999999" as="targetPoint" />
          </mxGeometry>
        </mxCell>
      </root>
    </mxGraphModel>
  </diagram>
</mxfile>
